<?xml version="1.0" encoding="utf-8"?>
<!-- Generator: Adobe Illustrator 23.0.1, SVG Export Plug-In . SVG Version: 6.00 Build 0)  -->
<svg version="1.1" xmlns="http://www.w3.org/2000/svg" xmlns:xlink="http://www.w3.org/1999/xlink" x="0px" y="0px"
	 viewBox="0 0 167.3 68" style="enable-background:new 0 0 167.3 68;" xml:space="preserve">
<style type="text/css">
	.st0{fill:#FFFFFF;}
</style>
<g id="Layer_1">
	<g>
	</g>
	<g>
		<path class="st0" d="M11.8,0v17.6c0,5.3-1,10.7-7.5,10.7c-1.6,0-3-0.4-4.3-1.2l1.7-2.9C2.5,24.7,3.5,25,4.5,25
			c4,0,3.9-4.6,3.9-7.5V0H11.8z"/>
		<path class="st0" d="M16.2,19.6c0,2.9,2,5.7,5.2,5.7c2.5,0,3.9-1.3,5.1-3.3l2.8,1.6c-1.6,3-4.6,4.7-8,4.7c-5.2,0-8.4-4-8.4-9
			c0-5.3,2.8-9.2,8.4-9.2c5.5,0,8,4,8,9.1v0.5H16.2z M26,17.1c-0.4-2.6-2.1-4.3-4.7-4.3c-2.6,0-4.5,1.8-4.9,4.3H26z"/>
		<path class="st0" d="M38.1,14.4c-0.4-0.8-1.2-1.5-2.2-1.5c-0.9,0-1.8,0.7-1.8,1.7c0,1.5,2,2.2,4,3.1c2,0.9,4,2.2,4,4.9
			c0,3.3-2.7,5.7-5.9,5.7c-2.5,0-5-1.4-5.9-3.9l2.8-1.3c0.7,1.3,1.5,2.2,3.1,2.2c1.4,0,2.6-1,2.6-2.4c0-0.9-0.4-1.4-1.2-1.9
			l-3.2-1.7c-1.9-1-3.3-2-3.3-4.3c0-2.8,2.3-5,5.1-5c2.1,0,3.8,1.1,4.7,3L38.1,14.4z"/>
		<path class="st0" d="M50.2,14.4c-0.4-0.8-1.2-1.5-2.2-1.5c-0.9,0-1.8,0.7-1.8,1.7c0,1.5,2,2.2,4,3.1c2,0.9,4,2.2,4,4.9
			c0,3.3-2.7,5.7-5.9,5.7c-2.5,0-5-1.4-5.9-3.9l2.8-1.3c0.7,1.3,1.5,2.2,3.1,2.2c1.4,0,2.6-1,2.6-2.4c0-0.9-0.4-1.4-1.2-1.9
			l-3.2-1.7c-1.9-1-3.3-2-3.3-4.3c0-2.8,2.3-5,5.1-5c2.1,0,3.8,1.1,4.7,3L50.2,14.4z"/>
		<path class="st0" d="M59,2.6c0,1.2-1,2.2-2.3,2.2c-1.2,0-2.3-1-2.3-2.2c0-1.3,1-2.3,2.3-2.3C58,0.3,59,1.4,59,2.6z M58.4,27.7
			h-3.3V10.5h3.3V27.7z"/>
		<path class="st0" d="M73.3,15.4c-1.3-1.5-2.9-2.3-4.9-2.3c-3.2,0-5.7,2.9-5.7,6c0,3.5,2.5,6.1,5.9,6.1c1.9,0,3.5-0.9,4.7-2.3v4.2
			c-1.5,0.8-3,1.1-4.7,1.1c-5.1,0-9.2-3.9-9.2-9c0-5.3,4.1-9.2,9.4-9.2c1.5,0,3.2,0.4,4.6,1.1V15.4z"/>
		<path class="st0" d="M92,27.7h-3.3V25h-0.1c-1.3,1.9-3.4,3.3-5.8,3.3c-5.2,0-8.2-4.4-8.2-9.3c0-4.7,3.1-9,8.1-9
			c2.5,0,4.6,1.3,5.9,3.4h0.1v-2.9H92V27.7z M88.9,19.1c0-3.3-2-6.2-5.6-6.2c-3.4,0-5.4,3-5.4,6.2c0,3.2,1.9,6.2,5.4,6.2
			C86.9,25.3,88.9,22.5,88.9,19.1z"/>
		<path class="st0" d="M53.3,35.7C51.4,34,48.7,33,46,33c-6.2,0-10.9,5.2-10.9,11.3c0,6.1,4.7,11.2,10.9,11.2c2.7,0,5.3-1,7.4-2.9
			v4.1c-2.1,1.2-4.8,1.9-7.3,1.9c-7.9,0-14.4-6.3-14.4-14.3c0-8.2,6.6-14.6,14.7-14.6c2.4,0,4.9,0.6,7,1.9V35.7z"/>
		<path class="st0" d="M58.4,29.9v13.4h0.1c1-1.8,3.1-2.8,5.2-2.8c4.8,0,6.1,3.3,6.1,7.4v10.2h-3.3v-9.8c0-2.9-0.4-4.9-3.8-4.9
			c-4.3,0-4.3,3.7-4.3,6.9v7.9h-3.3V29.9H58.4z"/>
		<path class="st0" d="M88.4,58.1h-3.3v-2.7H85c-1.3,1.9-3.4,3.3-5.8,3.3c-5.2,0-8.2-4.4-8.2-9.3c0-4.7,3.1-9,8.1-9
			c2.5,0,4.6,1.3,5.9,3.4h0.1v-2.9h3.3V58.1z M85.3,49.5c0-3.3-2-6.2-5.6-6.2c-3.4,0-5.4,3-5.4,6.2c0,3.2,1.9,6.2,5.4,6.2
			C83.3,55.8,85.3,52.9,85.3,49.5z"/>
		<path class="st0" d="M93.7,43.8L93.7,43.8c1.4-2.1,3.5-3.4,6.1-3.4c5,0,8.1,4.3,8.1,9c0,4.9-2.9,9.3-8.2,9.3
			c-2.4,0-4.5-1.3-5.8-3.3h-0.1V68h-3.3v-27h3.3V43.8z M104.6,49.5c0-3.3-2-6.2-5.6-6.2c-3.4,0-5.4,3-5.4,6.2c0,3.2,1.9,6.2,5.4,6.2
			C102.6,55.8,104.6,52.9,104.6,49.5z"/>
		<path class="st0" d="M112.3,43.1L112.3,43.1c1-1.5,2.8-2.7,4.6-2.7c2.2,0,3.9,1.1,5,3c1.1-1.8,3.1-3,5.3-3c4.5,0,5.7,3.5,5.7,7.4
			v10.3h-3.3v-9.7c0-2.2-0.3-5-3.2-5c-3.5,0-3.8,3.7-3.8,6.3v8.4h-3.3V49c0-2.2-0.1-5.7-3.2-5.7c-3.5,0-3.8,3.6-3.8,6.3v8.4H109
			V40.9h3.3V43.1z"/>
		<path class="st0" d="M151.4,58.1h-3.3v-2.7H148c-1.3,1.9-3.4,3.3-5.8,3.3c-5.2,0-8.2-4.4-8.2-9.3c0-4.7,3.1-9,8.1-9
			c2.5,0,4.6,1.3,5.9,3.4h0.1v-2.9h3.3V58.1z M148.3,49.5c0-3.3-2-6.2-5.6-6.2c-3.4,0-5.4,3-5.4,6.2c0,3.2,1.9,6.2,5.4,6.2
			C146.3,55.8,148.3,52.9,148.3,49.5z"/>
		<path class="st0" d="M156,43.3L156,43.3c1.1-1.8,3.2-2.8,5.3-2.8c4.8,0,6.1,3.3,6.1,7.4v10.2H164v-9.8c0-2.9-0.4-4.9-3.8-4.9
			c-4.3,0-4.3,3.7-4.3,6.9v7.9h-3.3V40.9h3.3V43.3z"/>
	</g>
</g>
<g id="Layer_2">
</g>
</svg>
