<?xml version="1.0" encoding="utf-8"?>
<!-- Generator: Adobe Illustrator 23.0.1, SVG Export Plug-In . SVG Version: 6.00 Build 0)  -->
<svg version="1.1" xmlns="http://www.w3.org/2000/svg" xmlns:xlink="http://www.w3.org/1999/xlink" x="0px" y="0px"
	 viewBox="0 0 195 96" style="enable-background:new 0 0 195 96;" xml:space="preserve">
<style type="text/css">
	.st0{fill:#FFFFFF;}
</style>
<g id="Layer_1">
	<g>
		<g>
			<path class="st0" d="M15.3,87.5c3.2,1.8,7.3,2.9,9.9,2.9c7.7,0,8.3-7.2,8.3-13.1V1h4.9v76.2c0,9.7-2.4,17.7-13.7,17.7
				c-5.7,0-10.5-3.4-12.9-8.4"/>
			<path class="st0" d="M36.3,47.6c0,0-8.7-0.4-13.5,0.2C11.7,49.3,4.6,60.3,6,71.5C7.3,82.7,17,91.8,28.2,90.3
				c0.8-0.1,1.7-0.3,2.5-0.5c5.7-1.5,3.8,2.5-1.1,4.1c-2.1,0.7-3.5,1.1-3.6,1.1C13.4,95.1,3.2,85.5,1.6,72.1
				c-1.7-14.3,7-27,20.9-28.8c4.9-0.6,14.6-0.1,14.6-0.1"/>
			<polygon class="st0" points="193.6,47.5 25.2,47.5 27.7,43 193.6,43 			"/>
		</g>
	</g>
	<g>
		<path class="st0" d="M49.9,18.1V28c0,3-0.6,6-4.2,6c-0.9,0-1.7-0.2-2.4-0.7l1-1.7c0.4,0.3,1,0.5,1.6,0.5c2.2,0,2.2-2.6,2.2-4.2
			v-9.9H49.9z"/>
		<path class="st0" d="M53.5,29.1c0,1.7,1.1,3.2,2.9,3.2c1.4,0,2.2-0.7,2.9-1.9l1.6,0.9C60,33,58.3,34,56.4,34c-3,0-4.8-2.2-4.8-5.1
			c0-3,1.6-5.2,4.7-5.2c3.1,0,4.5,2.3,4.5,5.2v0.3H53.5z M59,27.7c-0.2-1.5-1.2-2.4-2.7-2.4c-1.4,0-2.5,1-2.8,2.4H59z"/>
		<path class="st0" d="M66.4,26.2c-0.2-0.5-0.7-0.8-1.2-0.8c-0.5,0-1,0.4-1,1c0,0.8,1.1,1.2,2.3,1.7c1.1,0.5,2.2,1.2,2.2,2.8
			c0,1.8-1.5,3.2-3.3,3.2c-1.4,0-2.8-0.8-3.4-2.2l1.6-0.7c0.4,0.7,0.9,1.2,1.8,1.2c0.8,0,1.5-0.5,1.5-1.4c0-0.5-0.2-0.8-0.7-1.1
			l-1.8-1c-1.1-0.6-1.9-1.1-1.9-2.4c0-1.6,1.3-2.8,2.9-2.8c1.2,0,2.1,0.6,2.7,1.7L66.4,26.2z"/>
		<path class="st0" d="M74.4,26.2c-0.2-0.5-0.7-0.8-1.2-0.8c-0.5,0-1,0.4-1,1c0,0.8,1.1,1.2,2.3,1.7c1.1,0.5,2.2,1.2,2.2,2.8
			c0,1.8-1.5,3.2-3.3,3.2c-1.4,0-2.8-0.8-3.4-2.2l1.6-0.7c0.4,0.7,0.9,1.2,1.8,1.2c0.8,0,1.5-0.5,1.5-1.4c0-0.5-0.3-0.8-0.7-1.1
			l-1.8-1c-1.1-0.6-1.9-1.1-1.9-2.4c0-1.6,1.3-2.8,2.9-2.8c1.2,0,2.1,0.6,2.7,1.7L74.4,26.2z"/>
		<path class="st0" d="M81.1,19.6c0,0.7-0.6,1.3-1.3,1.3c-0.7,0-1.3-0.6-1.3-1.3c0-0.7,0.6-1.3,1.3-1.3
			C80.5,18.2,81.1,18.8,81.1,19.6z M80.7,33.7h-1.9V24h1.9V33.7z"/>
		<path class="st0" d="M90.8,26.7c-0.7-0.9-1.7-1.3-2.8-1.3c-1.8,0-3.2,1.6-3.2,3.4c0,2,1.4,3.4,3.4,3.4c1.1,0,1.9-0.5,2.7-1.3v2.4
			C90,33.8,89.1,34,88.1,34c-2.9,0-5.2-2.2-5.2-5.1c0-3,2.3-5.2,5.3-5.2c0.9,0,1.8,0.2,2.6,0.6V26.7z"/>
		<path class="st0" d="M101.9,33.7h-1.9v-1.5h0c-0.7,1.1-1.9,1.8-3.3,1.8c-3,0-4.6-2.5-4.6-5.2c0-2.7,1.8-5.1,4.6-5.1
			c1.4,0,2.6,0.7,3.4,1.9h0V24h1.9V33.7z M100.2,28.8c0-1.9-1.1-3.5-3.1-3.5c-1.9,0-3.1,1.7-3.1,3.5c0,1.8,1.1,3.5,3.1,3.5
			C99,32.4,100.2,30.7,100.2,28.8z"/>
		<path class="st0" d="M121.9,21c-1.1-1-2.7-1.5-4.1-1.5c-3.5,0-6.2,2.9-6.2,6.4c0,3.4,2.7,6.3,6.1,6.3c1.5,0,3-0.6,4.2-1.6v2.3
			c-1.2,0.7-2.7,1.1-4.1,1.1c-4.5,0-8.1-3.5-8.1-8.1c0-4.6,3.7-8.2,8.3-8.2c1.4,0,2.8,0.3,3.9,1.1V21z"/>
		<path class="st0" d="M125.9,17.7v7.6h0c0.6-1,1.7-1.6,2.9-1.6c2.7,0,3.4,1.8,3.4,4.2v5.8h-1.9v-5.6c0-1.7-0.2-2.8-2.1-2.8
			c-2.4,0-2.4,2.1-2.4,3.9v4.5H124v-16H125.9z"/>
		<path class="st0" d="M144,33.7h-1.9v-1.5h0c-0.7,1.1-1.9,1.8-3.3,1.8c-3,0-4.6-2.5-4.6-5.2c0-2.7,1.8-5.1,4.6-5.1
			c1.4,0,2.6,0.7,3.4,1.9h0V24h1.9V33.7z M142.2,28.8c0-1.9-1.1-3.5-3.1-3.5c-1.9,0-3.1,1.7-3.1,3.5c0,1.8,1.1,3.5,3.1,3.5
			C141.1,32.4,142.2,30.7,142.2,28.8z"/>
		<path class="st0" d="M148.1,25.6L148.1,25.6c0.8-1.2,2-1.9,3.4-1.9c2.8,0,4.6,2.4,4.6,5.1c0,2.8-1.7,5.2-4.6,5.2
			c-1.4,0-2.5-0.7-3.3-1.8h0v7.1h-1.9V24h1.9V25.6z M154.2,28.8c0-1.9-1.1-3.5-3.2-3.5c-1.9,0-3.1,1.7-3.1,3.5
			c0,1.8,1.1,3.5,3.1,3.5C153.1,32.4,154.2,30.7,154.2,28.8z"/>
		<path class="st0" d="M159.7,25.2L159.7,25.2c0.6-0.9,1.6-1.5,2.6-1.5c1.3,0,2.2,0.6,2.8,1.7c0.6-1,1.8-1.7,3-1.7
			c2.5,0,3.2,2,3.2,4.2v5.8h-1.9v-5.5c0-1.2-0.2-2.8-1.8-2.8c-2,0-2.1,2.1-2.1,3.6v4.8h-1.9v-5.1c0-1.3-0.1-3.2-1.8-3.2
			c-2,0-2.2,2.1-2.2,3.6v4.8h-1.9V24h1.9V25.2z"/>
		<path class="st0" d="M182.9,33.7h-1.9v-1.5h0c-0.7,1.1-1.9,1.8-3.3,1.8c-3,0-4.6-2.5-4.6-5.2c0-2.7,1.8-5.1,4.6-5.1
			c1.4,0,2.6,0.7,3.4,1.9h0V24h1.9V33.7z M181.2,28.8c0-1.9-1.1-3.5-3.2-3.5c-1.9,0-3.1,1.7-3.1,3.5c0,1.8,1.1,3.5,3.1,3.5
			C180,32.4,181.2,30.7,181.2,28.8z"/>
		<path class="st0" d="M187.2,25.3L187.2,25.3c0.6-1,1.8-1.6,3-1.6c2.7,0,3.4,1.8,3.4,4.2v5.8h-1.9v-5.6c0-1.7-0.2-2.8-2.1-2.8
			c-2.4,0-2.4,2.1-2.4,3.9v4.5h-1.9V24h1.9V25.3z"/>
	</g>
	<g>
	</g>
</g>
<g id="Layer_2">
</g>
</svg>
