<?xml version="1.0" encoding="utf-8"?>
<!-- Generator: Adobe Illustrator 23.0.1, SVG Export Plug-In . SVG Version: 6.00 Build 0)  -->
<svg version="1.1" id="Layer_1" xmlns="http://www.w3.org/2000/svg" xmlns:xlink="http://www.w3.org/1999/xlink" x="0px" y="0px"
	 viewBox="0 0 127.9 211" style="enable-background:new 0 0 127.9 211;" xml:space="preserve">
<style type="text/css">
	.st0{fill:#FFFFFF;}
	.st1{fill:#6E503A;stroke:#6F513B;stroke-width:0.213;stroke-miterlimit:10;}
	.st2{clip-path:url(#XMLID_2_);fill:#CFCFCE;}
	.st3{clip-path:url(#XMLID_3_);fill:#F4A67F;}
	.st4{clip-path:url(#XMLID_4_);fill:#485F83;}
	.st5{clip-path:url(#XMLID_4_);fill:#A3B4CC;}
	.st6{clip-path:url(#XMLID_4_);}
	.st7{fill:#485F83;}
	.st8{fill:none;}
	.st9{clip-path:url(#XMLID_5_);fill:#F4A67F;}
	.st10{clip-path:url(#XMLID_14_);fill:#F4A67F;}
	.st11{clip-path:url(#XMLID_16_);}
	.st12{fill:#631143;}
	.st13{clip-path:url(#XMLID_16_);fill:#B53F82;}
	.st14{fill:#F8D3AA;}
	.st15{fill:#F4A67F;}
	.st16{clip-path:url(#XMLID_17_);fill:#F4A67F;}
	.st17{clip-path:url(#XMLID_17_);fill:#FBE3BE;}
	.st18{clip-path:url(#XMLID_18_);fill:#485F83;}
	.st19{fill:none;stroke:#7E3119;stroke-width:0.2063;stroke-miterlimit:10;}
	.st20{fill:#4B0D34;}
	.st21{fill:none;stroke:#344C72;stroke-width:0.2063;stroke-linecap:round;stroke-linejoin:round;}
	.st22{fill:none;stroke:#7A1950;stroke-width:0.2063;stroke-miterlimit:10;}
	.st23{fill:none;stroke:#4C678E;stroke-width:0.2063;stroke-linecap:round;stroke-linejoin:round;}
	.st24{fill:none;stroke:#5E5F5F;stroke-width:0.2063;stroke-linecap:round;stroke-linejoin:round;}
	.st25{fill:none;stroke:#4B0D34;stroke-width:0.2063;stroke-miterlimit:10;}
	.st26{fill:#7E3119;}
	.st27{fill:#F8D3AA;stroke:#7E3119;stroke-width:0.2063;stroke-miterlimit:10;}
	.st28{fill:#3D1910;stroke:#C64667;stroke-width:0.2063;stroke-miterlimit:10;}
	.st29{fill:#6E2713;}
	.st30{fill:#FAB691;}
	.st31{opacity:0.8;fill:#FFF0DD;}
	.st32{fill:#D1795E;}
	.st33{fill:#F4AB83;}
	.st34{fill:#FBE3BE;}
	.st35{fill:#724939;}
	.st36{fill:none;stroke:#724939;stroke-width:0.2063;stroke-miterlimit:10;}
	.st37{fill:#ED4969;stroke:#C82030;stroke-width:0.2063;stroke-miterlimit:10;}
	.st38{clip-path:url(#XMLID_19_);}
	.st39{fill:#F494AD;}
	.st40{fill:#5B3F2D;}
	.st41{fill:#967450;}
	.st42{opacity:0.6;clip-path:url(#XMLID_27_);fill:#B98E67;}
	.st43{opacity:0.6;fill:#B98E67;}
	.st44{fill:#6B431B;}
	.st45{opacity:0.6;fill:#D1A682;}
	.st46{fill:#60412D;}
	.st47{fill:none;stroke:#6F513B;stroke-width:0.2063;stroke-miterlimit:10;}
	.st48{fill:#6F513B;}
	.st49{fill:none;stroke:#60412E;stroke-width:0.2063;stroke-miterlimit:10;}
	.st50{clip-path:url(#XMLID_28_);fill:#CFCFCE;}
	.st51{fill:#B53F82;}
	.st52{clip-path:url(#XMLID_31_);}
	.st53{fill:#7E5020;stroke:#000000;stroke-width:0.2174;stroke-miterlimit:10;}
	.st54{fill:#BC8350;}
	.st55{stroke:#000000;stroke-width:0.272;stroke-linecap:round;stroke-linejoin:round;stroke-miterlimit:10;}
	.st56{clip-path:url(#XMLID_32_);}
	.st57{clip-path:url(#XMLID_33_);fill:#BC8350;}
	.st58{stroke:#000000;stroke-width:0.254;stroke-linecap:round;stroke-linejoin:round;stroke-miterlimit:10;}
	.st59{fill:none;stroke:#442F1C;stroke-width:0.2063;stroke-miterlimit:10;}
	.st60{fill:url(#SVGID_1_);}
	.st61{fill:url(#SVGID_2_);}
	.st62{fill:url(#SVGID_3_);}
	.st63{fill:url(#SVGID_4_);}
	.st64{fill:url(#SVGID_5_);}
	.st65{fill:url(#SVGID_6_);}
	.st66{fill:url(#SVGID_7_);}
	.st67{fill:url(#SVGID_8_);}
	.st68{fill:url(#SVGID_9_);}
	.st69{fill:url(#SVGID_10_);}
	.st70{stroke:#000000;stroke-width:4;stroke-linecap:round;stroke-linejoin:round;stroke-miterlimit:10;}
	.st71{fill:none;stroke:#986139;stroke-width:0.2063;stroke-miterlimit:10;}
	.st72{clip-path:url(#XMLID_42_);fill:#AD8C6D;}
	.st73{clip-path:url(#XMLID_49_);fill:#E2D4AC;}
	.st74{clip-path:url(#XMLID_50_);fill:#E2D4AC;}
	.st75{clip-path:url(#XMLID_55_);fill:#E2D4AC;}
	.st76{clip-path:url(#XMLID_56_);fill:#AD8C6D;}
	.st77{clip-path:url(#XMLID_56_);fill:#E7BA82;}
	.st78{clip-path:url(#XMLID_57_);fill:#E2D4AC;}
	.st79{opacity:0.46;fill:#855C37;}
	.st80{fill:#996C47;}
	.st81{fill:#986139;}
	.st82{fill:#FAF7ED;}
	.st83{clip-path:url(#XMLID_58_);fill:#E2D4AC;}
	.st84{clip-path:url(#XMLID_59_);fill:#E2D4AC;}
	.st85{fill:#E7BA82;}
	.st86{fill:#232323;stroke:#000000;stroke-width:0.2063;stroke-miterlimit:10;}
	.st87{fill:#503211;stroke:#000000;stroke-width:0.2063;stroke-miterlimit:10;}
	.st88{opacity:0.25;fill:#161616;}
	.st89{fill:none;stroke:#000000;stroke-width:0.2063;stroke-miterlimit:10;}
	.st90{stroke:#000000;stroke-width:0.2063;stroke-miterlimit:10;}
	.st91{fill:none;stroke:#A3A3A3;stroke-width:0.2063;stroke-miterlimit:10;}
	.st92{opacity:0.25;fill:none;stroke:#161616;stroke-width:0.2063;stroke-miterlimit:10;}
	.st93{fill:#E2D4AC;}
</style>
<path d="M127.9,196.2c0-0.4-0.1-0.9-0.1-1.3c-0.7-4-3.6-5.6-5.5-6.6c-0.1-0.1-0.3-0.2-0.4-0.2c-0.9-0.8-1.8-1.9-2.7-3.1
	c-0.8-1.1-1.7-2.3-2.7-3.2c-3.3-3.3-4.1-5.6-4.9-7.9c-0.3-0.8-0.5-1.6-0.9-2.4c0.5-1.1,0.3-2.1,0.2-2.5c-0.1-0.2-0.1-0.3-0.2-0.5
	l-1.7-3l-16.1-30.8c-0.8-1.5-2.1-2.6-3.7-3.1c-1-0.3-2.9-0.7-5.5-1.3c-4-0.9-9.3-2.1-14.7-3.6c-0.5-6.2,0.1-13.8,0.7-21.2
	c0.3-3.7,0.6-7.1,0.7-10.3c0.6,0.8,1.4,1.4,2.4,1.9c1.1,0.5,2.5,0.1,3.1-1c0.6-1.1,0.4-2.4-0.5-3.2c-1.7-1.4-1.4-4.6-1.2-5.5
	c0.5-3.1,1.9-6.4,4.5-10.4c1.9-2.9,3.5-5.8,4.9-8.6c0.8-1.3,1.6-2.9,2.1-4.8c0.4-0.9,0.7-1.9,1-2.8c0.7-1.9,1.2-3.2,1.2-4.2
	c0.7-2.8,1.2-5.6,1.5-8.5c0.6-5.7,0.7-10.6,0-14.8c-0.6-4.3-1.5-8.2-2.5-11.6c0-0.1,0-0.2,0-0.2c-0.8-3-3.1-8.4-4.8-10.7
	c-5.9-9-12.8-8.3-14.2-8l-0.1,0c-4.3-3.5-11.5-3.1-17-2.1l-0.2,0c-0.3,0-0.6,0.1-0.8,0.1c-1.4,0.2-2.8,0.6-4.2,1
	c-0.1,0-0.3,0.1-0.4,0.2l-0.1,0c-0.7,0.2-1.3,0.4-2.1,0.8c0,0-0.1,0-0.1,0.1c-6.3,2.8-11.4,9.3-15.5,19.9c-0.1,0.2-0.2,0.3-0.3,0.5
	c-0.2,0.3-0.3,0.7-0.3,1.1c-0.7,1.9-1.4,4-2.1,6.2c-1.1,3.6-2.1,7.3-2.9,10.5l-0.1,0.1c-0.2,0.4-0.3,0.9-0.3,1.3l-0.6,2.4
	c-0.6,2.4-1.3,4.9-2,7c-0.1,0.4-0.2,0.7-0.3,1.1c0,0.1-0.1,0.1-0.1,0.2c0,0.1,0,0.1-0.1,0.2c-0.1,0.3-0.1,0.6-0.2,0.9
	c-2.8,11.8,1.6,20,3.5,22.9c0.5,0.8,1,1.4,1.3,1.8c0.4,0.7,0.9,1.4,1.4,2c-2.9,7-4.8,17.9-4.6,27.5l0,0.1c0,0,0,0.1,0,0.1l-2.4,17.3
	c-2.6,3.9-5.6,9.5-6,15.4c-0.1,1.9,0.1,3.7,0.5,5.4l-0.4,0.1H9.7c-0.4,0-0.8,0.1-1.1,0.3c-1.3,0.7-3.6,1.8-4.8,3
	c-0.4,0.2-0.6,0.3-0.7,0.3c-0.2,0-0.4,0.1-0.6,0.2c-0.6,0.3-1,0.6-1.3,1c-0.6,0.4-1.1,1.1-1.2,1.9c-0.1,0.8,0.2,1.9,1.2,2.8
	c1.2,1,3.1,1.6,9-0.1c0,0.1,0,0.1,0,0.2c0.4,2.2,2.7,2.2,3.6,2.2c0.8,0,2,0,3.7-0.1c9.5-0.3,10.5-3,10.9-3.9
	c0.1-0.2,0.1-0.3,0.1-0.5l4.2-0.2c3.7,1.3,12.7,1.6,20.2,1.7c-0.2,4.5,0.1,8.3,0.2,9.3l-0.5,7.6l-0.6,2c-0.4,1-0.4,2,0,3
	c0.2,0.4,0.4,0.7,0.6,1c0,0.5-0.2,1.2-0.4,2.2c-0.4,1.9-1.1,3.9-1.4,5c0,0.1-0.1,0.2-0.1,0.3c-0.2,0.1-0.3,0.3-0.5,0.5
	c-0.2,0.3-0.4,0.6-0.6,0.9c-0.2,0.3-0.4,0.6-0.5,1c-0.1,0.2-0.1,0.3-0.1,0.5l-0.1,0.3c-0.3,1.1-0.4,2-0.3,2.9c0,0.2,0,0.4,0,0.5
	c0.1,1.3,0.7,2.6,1.8,3.4c1.5,1.2,4.9,4.9,6.1,6.4c2,2.7,4,4.7,5.9,6.1c0.4,0.3,0.6,0.5,0.6,0.5c0.2,0.1,0.4,0.3,0.6,0.3l0.2,0.1
	c1.7,1,3.2,1.3,4.4,1.3c1.5,0,2.6-0.5,3.2-0.9c0.1,0,0.1-0.1,0.1-0.1c0.2-0.1,0.4-0.3,0.6-0.4c0.2-0.1,0.3-0.3,0.3-0.3
	c0.3-0.3,0.5-0.8,0.6-1.2c0.1-0.4,0.1-0.8,0.1-1.4c0-0.4,0-0.8,0-1.1c0-0.4-0.1-0.8-0.2-1.1c-0.3-1.5-0.8-2.9-1.7-4
	c-0.5-0.8-1-1.4-1.6-1.8c-0.1-0.1-0.2-0.2-0.3-0.2l-1.6-2.2c-0.2-0.5-0.4-1.1-0.6-1.7c-1-2.8-2.4-6.5-2.9-8.3
	c-0.3-1.1-0.3-3.5-0.1-5.8c0.6-0.1,1.2-0.4,1.7-0.7c1.3-0.8,2.1-2.3,2.2-3.8c0-0.1,0-0.2,0-0.2l-0.1-1.7c0.7-1.6,2.7-6.6,4.9-12.4
	c1.4-3.6,2.5-6.9,3.5-9.8c0.2,0.3,0.4,0.6,0.7,1c7,9.8,16.9,17.3,19.9,19.5l0.1,0.6c0.2,1.1,0.8,2,1.6,2.6c0.5,0.3,1,0.5,1.5,0.7
	c0.2,0.2,0.5,0.6,0.8,1.2c-0.1,0.2-0.2,0.3-0.3,0.5c-0.1,0.1-0.1,0.2-0.2,0.2c0,0,0,0-0.1,0c-0.9,0.8-3.4,2.9-2,7.7
	c0,0.2,0.1,0.3,0.2,0.4c0.4,1,0.9,1.9,1.7,2.6c0.8,0.8,1.8,1.3,2.7,1.9c0.3,0.2,0.6,0.4,1,0.6c0.5,0.3,0.9,0.6,1.4,0.9
	c2.4,1.5,4.7,2.9,6.1,5l0.2,0.2c0.3,0.5,0.7,1.1,1.3,1.6c0.8,0.7,1.6,1,2.3,1.2c1.2,0.4,2.5,0.6,3.8,0.7c0,0,0.1,0,0.1,0l1.2,0
	c0,0,0.1,0,0.1,0c2.1-0.2,4.1-0.8,5.8-1.8c0.1,0,0.2-0.1,0.3-0.1c0.8-0.5,1.2-1.3,1.2-2.2C127.9,196.5,127.9,196.4,127.9,196.2z"/>
<g>
	<g>
		<path class="st0" d="M66.3,200.4c0,0,2.1-1.8,4.1,3.6c0,0,0.8,2.4,0,3.9c0,0-1.4,0.9-3.5,0.3l-2.3-1c0,0-1.4-1.1-2.5-2.1
			c-1.5-1.4-3.2-3.5-4.4-5.1c0,0-5.2-5.5-6.1-6.1c0,0-1.1-1.4-0.1-4.7c0.1-0.4,0.5-0.7,0.7-1.1c0,0,1.3,0.8,2.6,2c1,0.9,2,2.2,2,2.2
			c2.3,3.1,2.9,7.6,3.4,8.2s0,0.1,0,0.1s2.9,1.9,3.6,1.9C64.7,202.4,66.3,200.4,66.3,200.4z"/>
		<path d="M74.2,45.5c0.3-0.2,0.7-0.4,0.9-0.7c-0.3-0.3-0.5-0.4-0.6-0.6c0.4,0.2,0.7,0.5,1,0.8c-0.2,0-0.4,0.1-0.6,0.3
			c-0.3,0.2-0.6,0.3-0.9,0.4"/>
		<g>
			<path class="st1" d="M79.3,60.4c0,0-10.5,33-29.4,28.8l-18.2-10l4.6-44.3l43.9-1.6L79.3,60.4z"/>
			<g id="XMLID_43_">
				<g>
					<g>
						<defs>
							<path id="XMLID_54_" d="M120.4,190.2c2.1,1.2,4.9,2.3,5,6.4c-2.7,1.7-6.2,2.1-9.2,1.1c-0.5-0.2-1-0.4-1.4-0.7
								c-0.4-0.4-0.7-0.9-1-1.4c-1.9-3-5.2-4.7-8.2-6.6c-1.8-1.2-3.9-2-4.5-4.1c-1.1-3.9,0.9-4.8,1.6-5.4c0.1,0.9,2.7,1.4,10.1,11.4
								C115.3,194.5,118.2,189,120.4,190.2z"/>
						</defs>
						<use xlink:href="#XMLID_54_"  style="overflow:visible;fill:#FFFFFF;"/>
						<clipPath id="XMLID_2_">
							<use xlink:href="#XMLID_54_"  style="overflow:visible;"/>
						</clipPath>
						<path class="st2" d="M109.4,190.5c2.2,1.3,5.7,6.5,9,6.6c2,0.1,6.6,0,7.1-2.1c0.4,0.9-0.2,2-1.1,2.5c-0.9,0.5-1.9,0.5-3,0.5
							c-1.3,0-2.6,0.1-3.8,0.1c-1.7,0-3.4,0-4.9-0.8c-1.1-0.6-1.9-1.7-2.7-2.7c-2-2.4-4.3-4.4-6.9-6.1c-1.2-0.8-2.5-1.5-3.2-2.7
							c-0.4-0.7-0.1-1.8,0-2.6c0.2-1,0.3-2.1,0.9-3c0.5-0.7,1.2-1.2,1.9-1.6c0.9,0.7,2.3,2.1,2.8,3.1c-0.6-0.4-2.4-0.7-3-0.3
							c-0.2,0.1-1.5,1.2-1.4,3.2c0,0.3,0.1,0.4,0.1,0.7c0,0.4,0.3,0.8,0.6,1.1C102.2,187,108.1,189.7,109.4,190.5z"/>
					</g>
					<g>
						<defs>
							<path id="XMLID_53_" d="M103.9,177.7c-0.4-2.7-2.4-4.1-2.4-4.1l0-0.1c0.1,0,0.2,0,0.2-0.1l4.8-1.8c0.4-0.1,0.8-0.3,1.1-0.5
								l0,0c2.2,3.3,1.4,6.8,7.1,12.4c2,2,3.5,4.9,5.7,6.7c-2.2-1.3-5.1,4.3-7.8,0.6c-7.3-10-9.9-10.5-10.1-11.4
								C103,178.9,103.4,178,103.9,177.7z"/>
						</defs>
						<use xlink:href="#XMLID_53_"  style="overflow:visible;fill:#F8D3AA;"/>
						<clipPath id="XMLID_3_">
							<use xlink:href="#XMLID_53_"  style="overflow:visible;"/>
						</clipPath>
						<path class="st3" d="M103.7,177.7c0.1,0.1,0.2,0.2,0.2,0.4c0,3,0.2,2.7,1.1,5.1c-0.3-0.5-3.3-3.3-3.5-3.9
							c-0.1-0.1-0.1-0.3-0.1-0.5c0-0.2,0.1-0.3,0.1-0.5c0.3-0.8,0.4-1.6,0.4-2.4c0-0.4,0-0.9-0.1-1.3c0-0.3-0.3-0.9-0.2-1.2
							c0.2-0.4,1.4-0.6,1.8-0.7c0.5-0.2,4.4-2.2,4.8-2.5c4.2-2.8-0.9,1.8-4.9,3.6C103,174.1,103.5,177.3,103.7,177.7z"/>
					</g>
					<g>
						<defs>
							<path id="XMLID_52_" d="M75.8,145.7c-3.4,11.3-10.2,27.6-10.2,27.6l0.1,2.3c-0.1,1.3-1.2,2.3-2.5,2.2l-1.1-0.1l-6.6-0.4
								c-0.1,0-0.2,0-0.3,0c-0.8-0.2-1.2-1.1-0.8-1.9l0.7-2.4l0.5-8.1c0,0-0.7-5.7-0.1-11.7l-0.1,0c0,0-18.6,0.2-22.5-1.7l-7.2,0.4
								l-0.1,0c-0.2-1.2-0.6-3-1.8-5.1c0,0,2.6-11.4,4.6-19.5c3.3,0.9,7.2,1.4,10.6,1.6c1.4,0.1,2.8,0.1,4.1-0.3
								c1-0.3,1.9-0.8,2.9-1.3c2.8-1.4,5.9-2,9-2.7l0,0c1.2,0.5,2.4,1,3.6,1.5c2.5,0.9,5.2,1.8,7.9,2.5c9.5,2.7,19.2,4.6,21.8,5.4
								c0.9,0.3,1.7,0.9,2.2,1.8l16.1,30.8l1.7,3.1c0.2,0.6-0.2,1.1-0.8,1.4c-0.4,0.2-0.8,0.4-1.1,0.5l-4.8,1.8
								c-0.1,0-0.2,0.1-0.2,0.1c-0.8,0.2-1.7-0.4-1.8-1.3l-0.3-1.6C99.3,170.6,83.1,159.6,75.8,145.7L75.8,145.7z"/>
						</defs>
						<use xlink:href="#XMLID_52_"  style="overflow:visible;fill:#6D86AD;"/>
						<clipPath id="XMLID_4_">
							<use xlink:href="#XMLID_52_"  style="overflow:visible;"/>
						</clipPath>
						<path class="st4" d="M39.2,129.9c-2.1-0.2-11.4-2.1-13.4-1.7c-1.2,0.2,1,2.9,0,3.6c-4,2.8-8,5.6-12,8.4
							c1.8-4,3.7-7.9,5.8-11.7c0.8-1.5,1.7-3,3.2-3.8c1-0.5,2.2-0.7,3.3-0.8c2.9-0.2,5.9-0.4,8.8-0.3c2.4,0,24.8-0.9,21.6,0.8
							c-2.2,1.2-4.5,1.2-6.2,2C43.6,129.3,41,130.1,39.2,129.9z"/>
						<path class="st4" d="M62.3,144.5c0.3-0.3,1.7-1.6,2.1-1.7c0.8-0.2-2.2-0.1-1.4-0.3c1.4-0.3,2.8-0.5,4.2-0.8
							c2.2-0.4,4.4-0.8,6.6-1.2c2.4-0.4,5.1-1,7.5-0.6c1.4,0.2,1.9,0.8,1.5,2.1c-0.2,0.8-0.7,1.5-1.1,2.2c-1.3,2.5-1.4,5.4-3,7.9
							c-0.6,0.9-1.4,1.7-2.2,2.4c-0.8,0.6-1.8,1-2.7,1.7c0.1-0.7,5.6-17.7-0.3-9.4c-3.8,5.5-12,6.7-13.2,8.9
							c-2.6,4.5-2.7,8.6-2.9,13.7c-0.1,1.7-0.4,3.5-1,5.1c-1,2.6,5.1,2.9,5.9,3.5c-3.1,0.6-7.2-0.1-10.1-1.4
							c0.8-5.6,0.2-11.3-1.7-16.6c-0.8-2.2-2.2-4.6-4.5-5.2c-1-0.3-2.1-0.2-3.2-0.2c-1.3,0-19.9-1.8-18.5-4.2
							c0.2-0.3,4.3-0.7,9.1,0.1c3.1,0.5,6.1,0.8,9.2,0.8c2.6,0.1,11.3,0.7,12.9,0.9C55.6,151.6,61.2,145.7,62.3,144.5z"/>
						<path class="st5" d="M64.9,173.8c0.7,1.6-1.2,6.1-0.7,5.6c0.8-0.8,2.6-4.6,2.2-7.1c-0.1-0.6,0.7-1.8,1.2-2.7
							c0.6-0.9,5.1-11.9,5.2-12.9C72,157.7,64.3,172.5,64.9,173.8z"/>
						<path class="st5" d="M107.9,166.5c4.7,1.2-12.8-30.3-12.9-30.1C94.2,137.4,101.5,164.9,107.9,166.5z"/>
						<path class="st5" d="M68.2,133.9c-0.1-0.3-24-3.3-24.3-2.8C43.7,131.6,68,134.4,68.2,133.9z"/>
						<path class="st4" d="M56.1,153.7c0-0.1-2.3-0.5-2.2-0.6c0.4-0.6,4.1-1.9,4.5-2.6c0.4-0.7,0.7-1.5,1-2.3
							c0.6-1.6,1.2-3.1,2.2-4.5c0.4-0.6,0.9-1.1,1.5-1.4c0.6-0.3,3.3-0.6,3.3-0.4C67.9,149.7,56.1,154.1,56.1,153.7z"/>
						<g class="st6">
							<path class="st7" d="M71.1,133.9c0.1,0,0.2,0.1,0.3,0.1c0.9,0.3,1.8,0.4,2.8,0.6c-0.1,0-0.3-0.1-0.4-0.1
								C72.9,134.1,72,134,71.1,133.9z"/>
							<path class="st7" d="M74.2,134.6c0.2,0.1,0.5,0.1,0.7,0.2c0,0,0.1,0,0.1,0c0,0-0.1,0-0.1,0C74.7,134.7,74.5,134.6,74.2,134.6
								z"/>
							<path class="st7" d="M65.7,131.9c-2.2-0.5-4.4-0.8-6.6-0.9c-2.6-0.2-5.9,0.2-11.4,0.3c2,0.1,4,0.3,6,0.4
								c2.9,0.2,5.7,0.4,8.6,0.9c1.4,0.2,2.7,0.7,4,0.9c1.6,0.2,3.3,0.2,4.9,0.4c-0.9-0.4-1.6-0.9-2.5-1.2
								C67.7,132.4,66.7,132.2,65.7,131.9z"/>
							<path class="st7" d="M77.6,136.2c0,0.1,0,0.1,0.1,0.2C77.7,136.3,77.7,136.3,77.6,136.2C77.6,136.2,77.6,136.2,77.6,136.2z"
								/>
							<path class="st7" d="M76.3,134.8c-0.4-0.2-0.8-0.1-1.2-0.1c0.7,0.2,1.3,0.4,2,0.7c0.1,0,0.1,0.1,0.1,0.1
								c-0.1-0.1-0.3-0.3-0.4-0.4C76.6,135,76.5,134.9,76.3,134.8z"/>
							<path class="st7" d="M102.1,171.5c-0.7-0.5-1.3-3.5-3.9-5.7c-28.1-24-4.4-21.5-2.9-21.9c2-0.5,4.9-2.1,6.9-2.7
								c-0.5-0.3-20.7-0.7-21.3-1.2c-0.8-0.6-1.5-1.2-2.3-1.8c-0.4-0.3-0.5-0.3-0.6-0.8c-0.1-0.3-0.2-0.7-0.3-1
								c0,0.2,0.1,0.4,0.1,0.6c0,3-1.4,5.9-2.1,8.8c-0.1,0.3-0.1,0.6-0.1,0.9c0.1,0.9,0.8,1.7,1.1,2.4c0.5,1,1,2,1.5,3
								c1.5,2.7,3.5,5.1,5.5,7.4c4.5,5.2,9.2,10.3,14,15.1c0.3,0.3,0.6,0.6,1,0.8c0.4,0.2,0.9,0.1,1.4,0c2.9-0.6,5.5-2.2,7.5-4.3
								C106.9,171.4,102.7,172,102.1,171.5z"/>
							<path class="st7" d="M77.3,135.6c-0.1,0-0.1-0.1-0.2-0.1c0.2,0.2,0.4,0.4,0.5,0.6c0,0,0,0,0-0.1
								C77.5,135.9,77.5,135.8,77.3,135.6z"/>
						</g>
						<path class="st4" d="M64.1,135.3c0,0,0.1,0.1,0.1,0.1c0.5,0.8,0.7,1.8,0.7,2.8c0,1-0.2,2-0.3,2.9c1.1-1.4,1.9-2.9,2.4-4.6
							c0-0.1,0.1-0.2,0-0.3c0-0.1-0.1-0.2-0.2-0.2c-1.6-1.2-3.6-1.5-5-2.9c-0.8-0.8-1.7-1.6-2.6-2.2c-0.6-0.4-1.2-0.7-1.9-0.7
							c-0.8,0-1.6,0.3-2.3,0.7c-0.9,0.5-1.7,1-2.5,1.8c-0.9,0.9-1.6,2.1-2.3,3.2c-1.1,1.7-2.2,3.4-3.3,5.1c-0.8,1.2-1.6,2.3-2.6,3.2
							c-0.8,0.6-1.7,1.2-2.1,2.1c-0.1,0.1-0.1,0.2,0,0.4c0,0.1,0.1,0.1,0.2,0.2c1.1,0.4,2.3,0.3,3.3-0.3c1-0.6,1.5-3.2,7.6-6.9
							c1.5-0.9,2.4-2.6,3.8-3.6c0.9-0.6,1.9-1,3-1.1c0.7-0.1,1.5,0,2.2,0.1C62.9,135,63.6,134.8,64.1,135.3z"/>
					</g>
					<path class="st8" d="M52.2,188.2c3.6,1.9,6.4,5.7,7.3,9.7c0.2,0.9,0.3,1.9,0.9,2.6c0.3,0.3,2.5,1.4,3.4,2
						c0.5,0.3,2-1.6,2.6-2.1c0.4-0.4,1-0.5,1.5-0.3"/>
					<path class="st8" d="M58.5,200.9"/>
					<g>
						<defs>
							<path id="XMLID_51_" d="M67.7,200.1C67.7,200.1,67.7,200.1,67.7,200.1c-0.4-0.1-1,0-1.4,0.3c-0.5,0.4-2.1,2.4-2.6,2.1
								c-0.9-0.6-3.1-1.6-3.4-2c-0.6-0.7-0.7-1.7-0.9-2.6c-0.8-4-3.6-7.8-7.3-9.7c0.2-0.2,0.4-0.4,0.6-0.5c0,0,2.7-7.7,2.3-10.2
								l0-0.1c0.1,0,0.2,0,0.3,0l6.6,0.4c0,0.2-0.8,6.2-0.1,8.9c0.7,2.4,2.7,7.8,3.7,10.6L67.7,200.1z"/>
						</defs>
						<use xlink:href="#XMLID_51_"  style="overflow:visible;fill:#F8D3AA;"/>
						<clipPath id="XMLID_5_">
							<use xlink:href="#XMLID_51_"  style="overflow:visible;"/>
						</clipPath>
						<path class="st9" d="M58.9,178.5c-0.7,0-1.4,0-2,0.3c-0.6,0.2-0.9,0.8-1.2,1.3c-0.9,1.2-1.6,2.4-2.1,3.8
							c-0.2,0.5-0.4,1.1-0.4,1.7c0.3,4.4,1.9,3.5,1.7,5.3c-0.8-1.2-2.3-2-3.7-2.1c0.1-3.7,1.1-7.3,2.2-10.8c0.1-0.4,0.2-0.7,0.5-1
							c0.5-0.3,1.1-0.2,1.6,0.1c0.7,0.3,1.1,0.4,1.8,0.2c0.8-0.2,1.6-0.4,2.4-0.3c0.5,0.1,4.3-0.3,4.2,0.4
							C63.6,177.9,59.4,178.5,58.9,178.5z"/>
						<path class="st9" d="M68.7,200.5c-1,0.5-3.9,1.6-4.4,2.7c-0.8,0.1-1.7-0.7-2.3-1.2c-0.7-0.5-3-1.8-2-1.3
							C66,203.8,66.1,196.8,68.7,200.5z"/>
					</g>
					<g>
						<defs>
							<path id="XMLID_48_" d="M66.6,83.1c3.8,6.8-1.9,30.7-0.1,45.4c-2.7-0.8-5.4-1.6-7.9-2.5c-0.3-1.8-0.5-5.9-0.5-6.4
								c0-1.1-0.7-3.9-0.6-6.1c0.3-1.2,0.4-2.4,0.2-3.6c2.8-1,7.3-3.7,8.3-8.5c0.5-2.6-2.3-6-3.9-8.9c-0.7-3.2-0.5-8.7-0.5-11.4
								l0-0.1c0.7,0,1.3,0,2,0c0.4,0,0.9,0,1.3,0.1C65.7,81.6,66.2,82.4,66.6,83.1z"/>
						</defs>
						<use xlink:href="#XMLID_48_"  style="overflow:visible;fill:#F8D3AA;"/>
						<clipPath id="XMLID_14_">
							<use xlink:href="#XMLID_48_"  style="overflow:visible;"/>
						</clipPath>
						<path class="st10" d="M59.5,85.2c0.3-1.4,0.7-2.8,1-4.2c0.8,0,1.6-0.1,2.3-0.1c0.5,0-0.2,0,0.1,0.3c-0.9,4,0.6,10.6-0.3,14.6"
							/>
					</g>
					<g>
						<defs>
							<path id="XMLID_47_" d="M57.6,113.6c-0.6,2.3-1.9,4.5-3.1,6.5c-0.2,0.3-0.4,0.6-0.4,1c-0.2,1.2,1,2.2,1,3.4c0,0,0,0,0,0l0,0
								c-3.1,0.6-6.2,1.3-9,2.7c-0.9,0.5-1.9,1-2.9,1.3c-1.3,0.4-2.7,0.4-4.1,0.3c-3.4-0.2-7.3-0.6-10.6-1.6
								c0.9-3.6,1.7-6.5,2.1-7.4c0,0,2-9.6,4-17l0,0c2.5-2.7,4.5-7.9,5.7-24.8l0,0c1.3,0.8,2.5,1.6,3.4,2.2c0.5-0.4,0.8-1.1,1-2l0,0
								c0.7,0.6,6.7,2.6,11.3,1.7l0,0c0.1,0.4,0.1,0.9,0.2,1.3l0,0c1.6,0,3.4-0.1,5.1-0.1l0,0.1c-0.1,2.7-0.2,8.2,0.5,11.4
								c1.6,2.9,4.5,6.2,3.9,8.9c-1,4.7-5.5,7.5-8.3,8.5C58,111.2,57.9,112.4,57.6,113.6z"/>
						</defs>
						<use xlink:href="#XMLID_47_"  style="overflow:visible;fill:#8E1C58;"/>
						<clipPath id="XMLID_16_">
							<use xlink:href="#XMLID_47_"  style="overflow:visible;"/>
						</clipPath>
						<g class="st11">
							<path class="st12" d="M67.7,102.1c-0.3-1.7-1.1-3.3-1.7-4.9c-1.3-3.4-1.7-6.9-2-10.5c-0.1-1.6-0.1-2.8,0.3-4.3
								c0.1-0.5,1.2-4.9,1-5.1c-1.1-0.8-2.6-1-3.9-1.2c-4.5-0.6-9-1.1-13.5-1.5c-1.9-0.2-4.3,0-6.2-0.6c-0.9-0.3-2.9-2.1-3.5-0.6
								c-5.8,13.9-11.1,28.3-12.3,43.3c-0.3,4-0.3,7.9-1.1,11.8c-0.1,0.3-0.1,0.6,0,0.8c0.1,0.3,0.5,0.4,0.8,0.5
								c2.3,0.6,4.6,1.1,7,1.4c0.9,0.1,1.5-0.9,1.1-1.7c-3.6-6.3,1-18.3,9.8-19.3c5.8-0.7,7,0.5,12.8,0.2c-0.3,0.5,5.2-2.1,4.9-1.6
								c-2.5,3.9-4.6,7.7-8.1,10.8c-0.4,0.4-0.3,1.4-0.1,1.6c0.6,0.8,0.6,1.9,0.5,2.9c0,0,0,0,0,0c-0.1,1.3,1,2.3,2.2,2.1
								c0.9-0.2,1.9-0.3,2.9-0.1c0.9,0.1,1.8-0.5,2-1.4c1.1-3.7,2.4-7.3,4-10.8C66.5,110.1,68.5,106.2,67.7,102.1z M38.9,101.4
								c-1-4.8,3.9-9.8,4.2-10.2c0.8-0.7-1.1-0.1-1.5,0.2c0,0-0.1,0-0.1,0c0.2-0.2,3.9-9.8,3.9-9.8c0.1,0,1.6,1.3,1.6,1.1
								c0.1,0-0.7-1.4-0.7-1.4c0,0-0.8-1.5,3.3-0.6c1.2,0.3,2.3,0.5,3.5,0.7c0.6,0.1,1.2,0.1,1.8,0.1c0.3,0,0.6,0,0.9,0
								c0.2,0,0.6-0.2,0.7,0c0,0,0.1,0.1,0.1,0.1c0.3,0.8,0.5,1.5,0.9,2.4c0.1,0.2,1.5-1.3,2.1-0.7c1.4,1.4,0.7,5.3,1.8,8.1
								c0.3,0.8,4.7,6.7,4.6,8.6c-0.2,6.6-10.2,8.2-16.5,7.4C46.8,107,39.7,105.3,38.9,101.4z"/>
							<path class="st12" d="M44.5,129.2c-0.3,0-1.7,0.9-3.1,1.8c1.1-0.2,2.2-0.6,3.3-1C45.8,129.6,45.7,129.2,44.5,129.2z"/>
							<path class="st12" d="M41.5,131c-2,0.4-4,0.5-6,0.4c0.8,0.6,1.8,1,3.1,1.2C38.8,132.6,40.1,131.8,41.5,131z"/>
						</g>
						<path class="st13" d="M62,92.5c1.1,0.2,0.6,0.9,0.8,1.1c0.5,0.7,1,1.5,1.4,2.2c0.7,1.2,1.4,2.4,1.7,3.7
							c0.2,0.7,0.2,1.5,0.2,2.3c0,0.3-0.9,3.1-0.9,2.2C65.6,100.1,65.9,100.5,62,92.5z"/>
					</g>
					<path id="XMLID_46_" class="st14" d="M44.1,65L58,67.2c0,0-2.5,6.8-1.7,12.7c0,0,0,0.1,0,0.1l0,0c-4.7,0.9-10.7-1.1-11.3-1.7
						l0,0C46,73.9,44.1,65,44.1,65z"/>
					<path class="st15" d="M49.8,79.8c7.5-1.1,12.7-11.3,12.7-12.2c0-0.5-19.1-4.1-18.7-3.2c1.6,3.3,1.7,11.3,1.1,14
						C44.8,78.7,49.3,79.9,49.8,79.8z"/>
					<g>
						<defs>
							<path id="XMLID_45_" d="M15.7,148.8c0.8-0.3,1.4-0.5,1.4-0.5l2.9-21.4l2.4-17.7l0.1-0.4c-0.3-15.5,4.5-32.9,10.1-33.3
								c2.5-0.2,5.5,1.1,8,2.5l0,0c-1.3,16.9-3.3,22.1-5.7,24.8l0,0c-2,7.3-4,17-4,17c-0.4,0.9-1.2,3.9-2.1,7.4
								c-2,8-4.6,19.5-4.6,19.5c1.2,2.1,1.6,3.9,1.8,5.1c0.2,1.2,0.1,1.9,0.1,1.9c-0.7,1.9-8.5,2.2-8.5,2.2c-5.5,0.3-4.5,0-4.5,0
								c-1-1.7,7.4-3.2,7.4-3.2l-8.1,0.1c-9.8,3.3-9.5,1-9.5,1c0,0,0.2-0.1,0.5-0.2C5.2,153,12.6,150,15.7,148.8z"/>
						</defs>
						<use xlink:href="#XMLID_45_"  style="overflow:visible;fill:#F8D3AA;"/>
						<clipPath id="XMLID_17_">
							<use xlink:href="#XMLID_45_"  style="overflow:visible;"/>
						</clipPath>
						<path class="st16" d="M38.2,90.1c-0.2,4.7-3.4,8.9-3.4,13.6c1.6-0.9,2.7-2.4,3.5-4c0.8-1.6,1.1-3.4,1.5-5.2
							c0.5-2.6,0.9-5.3,0.3-7.9c-0.1-0.2-0.1-0.5-0.3-0.6c-0.2-0.2-0.5-0.2-0.8-0.3c-1.5-0.2-2.9-0.3-4.4-0.5
							c0.5,2.3,1.7,4.5,1.6,6.8c-0.1,1.2-0.5,2.4-1,3.5c0.2-0.3,0.9-0.7,1.1-1c0.3-0.3,0.5-0.7,0.7-1C37.6,92.5,38,91.4,38.2,90.1z"
							/>
						<path class="st17" d="M22.4,109.2c-0.5-0.5-2.1-10.5,5.6-31.5C34.8,78.8,26.2,74.4,22.4,109.2z"/>
						<path class="st16" d="M21.8,154.3c-11,0.6-9.2,1.4-9.6,2c0.8-0.3,4.2,0,5,0.1c1.9,0.1,3.7-0.4,5.5-1c0.8-0.2,3.7-0.9,3.7-1.2
							c0-0.3-0.9-4.6-1.2-5.1C25.2,149.8,26.6,154,21.8,154.3z"/>
						<path class="st16" d="M11.5,152.4c-0.4,0.1-5.3,2-7,1.4c-1.3-0.2,2.1-1.3,2.5-1.6c0.5-0.3,0.9-0.8,1.2-1.4
							c0.1-0.1,0.1-0.2,0.2-0.3c0.1-0.1,0.2-0.1,0.2-0.1c0.5-0.2,1.1-0.4,1.3-0.9c-0.8,0.1-1.3,0.8-2,1.3c-0.6,0.4-1.4,0.6-1.9,1
							c-0.2,0.1-0.3,0.3-0.5,0.4c-0.3,0.2-0.6,0.2-0.9,0.2c-0.9,0.2-1.6,0.9-2.2,1.6c-0.1,0.1-0.1,0.1-0.1,0.2
							c0,0.1,0.1,0.2,0.2,0.2c0.1,0,0.2,0,0.4,0c0.6,0,1.1,0.3,1.7,0.5c0.2,0,0.5,0,0.7,0c1.1-0.1,2.3-0.3,3.4-0.7
							c0.7-0.3,1.4-0.6,2.2-0.8c0.9-0.3,1.9-0.5,2.9-0.5c0.6,0,4.7,0.4,5.1-0.2C18.3,152.7,12.3,152.3,11.5,152.4z"/>
					</g>
					<g>
						<defs>
							<path id="XMLID_44_" d="M20,126.9L17,148.3c0,0-0.5,0.2-1.4,0.5l-0.4,0.1l-0.1-0.3C11.6,141,16.3,132,20,126.9L20,126.9z"/>
						</defs>
						<use xlink:href="#XMLID_44_"  style="overflow:visible;fill:#6E87AD;"/>
						<clipPath id="XMLID_18_">
							<use xlink:href="#XMLID_44_"  style="overflow:visible;"/>
						</clipPath>
						<path class="st18" d="M13.5,139.4c-0.5,2.5-0.2,6.7,0.5,9.2c0.1,0.3,0.2,0.7,0.5,0.8c0.2,0.1,0.5,0.2,0.7,0.2
							c1,0,4.8-1.4,3.6-1.6C14,147.3,13.8,140,13.5,139.4z"/>
					</g>
					<path class="st15" d="M15.3,148.9l0.4-0.1c-3.1,1.2-10.5,4.2-12.6,5l0,0c-0.5-0.2,0.6-0.8,0.6-0.8c0.1,0,0.8-0.3,1.8-0.7
						c2.4-1,6.3-2.8,6.3-2.8L15.3,148.9z"/>
					<path class="st15" d="M9.7,149.6h2c0,0-3.9,1.8-6.3,2.8l0-0.1C6.2,151.3,9.7,149.6,9.7,149.6z"/>
					<path class="st15" d="M111,188.6c-0.7-0.8,3.3,2.8,4.3,2.6c1-0.2,1.3-0.6,2.3-0.4c-1.8,1.2-3,1.4-3.6,1.1
						C112.8,191.4,111.2,188.8,111,188.6z"/>
				</g>
				<g>
					<path class="st19" d="M11.8,149.6h-2c0,0-3.5,1.7-4.3,2.7"/>
					<g>
						<path class="st20" d="M47.2,83.1c0,0-2.3-1.9-3.4-2.7c-1.1-0.8-2.3-1.6-3.4-2.2c-3.1-1.8-5.8-2.6-7.9-2.5l0-0.2
							c2.2-0.1,4.9,0.7,8,2.5c1.1,0.6,2.2,1.4,3.4,2.2C47.9,83,47.2,83.1,47.2,83.1z"/>
					</g>
					<g>
						<path class="st20" d="M56,110.5l0-0.2c0.4,0,1.1-0.2,1.8-0.4c3.2-1.1,7.3-4,8.2-8.4c0.4-2-1.1-4.4-2.6-6.7
							c-0.5-0.7-0.9-1.4-1.3-2.1c-0.4-0.7-1.9-3-1.3-2.8c0,0,1.1,2,1.5,2.7c0.4,0.7,0.8,1.3,1.3,2.1c1.5,2.4,3.1,4.8,2.7,6.9
							c-0.9,4.4-5.1,7.4-8.3,8.5C57.1,110.3,56.4,110.5,56,110.5z"/>
					</g>
					<path class="st21" d="M55.1,124.6c1.2,0.5,2.4,1,3.6,1.5c2.5,0.9,5.2,1.8,7.9,2.5c9.5,2.7,19.2,4.6,21.8,5.4
						c0.9,0.3,1.7,0.9,2.2,1.8l16.1,30.8l1.7,3.1c0.2,0.6-0.2,1.1-0.8,1.4c-0.4,0.2-0.8,0.4-1.1,0.5l-4.8,1.8
						c-0.1,0-0.2,0.1-0.2,0.1c-0.8,0.2-1.7-0.4-1.8-1.3l-0.3-1.6c0,0-16.2-11-23.4-24.9"/>
					<path class="st22" d="M57.8,110"/>
					<path class="st21" d="M43.3,131.1c0,0,21.7,1.2,33.5,4c1.5,0.4,0.7,4.8-1,10.6c-3.4,11.3-10.2,27.6-10.2,27.6l0.1,2.3
						c-0.1,1.3-1.2,2.3-2.5,2.2l-1.1-0.1l-6.6-0.4c-0.1,0-0.2,0-0.3,0c-0.8-0.2-1.2-1.1-0.8-1.9l0.7-2.4l0.5-8.1
						c0,0-0.7-5.7-0.1-11.7c0.4-4.3,1.6-8.7,4-11.5"/>
					<path class="st21" d="M55.5,153.3c0,0-18.6,0.2-22.5-1.7l-7.2,0.4"/>
					<path class="st23" d="M20,126.9c-3.6,5.2-8.3,14.3-4.7,21.9"/>
					<path class="st19" d="M52.2,188.2c0.2-0.2,0.4-0.4,0.6-0.5c0,0,2.7-7.7,2.3-10.2"/>
					<path class="st19" d="M58.5,200.9"/>
					<path class="st19" d="M62.1,177.8C62.1,177.8,62.1,177.8,62.1,177.8c0,0.2-0.8,6.2-0.1,8.9c0.7,2.4,2.7,7.8,3.7,10.6l2,2.7
						c0,0,0,0,0.1,0.1"/>
					<path class="st24" d="M52.1,188.1C52.2,188.1,52.2,188.1,52.1,188.1c3.7,1.9,6.5,5.8,7.3,9.7c0.2,0.9,0.3,1.9,0.9,2.6
						c0.3,0.3,2.5,1.4,3.4,2c0.5,0.3,2-1.6,2.6-2.1c0.4-0.4,1-0.5,1.5-0.3c0.1,0.1,0.2,0.1,0.3,0.2"/>
					<path class="st19" d="M101.4,173.6c0,0,2,1.4,2.5,4.1c0.1,0.5,0.1,1.1,0,1.6"/>
					<path class="st24" d="M102.5,179.4c-0.6,0.7-2.7,1.6-1.6,5.4c0.6,2.1,2.7,2.9,4.5,4.1c3,1.9,6.3,3.6,8.2,6.6
						c0.3,0.5,0.6,1,1,1.4c0.4,0.4,0.9,0.6,1.4,0.7c3,1,6.5,0.6,9.2-1.1c-0.1-4.1-2.9-5.2-5-6.4c-2.2-1.3-5.1,4.3-7.8,0.6
						C105.3,180.8,102.7,180.3,102.5,179.4z"/>
					<path class="st19" d="M103.9,177.7C103.9,177.7,103.9,177.7,103.9,177.7c-0.5,0.3-0.9,1.2-1.4,1.8"/>
					<path class="st19" d="M107.6,171.1c2.2,3.3,1.4,6.8,7.1,12.4c2,2,3.5,4.9,5.7,6.7"/>
					<path class="st25" d="M55.1,124.6c-3.1,0.6-6.2,1.3-9,2.7c-0.9,0.5-1.9,1-2.9,1.3c-1.3,0.4-2.7,0.4-4.1,0.3
						c-3.4-0.2-7.3-0.6-10.6-1.6c0,0-0.1,0-0.1,0"/>
					<path class="st19" d="M15.7,148.8l-0.4,0.1l-3.5,0.7c0,0-3.9,1.8-6.3,2.8c-0.9,0.4-1.6,0.7-1.8,0.7c0,0-1.1,0.6-0.6,0.8"/>
					<path class="st19" d="M56.3,80C55.4,74,58,67.2,58,67.2L44.1,65c0,0,1.9,8.8,0.8,13.3c-0.2,0.9-0.5,1.6-1,2c0,0,0,0,0,0"/>
					<path class="st19" d="M56.5,81.3c1.6,0,3.4-0.1,5.1-0.1c0.7,0,1.3,0,2,0c0.4,0,0.9,0,1.3,0.1c0.8,0.3,1.3,1.1,1.7,1.8
						c3.8,6.8-1.9,30.7-0.1,45.4c0,0,0,0,0,0.1"/>
					<path class="st19" d="M57.6,113.5C57.6,113.6,57.6,113.6,57.6,113.5c-0.1,2.2,0.6,5,0.6,6.1c0,0.5,0.2,4.6,0.5,6.4
						c0,0,0,0.1,0,0.1"/>
					<path class="st25" d="M34.7,103c2.5-2.7,4.5-7.9,5.7-24.8"/>
					<path class="st25" d="M61.6,81.3c-0.1,2.7-0.2,8.2,0.5,11.4c0,0,0,0,0,0.1"/>
					<path class="st25" d="M44.9,78.4c0.7,0.6,6.7,2.6,11.3,1.7"/>
					<g>
						<path class="st26" d="M13.8,156.3c-1.1,0-1.1-0.1-1.1-0.2c0,0,0-0.1,0-0.1c-0.1-0.2-0.1-0.4,0-0.5c0.5-1.1,4.3-2.1,6.3-2.5
							l-6.9,0.1c-6.5,2.2-8.7,2-9.4,1.4c-0.3-0.2-0.3-0.5-0.3-0.5l0-0.1l0.1,0c0,0,0.2-0.1,0.5-0.2c1.4-0.6,5.8-2.3,12.6-5l1.3-0.5
							l5.3-39l0.1-0.4c-0.3-14.7,4.3-33,10.2-33.3l0,0.2c-5.3,0.3-10.3,17.1-10,33.1l-0.1,0.4l-5.3,39.1l-1.4,0.6
							c-6.8,2.7-11.1,4.4-12.6,5c-0.2,0.1-0.4,0.1-0.4,0.2c0,0.1,0.1,0.2,0.2,0.3c0.5,0.4,2.5,0.8,9.2-1.5l0,0l8.1-0.1l0,0.2
							c-0.1,0-6.7,1.2-7.3,2.6c-0.1,0.2-0.1,0.3,0,0.4l0,0.1c0.3,0,1.3,0.1,4.3-0.1c0.1,0,7.7-0.3,8.4-2.1l0,0c0,0,0.1-0.7-0.1-1.9
							c-0.2-1.1-0.6-2.9-1.8-5.1l0,0l0,0c0-0.1,2.6-11.5,4.6-19.5c1-4.1,1.7-6.6,2.1-7.5c0-0.1,2-9.7,4-16.9
							c0.3-1.3,1.1-3.3,1.1-3.3c0.6-0.8-0.6,2.1-1,3.3c-2,7.3-4,16.9-4,16.9c-0.4,0.9-1.1,3.4-2.1,7.4c-1.9,7.7-4.4,18.7-4.6,19.4
							c1.2,2.2,1.6,4,1.8,5.1c0.2,1.2,0.1,1.9,0.1,2c-0.7,1.9-8.3,2.2-8.6,2.3C15.5,156.2,14.4,156.3,13.8,156.3z"/>
					</g>
				</g>
				<path class="st25" d="M57.8,110c0.2,1.2,0.1,2.4-0.2,3.6c-0.6,2.3-1.9,4.5-3.1,6.5c-0.2,0.3-0.4,0.6-0.4,1c-0.2,1.2,1,2.2,1,3.4
					c0,0,0,0,0,0"/>
				<path class="st25" d="M57.8,110C57.8,110,57.8,110,57.8,110"/>
			</g>
			<g>
				<g>
					<g id="XMLID_41_">
						<path class="st27" d="M49.4,18.4c11.8-11.3,32.2-2.1,30.8,19.2c-0.1,1.4-0.4,2.9-0.8,4.2c-0.4,1.5-1.1,3.8-1.4,6
							c-0.2,1.2-0.6,3.1-0.9,4.2c-1.1,3.6-3.3,10.1-5.5,12.5C68,68.6,57.6,76.4,57.2,76.6c-1.1,0.6-3.1,1.3-6,0.7
							c-4.6-0.9-7.7-6.5-9.3-9.8c-0.5-1-1.1-2-1.7-3c-1.7-2.5-5.4-9.6-2.9-19.4c0.2-0.6,0.3-1.2,0.4-1.8
							C38.3,39.8,41.1,26.4,49.4,18.4z"/>
					</g>
				</g>
				<path class="st28" d="M56.7,61.3"/>
				<path class="st29" d="M54.8,54.3c-0.4,0-0.6,0.3-0.5,0.5c0.4,0.4,2.3,0.9,2.2,0.9c0,0,0,0,0,0C56.6,55.6,56.5,55,54.8,54.3
					C54.9,54.3,54.9,54.3,54.8,54.3z"/>
				<path class="st29" d="M62.9,56.1c-0.1,0.1-0.2,0.1-0.3,0.2c-0.6,0.2-1.3,0.1-1.9,0.3c0.1,0,0.2-0.2,0.3-0.2
					c0.1-0.1,0.2-0.1,0.3-0.2c0.2-0.1,0.5-0.2,0.7-0.3c0.2-0.1,0.5-0.2,0.7-0.1C63,55.8,63.1,56,62.9,56.1z"/>
				<path class="st15" d="M55.5,51c0.4-0.2,0.7-0.5,1-1.3c0.5-1.5,1-3.1,1.5-4.7c-1,0.5-1.5,1.8-2.1,2.9c-0.8,1.4-2.4,2.4-2.9,4.1
					c-0.2,0.8,0.4,1.8,0.6,2c-0.1-1.1,0-1.6,0.8-2.3C54.7,51.3,55.1,51.2,55.5,51z"/>
				<path class="st30" d="M61.9,53.2c0.7,1.8-1,3-1.5,3.6c0.9-0.1,2.4,0.2,3.8-1.4c0.3-0.4,0.5-1,0.5-1.5c0.1-1.7-1.3-1.3-1.2-4.8
					c0.3-5.7,1.6-5.8,0.5-5.9C63.7,43.2,59.9,47.7,61.9,53.2z"/>
				<path class="st31" d="M56.5,52.6c-1.1,0.9,1.9,2,2.4,1.8C59.7,54,57.6,51.7,56.5,52.6z"/>
				<path class="st30" d="M58.1,58.9c-0.1,0.2-0.1,0.5,0,0.7c-0.2,0.1-0.4,0-0.6-0.2c-0.2-0.2-0.2-0.4-0.3-0.6
					c-0.1-0.1-0.1-0.2-0.1-0.3c0-0.2,0.1-0.4,0.2-0.5c0.2-0.2,0.7-1,1-0.6C58.6,57.7,58.2,58.6,58.1,58.9z"/>
				<path class="st30" d="M44.8,61.2c0-0.2,0-2.2,0.3-2.8s0.7-1.2,1.4-1.6c-0.1,0,0.7,1.3,0.7,1.5C47.2,58.4,45.5,59.3,44.8,61.2z"
					/>
				<g>
					<path class="st32" d="M46,56.5c0.3-0.5,1.5-0.9,1.5-0.9c-1.1,0.8-1.7,2.5-1.6,3C45.9,58.6,45.6,57.2,46,56.5z"/>
				</g>
				<g>
					<g>
						<path class="st33" d="M45.4,55.8c5.1-2.3,8-5.4,8-5.4c-1.2,2.9-5,4.1-5,4.2c-0.7,0.3-1.6,0.7-2.2,1.3c-0.8,0.8-0.9,1.9-1,2.7
							c-0.1,0.9-0.1,2.9-0.2,2.9c0,0,0,0,0,0C44.7,60.6,43.8,56.5,45.4,55.8z"/>
					</g>
				</g>
				<g>
					<path class="st33" d="M66.6,63.8c0.4-1.1,0.9-3.1,0.7-3.9c-0.1-0.7-0.1-1.4-0.5-2c-0.1-0.2-0.2-0.3-0.3-0.5
						c0,0,1.2,0.7,1.5,2.2C68.4,60.9,66.6,63.8,66.6,63.8z"/>
				</g>
				<path class="st30" d="M55.5,41.7c0.4-0.2,0.7-0.5,1-0.8c0.1-0.1,0.1-0.1,0.1-0.2c0-0.1,0-0.1,0-0.2c-0.6-1.2-0.6-5.1-1.5-6.1
					c-0.3-0.4-2.8-1.2-3.2-1.4c-0.4-0.2-2.7-0.1-3.2-0.1c-1.1-0.1-0.8,0.5-1.9,0.6c-0.3,0-0.6,0.8-0.8,1c-0.4,0.3-1.5,2-1.6,2.5
					c-0.1,0.4-0.9,0.1-0.7,0.2c1.5,0.8,4,3.6,5.7,4.2C50.6,41.7,54.4,42.3,55.5,41.7z"/>
				<path class="st34" d="M42.6,47.7c0.4-0.7,0.8-1.3,1.3-1.8c0.8-0.7,1.9-0.9,2.9-1c0.8-0.1,1.6,0,2.3,0.3c0.8,0.3,1.3,1,1.9,1.6
					c0.3,0.4,0.7,0.7,0.9,1.2c0.2,0.5,0.2,1-0.1,1.4c-0.2,0.2-0.4,0.4-0.6,0.5c-1.5,0.9-2.6,2.1-4.3,2.6c-1.4,0.4-3.3,0.8-4.5-0.1
					C40.9,51.6,42,48.8,42.6,47.7z"/>
				<path class="st34" d="M66.3,52.4c0,0.1,0,0.1,0,0.2c0.1,1,1.5,1.6,2.3,2.2c0.2,0.2,0.4,0.3,0.6,0.5c0.1,0.2,0.2,0.3,0.3,0.5
					c0.2,0.5,0.5,0.9,0.7,1.4c0.1,0.1,0.1,0.2,0.2,0.3c0.1,0.1,0.3,0.1,0.4,0c0.6-0.1,1.1-0.6,1.5-1.1c0.9-1.1,1.6-2.4,1.4-3.7
					c-0.1-0.9-0.7-1.8-1.4-2.3c-0.9-0.7-2.8-1.6-3.9-1.1C67.5,49.8,66.3,51.2,66.3,52.4z"/>
				<path class="st30" d="M69.3,39.7c1.2-0.2,2.4-0.5,3.7-0.5c0.3,0,0.7,0,1,0.1c0.2,0.1,0.3,0.1,0.5,0.2c0.2,0.1,0.4,0,0.6,0.1
					c0.2,0,0.5,0.1,0.7,0.1c0.1,0,0.2,0.1,0.3,0.2c0.1,0.1,0,0.3,0.1,0.4c1.4,1.5,1.4,4.6,1.3,6.6c0,0.1-2.5-0.4-2.6-0.3
					c-0.1,0-0.1,0.1-0.2,0.1c-0.5,0.1-0.9,0.1-1.4,0.2c-0.5,0.1-0.9,0.2-1.4,0.2c-1.1,0-2.2-0.1-3.2-0.4c-0.4-0.1-0.9-0.2-1.3-0.3
					c-0.4-0.1-0.8,0-1.2,0.1c-0.4,0.1-0.8,0.2-1.2,0.4c-0.4,0.2-0.8,0.4-1.1,0.7C63.7,46.3,64.2,40.3,69.3,39.7z"/>
				<path class="st30" d="M50.6,31.6c-11.1,11-12.3,19.1-14.2,20.9c0.5-1.5,1.7-17.4,2.9-18.4c3.6-3.2,13.8-6.6,16.8-10.3
					c0.9-1.2,1.9-2.4,3.2-3.1c2-1,4.5-0.6,6.3-1.8c-0.2,1.2,1.2-0.1,0.7,1C65.9,20.8,52,30.2,50.6,31.6z"/>
				<path class="st30" d="M65,61.4c0.8,0.1,1.6-0.6,1.6-1.4c0-0.2,0-0.3,0-0.5c0.5,0.6,0.6,1.5,0.2,2.3c-0.3,0.7-0.9,1.3-1.5,1.9
					c-0.1,0.1-0.2,0.2-0.3,0.2c-0.1,0-0.3-0.1-0.3-0.2c-0.7,0.4-1.5,0.7-2.2,1.1c0.8-1,1.6-2,2.4-3"/>
				<path class="st34" d="M50.1,73.8c0,0.3,0.3,0.5,0.5,0.7c0.7,0.5,1.4,0.9,2.2,1.1c1.2,0.2,2.4-0.2,3.5-0.7c0.1,0,0.2-0.1,0.3-0.2
					c0.2-0.2,0.1-0.5,0-0.7c-0.3-0.6-1.1-0.9-1.9-0.9C54.2,72.9,50,72.4,50.1,73.8z"/>
				<g>
					<path class="st35" d="M62.6,56.7l-0.1-0.2c0.8-0.3,1.5-0.9,1.8-1.6c0.3-0.6,0.3-1.2,0-1.8c-0.1-0.2-0.2-0.3-0.2-0.4
						c-0.1-0.2-0.2-0.3-0.3-0.5c-0.8-2.2-0.4-4.2-0.2-5.5c0-0.3,1-4.1,0.9-2.9c0,0.2-0.6,2.7-0.6,3c-0.2,1.3-0.6,3.2,0.2,5.4
						c0.1,0.2,0.2,0.3,0.3,0.5c0.1,0.2,0.2,0.3,0.3,0.5c0.3,0.7,0.3,1.3,0,2C64.2,55.7,63.5,56.4,62.6,56.7z"/>
				</g>
				<path class="st36" d="M63,55.8c-1.4-0.4-2.4,1.9-4.9,1c-0.5-0.2-0.8-0.6-1.2-1c-0.6-0.6-1.3-1.1-2.1-1.4"/>
				<path class="st36" d="M54.8,54.9c-0.5-0.2-1-0.5-1.4-0.9c-0.5-0.5-0.8-1.4-0.6-2.1c0.2-0.7,0.7-1.4,1.4-1.7"/>
				<path class="st37" d="M46.6,57.1c0,0,4.3,2.3,9.3,2.4c0.3,0,0.6,0.1,0.9,0.3c0.1,0.1,0.2,0.2,0.4,0.4c0.2,0.2,0.5,0.3,0.8,0.3
					c0.4-0.1,0.9-0.1,1.3-0.2c0.2,0,0.3,0,0.5,0.1c0.9,0.4,4.5,1.5,6,1.1l0.4-0.1c0,0-3,3.2-4.4,4.6c-5.3,5.5-13.5,1.7-14.1-6
					C47.5,60,47.2,58.1,46.6,57.1z"/>
				<g>
					<defs>
						<path id="XMLID_38_" d="M55.5,64.6c1.3,0.2,3.8,0.9,6.8-1c0.8-0.5,1.6-1.1,2.2-1.8l-0.7,0.1c-0.3,0-0.6,0-0.9,0
							c-1.7-0.4-3.5-0.4-5.3-0.2c-0.3,0-0.5,0.1-0.8,0c-0.2-0.1-0.4-0.2-0.6-0.4c-0.6-0.4-1.3-0.6-2-0.8c-0.9-0.2-1.7-0.5-2.6-0.7
							c-1.2-0.3-2.4-0.7-3.6-1.2C48.2,58.4,49.7,63.7,55.5,64.6z"/>
					</defs>
					<use xlink:href="#XMLID_38_"  style="overflow:visible;fill:#46140C;"/>
					<clipPath id="XMLID_19_">
						<use xlink:href="#XMLID_38_"  style="overflow:visible;"/>
					</clipPath>
					<g class="st38">
						<defs>
							<path id="XMLID_40_" d="M56.5,62.2c0,0,0-0.8-0.3-1s-1.4-0.8-2,0.5c0,0,0.2-0.8-0.5-1.2c0,0-0.7-0.3-1.1,0.3c0,0-0.1-1-0.2-1
								c0,0-0.7-0.9-1.5,0.1c0,0-0.1-0.8-0.2-0.8c0,0-1.5-0.8-1.4,1.3c0,0,0.5,1.3,1,0.6c0,0,0,0.1,0.1,0.3c0.1,0.4,0.3,0.9,0.7,1
								c0,0,0.7,0.3,1-0.2c0,0,0,0.6,0.1,0.8c0,0,0.8,0.9,1.4,0.4c0,0,0.2,0.5,0.4,0.6c0.6,0.2,1.8,0.5,2,0.2l0.1-0.2l0,0.3
								c0,0,0.7,0.5,1.9,0.3c0.1,0,0.2-0.1,0.3-0.2l0.2-0.3l0,0c0.3,0.7,1.5,0.2,1.5,0.2l0.3-0.3c0,0,0.1,0.2,0.3,0.2
								c0.3,0,0.7,0,1.1-0.2l0.2-0.4l-0.2,0.3c0,0,0.6,0.1,1-0.2c0,0,0.1-0.1,0.1-0.1c0.8-1.1,0.1-2,0.1-2s-0.7,0.2-1,0.8
								c0,0-0.1-1.1-1.1-0.3c-0.1,0.1-0.2,0.5-0.2,0.5c0.1-0.9-0.9-1-1.2-0.7c-0.4,0.3-0.6,0.6-0.6,0.6c-0.1-0.4-0.1-1-0.9-1.1
								C57.5,61.3,57,61.4,56.5,62.2z"/>
						</defs>
						<use xlink:href="#XMLID_40_"  style="overflow:visible;fill:#FFFFFF;"/>
						<clipPath id="XMLID_25_">
							<use xlink:href="#XMLID_40_"  style="overflow:visible;"/>
						</clipPath>
					</g>
					<use xlink:href="#XMLID_38_"  style="overflow:visible;fill:none;stroke:#C82030;stroke-width:0.2063;stroke-miterlimit:10;"/>
				</g>
				<path class="st39" d="M50.7,65.4c-1-0.8-1.6-1.9-1.2-2.4c0.4-0.5,1.6,1.5,3.8,3.1C53.8,66.4,51.8,66.2,50.7,65.4z"/>
				<path class="st40" d="M53.5,34.6c-4.6-2.9-10,0.7-9.4-0.4c-0.2-0.2,2.3-2.6,6.8-2.6c0.8,0,3.8,1.2,4.8,1.8
					c1.2,0.7,2.1,2.6,2.6,3.7c-0.3,0.1-1.5-0.2-2.6-1.1C55.6,36.1,54.2,35,53.5,34.6z"/>
				<path class="st40" d="M79.1,42.2c0.3-0.5-2.3-3.5-3.9-3.8c-0.6-0.1-4.8-0.1-5-0.1c-0.2,0.1-1.6,1.2-2.2,2.1
					c0.7,0.2,1.4,0,2.1-0.1c0.4-0.1,3.3-0.9,5.6,0.1C77.2,40.9,79,42.5,79.1,42.2z"/>
				<g>
					<g id="XMLID_36_">
						<g>
							<path class="st41" d="M50.4,98.8c-0.3,1.1-1,2.1-1.9,3c-1.8-0.7-3.8-5.1-2.7-8.7C46.1,95.1,48.2,99.2,50.4,98.8L50.4,98.8z"
								/>
							<g>
								<defs>
									<path id="XMLID_37_" d="M26.6,79.6c-0.5-0.6-1-1.3-1.5-2.1l0,0c-0.2-0.2-8.6-9.5-3.9-24.9c4.6-15,8.9-44.7,25.4-48.5
										c0,0,14.9-4.5,20.2,1.2l1.3-0.1c0,0,14-3.6,18.7,28.5c0.7,4.6,0.5,9.5,0,14.1C85.7,58.2,82.2,67,76.6,75.5
										c-2.3,3.5-4.2,7.2-4.9,11.3c-0.4,2.8-0.1,6,2.1,7.8c-1.2-0.5-1.9-1.7-2.5-2.8C67.5,85.3,75,66.1,75,66.1
										c5.3-13.6,1.5-26.6,1.1-26.9c-9.3-8-10.5-18.4-10.5-18.4S37,32.1,37.7,56.9c0.2,5.3,3.4,6,6.2,24.2c1,6.5,14,11.4,12,17.5
										l0,0c0.4,1.5,0.4,3.2-0.1,5.1c-0.2,0.6-0.5,1.2-0.9,1.6c-1.2,1.4-4.2,4-11.3,4.8c0,0-5.3,1.1-7.2,3.5
										c0.7,4.8,5.3,2.9,6.5,1.8c0.8-0.7,1.3-1.7,1.5-2.8c0.6,1.2-0.2,3.1-0.9,4c-1,1.3-2.8,2.1-4.4,2.3c-1.8,0.3-4-0.3-4.5-2.2
										c-1.8-7.3,9.2-11.5,10.9-12.6c1.1-0.7,2.2-1.5,3.1-2.4c0.9-0.9,1.5-1.9,1.9-3c0.4-1.4,0.3-3-0.8-4.7c0,0-0.6-1-2.2-2.4
										c-1.3-1.1-3.4-2-6.3-3.2c-1.4-0.6-3-1.6-4.8-2.1c0,0-0.2-0.1-0.7-0.3l0,0c2.2,6.5,0.6,10.1-1.4,12c-1.3,1.3-2.8,1.8-3.4,2
										C32.8,99.3,39.2,93.2,26.6,79.6z"/>
								</defs>
								<linearGradient id="XMLID_26_" gradientUnits="userSpaceOnUse" x1="53.5569" y1="2.4986" x2="53.5569" y2="119.0188">
									<stop  offset="0" style="stop-color:#C49A6C"/>
									<stop  offset="1" style="stop-color:#603913"/>
								</linearGradient>
								<use xlink:href="#XMLID_37_"  style="overflow:visible;fill:url(#XMLID_26_);"/>
								<clipPath id="XMLID_27_">
									<use xlink:href="#XMLID_37_"  style="overflow:visible;"/>
								</clipPath>
								<path class="st42" d="M26.5,39.1c1-1.5,2.2-2.9,3.5-4.2c-1.1,4-1.7,8-2.9,12c1.5-2.1,1.9-2.1,2.6-2.4
									c-1.4,2.2-2.7,4.4-3.9,6.7c-0.2-1.1-0.1-2.2,0.1-3.3c0.3-2.6,0.6-5.3,0.9-7.9c-1.4,1.8-2.5,4.1-3.8,5.7
									c0.8-4.2,4.1-15.4,4.1-15.4C27,31.9,26.9,37.2,26.5,39.1z"/>
							</g>
							<g>
								<path class="st43" d="M22.7,69c0.3,0.6,0.4,1.3,0.7,2c0-0.3,0.4-1.6,0.5-2c-0.1,1.3,0.3,2.6,1,3.6C24.8,72.1,25,71.4,25,71
									c0.3,1.4,0.5,1.7,1,2.6c-0.1-0.2-0.1-1,0-1.2c0.4,3.2,1,4,1.1,4.1c-0.2-0.1-1.7-3.1-2.1-3.7c0,0.3,0,0.6,0,0.8
									c-0.3-0.3-1.4-1.7-1.7-2.2c-0.1,0.5-0.1,1-0.1,1.5c-0.1-0.2-1-4.5-0.9-4.5C22.5,68.4,22.6,69,22.7,69z"/>
								<path class="st44" d="M50.4,98.8L50.4,98.8c-0.3,1.1-1,2.1-1.8,3c-1.8-0.7-3.8-5.1-2.7-8.7C46.1,95.1,48.2,99.2,50.4,98.8z"
									/>
								<path class="st43" d="M75.3,65.3c0,0.8-0.1,1.6-0.3,2.3c1.5-1.5,2.9-3.2,4.1-5c-0.3,0.8-0.5,1.6-0.5,2.4
									c1.8-2,3.1-4.3,3.9-6.8c-0.2,1-0.1,1.7-0.3,2.6c1.4-1.3,2.3-2.7,3.1-4.4c0.3,0.3-1.9,5.6-2.1,6.5c-0.5,2-1.6,3.8-2.6,5.5
									c0.5-2,1.5-3.9,1.2-5.9c-0.7,0.6-3.4,4.8-4.5,5.7c0.3-0.7,0.8-1.8,0.5-2.5c-0.1,0.9-3,3.5-3.5,4.3c-0.1-1.1,0-2.1,0.3-3.2
									L75.3,65.3z"/>
								<g>
									<path class="st45" d="M59.3,16.2c-0.3,0.3-1.7,4.1-2.1,4.9c0.7,0.2,2.6-0.3,3.3-0.2c0.1,0-1.5,1.6-1.7,1.8
										c0.6,0.2,3.1-0.5,3.7-0.4c-1.2,0.7-2.5,1.1-3.7,1.9c-1.3,0.8-7.4,5.3-7.9,5.5c0.3-0.7,4.4-4.9,5.2-5.9
										c-0.5,0.2-3.9,0.4-4.2,0.7c1.4-0.7,4.9-4.7,5.4-6.2c-0.3,0-2.9-0.1-9.9,4.4c1.4-1.9,3-3.6,4.4-5.5
										c-1.3,0.3-2.8,0.7-3.9,1.4c1.1-2.3,0.8-2.4,2.6-4.2c-2.8,1.4-4,0.7-6.8,2.1c2.1-1.9,4.1-3.9,6-6.1c-1.3,0.5-4.2,1.8-5.3,2
										c1.4-1.2,1.2-1.1,3.3-3.2c-1.8,0.9-3.1,1.2-4.9,2.1c0.3-0.5,4-5.8,4.1-5.8c-0.7,0-3.3-0.1-4,0c0.3-0.1,0.6-0.3,0.9-0.4
										C44.1,5,44.4,5,44.6,4.9c0.6-0.2,1.2-0.5,1.8-0.7c1.2-0.4,2.5-0.7,3.8-0.9c0.5-0.1,1-0.2,1.6-0.2c0.2,0,0.4,0,0.7-0.1
										c0.2,0,0.4,0,0.6,0c-2.3,1-4.4,2.8-6,4.6c1.4-0.3,4-0.7,5.4-1c-0.6,0.8-1.4,1.5-2.2,2.2c2.3-0.5,4.5-1.3,6.7-2.2
										c-1.6,1.5-3.3,2.8-5.2,4c1.1-0.3,2.3-0.9,3.4-1.1c-1.1,1-2.4,1.9-3.5,2.8c0.9-0.3,1.7-0.6,2.6-0.9
										c-0.1,0.5-0.4,0.9-0.7,1.2c-0.8,1.1-1.7,2.3-2.5,3.4c2.3-0.9,4.5-2,6.6-3.2c-1.4,1.4-2.7,2.9-3.8,4.5
										c0.1-0.1,2.2-0.7,2.7-0.8C57.4,16.4,58.4,16.2,59.3,16.2z"/>
									<path class="st45" d="M66.6,17.3c0-0.3,0-0.6,0.1-0.9c0.2-0.7,1.1-1.1,0.9-1.8c-0.1-0.4-0.6-0.6-0.8-0.9
										c-0.3-0.5-0.2-1.1,0-1.7c0.5-2.1,0.5-4.7,0.1-6.9c0.5,0.3,1.6,1.3,1.3,2.4c-0.2,0.8,0.1,1.6,0.3,2.4c0.2,1-0.4,2-1,2.8
										c-0.2,0.3-0.2,0.6,0,0.9l1,1.5c0.1,0.2,0.2,0.4,0.2,0.6c-0.1,0.4-0.7,0.4-0.8,0.7c-1,4.3-1.9,4.1-2.3,4.4
										C65.9,19.9,66.6,18.1,66.6,17.3z"/>
									<path class="st45" d="M73.9,34.7c-1.3-1.4-3-4.3-3.1-6.2c1.1,1.3,2.2,2.6,3.3,4c-1-1.6-1.5-3.4-1.4-5.2
										c0.8,1.2,1.6,2.6,3.2,3.6c-1.4-2.8-2.1-4.5-2.2-5.5c1.4,1.1,2.9,2.2,4.3,3.3c-1.4-2.4-2.4-5-2.9-7.7
										c0.8,0.9,1.6,1.7,2.3,2.6c-0.8-1.3-1.4-2.8-1.9-4.2c0.8,0.9,1.7,1.8,2.6,2.7c-2.2-2.6-3.5-5.8-4-9.1
										c1.1,2.3,2.7,4.4,4.5,6.3c-0.8-1.5-1.3-3.2-1.4-4.9c0.7,1.7,2.6,2.6,4.1,3.7c0.4-2.8-0.5-4-1.3-5.7c1.4,1.8,3.6,6.9,4.4,10
										c-1.3-2.8-2.6-3.5-2.6-3.5v2.1c0,0-1.5-1.8-2-2.1c0.8,1.7,0.6,2.8,0.7,3.8c-1-1.1-1.3-1.4-2.5-2.1c0.9,1.9,1.4,2.4,1.9,4.2
										c-0.7-0.8-1-0.7-1.4-1c1.3,2.2,2.3,3.1,2.8,6.7c-1.6-3.4-1.9-3-2.9-3.9c0.7,0.9,2.4,4.7,2.9,5.7c-1.7-1.9-2.8-2.6-4.5-3.5
										c-0.2,0.6,2.5,3.8,3.4,5.6c-2-1.4-1.5-1-3.7-2.3c1,0.7,2,2.5,2,3.7c-0.6-0.4-3.3-2.2-3.5-2.1c0.2,0.5,1.5,4.4,1.7,4.9
										c-0.6-0.7-1.9-2.5-2.3-2.8c0.2,0.3,1.1,3.3,1.6,3.6c-1.3-0.9-4.8-5-5.2-5.8L73.9,34.7z"/>
									<path class="st43" d="M40.8,81.6c1.6,3.1,3.7,4.6,3.9,5c-0.3-0.1-6.9-4.6-7.8-5.1c0.2,1,2,3,3,4c-2.3-1-5.1-3.4-6.7-5
										c-0.3,2.2,1.7,4.5,2.1,5.3c-5.2-3.3-7.7-7.6-7.6-8.6c1,1.3,2.7,3,3.9,3.9c0.1-1.6,0.3-3.2,0.3-3.5c1,0.8,1.8,1.7,2.6,2.7
										c0-0.2,0.2-1.8,0.2-2.1c1.3,1.5,2.9,2.7,4.7,3.4c0-1,0-2,0-2.9c0,0.2,0.3,0.7,0.4,0.9C40,80.3,40.4,80.9,40.8,81.6
										C40.8,81.6,40.8,81.6,40.8,81.6z"/>
									<path class="st43" d="M38.3,108.4c0.8-0.2,4.2-1.9,5.2-2.2c-0.1,0.2-1.4,1.9-1.5,2.1c-0.1,0.1-0.3,0.6-0.4,0.6
										c0.9-0.4,3.7-0.8,3.9-1c-0.9,1.8-5.1,2.9-5.4,3.2c3.3-1.1,6.6-1.6,8.5-2c0.4-0.1,2.1-0.8,2.1-0.8c-1.5,0.5-3.4,0.7-5,0.6
										c0.6-0.8,1.1-1.6,1.7-2.4c-1.1,0.2-2.3,0.5-3.4,0.8c0.2,0,2.1-3.5,1.9-3.4c-0.9,0.4-2,1-2.4,1.3
										C41.8,106.3,39.7,107.1,38.3,108.4z"/>
									<path class="st43" d="M21.9,72.2c0-0.1-0.7-1.7-0.8-2c-0.2-0.7-0.4-1.3-0.6-2c-0.4-1.8-0.6-3.7-0.7-5.5
										c0-2.6,0.3-5.2,0.8-7.7c0.1-0.3,0.1-0.6,0.2-0.9c0,0,0,0,0-0.1c0,0,0,0.2,0,0.3c0,0.2-0.1,0.4-0.1,0.6
										c-0.1,0.7-1.1,7.7,0,10.7c0.2-0.6,0.4-1.3,0.6-1.9c-0.1,1,0.1,1.6,0.2,2.9c0.2-0.6,0.5-1.2,0.8-1.8
										c-0.1,0.5,0.2,5.4,0.5,6.4c-0.3-1-0.6-2.1-1-3.1c0,0.5-0.1,1-0.1,1.5c-0.1-0.4-0.3-0.7-0.6-1.1
										C21.3,68.6,21.2,69.9,21.9,72.2z"/>
									<path class="st43" d="M46.8,88.4c-0.5-0.5-0.7-1.8-1.2-2.2c1.2,1.1,1.9,1.9,2.9,2.3c-0.2-0.1-1-1.5-1.2-1.8
										c0.2,0.2,0.8,0.7,1,0.9c1,1,2.2,1.7,3.1,2.8c-0.4-0.1-2.2-1.1-2.8-1.4c0.2,0.2,0.3,0.5,0.3,0.8c-0.5-0.5-1.2-1-1.9-1.3
										c0.1,0,0.4,0.9,0.6,1.1c-0.4-0.3-1.7-1.3-1.9-1.5C45.9,87.6,46.6,88.3,46.8,88.4z"/>
								</g>
							</g>
						</g>
						<g>
							<g>
								<path class="st46" d="M35.9,116.6c-0.4-1-0.3-1.9,0.3-2.8l0-0.1c0,0,0.1-0.1,0.1-0.1c1.8-2.4,7-3.5,7.2-3.5
									c7-0.8,10.1-3.3,11.2-4.8c0.4-0.5,0.7-1,0.8-1.6c0.5-1.7,0.5-3.4,0.1-5.1c-1.1-4.1-4.8-6.6-4.9-6.6
									c-13.1-9.2-12-16.4-12-16.5c0,0-0.2,7.8,12.1,16.3c0,0,3.8,2.5,4.9,6.7c0.4,1.7,0.4,3.4-0.1,5.2c-0.2,0.6-0.5,1.2-0.9,1.7
									c-1.2,1.5-4.3,4-11.4,4.8c0,0-5.3,1.1-7.1,3.4c0,0-0.1,0.1-0.1,0.1c0,0,0,0,0,0.1c-0.6,0.8-0.6,1.7-0.3,2.6L35.9,116.6z"/>
							</g>
							<g>
								<path class="st46" d="M45.5,104.2c-0.2,0.1-0.6,0.3-1.1,0.6c-3.4,1.7-11.3,5.6-9.8,11.9c0.4,1.8,2.5,2.4,4.4,2.1
									c1.4-0.2,3.3-0.9,4.4-2.2c0.7-0.8,1.4-2.4,1-3.6c-0.2,1-0.8,1.8-1.5,2.5c-0.8,0.7-3,1.8-4.7,1.2c-1.1-0.4-1.8-1.4-2-3l0.2,0
									c0.2,1.5,0.8,2.5,1.9,2.9c1.6,0.6,3.8-0.5,4.5-1.1c0.8-0.7,1.3-1.7,1.5-2.7l0.1-0.3l0.1,0.3c0.6,1.3-0.2,3.2-0.9,4.2
									c-1.1,1.4-3.1,2.1-4.5,2.3c-0.3,0-0.6,0.1-0.9,0.1c-1.7,0-3.3-0.7-3.7-2.4c-1.6-6.5,6.5-10.4,9.9-12.1
									c0.5-0.2,0.9-0.4,1.1-0.6c1.2-0.7,2.3-1.5,3.1-2.4c0.9-0.9,1.5-1.9,1.8-2.9c0.5-1.5,0.2-3.1-0.8-4.6c0,0-0.6-1-2.2-2.4
									c-1.5-1.3-7.8-4-10.5-5.1c-0.7-0.3-1.2-0.5-1.2-0.5c-3.1-1.8-13.1-8.7-8.5-23.9c1.2-4,5.2-15.8,5.2-16c0,0-0.1,0.9-5,16
									c-4.9,15,5.3,22,8.4,23.7c0.1,0,0.6,0.2,1.2,0.5c2.7,1.1,9,3.8,10.6,5.2c1.6,1.4,2.2,2.4,2.2,2.4c1.1,1.6,1.3,3.2,0.8,4.8
									c-0.3,1-0.9,2-1.9,3"/>
							</g>
							<path class="st47" d="M30.8,100.1c0.6-0.2,2.1-0.7,3.4-2c1.9-1.9,3.5-5.5,1.4-12"/>
							<g>
								<path class="st48" d="M30.9,100.2l-0.1-0.2c0.9-0.4,2.5-1.8,3.1-4.2c0.7-3,0-8.2-7.4-16.1c-0.5-0.6-1-1.3-1.5-2.1
									c-2.7-4.7-3.3-12-2.5-16.4c0.6-3.1,1.2-5.7,2.1-8.5c0,0-1.3,5.5-1.8,8.5c-0.8,4.4-0.2,11.6,2.5,16.3c0.5,0.8,1,1.5,1.5,2
									c7.4,7.9,8.1,13.2,7.4,16.3C33.5,98.3,31.8,99.8,30.9,100.2z"/>
							</g>
							<path class="st49" d="M25.1,77.6l0.3,0.4c-0.2-0.2-8.9-9.9-4.1-25.4c4.6-15,8.9-44.7,25.4-48.5c0,0,14.9-4.5,20.2,1.2
								l1.3-0.1c0,0,14-3.6,18.7,28.5c0.7,4.6,0.5,9.5,0,14.1C85.7,58.2,82.2,67,76.6,75.5c-2.3,3.5-4.2,7.2-4.9,11.3
								c-0.4,2.8-0.1,6,2.1,7.8c-1.2-0.5-1.9-1.7-2.5-2.8C67.5,85.3,75,66.1,75,66.1c5.3-13.6,1.5-26.6,1.1-26.9
								c-9.3-8-10.5-18.4-10.5-18.4S37,32.1,37.7,56.9c0.2,5.3,3.4,6,6.2,24.2c1,6.5,14,11.4,12,17.5"/>
							<path class="st49" d="M48.6,101.8c-1.8-0.7-3.8-5.1-2.7-8.7c0.3,2,2.3,6.1,4.5,5.7"/>
						</g>
					</g>
				</g>
			</g>
			<path class="st32" d="M70.3,41.9c0.9-0.1,1.8,0,2.7,0.4c1,0.4,1.9,1.1,2.4,2c-0.2-0.1-0.3-0.2-0.4-0.4c-0.7-0.7-1.5-1.2-2.4-1.4
				c-0.4-0.1-0.8-0.1-1.1-0.1c-0.4,0-2.6,0.6-2.8,0.7C68.2,43.1,69.7,42,70.3,41.9z"/>
			<path class="st32" d="M51.5,36.8c-3.1-0.2-3.5,0.6-4.1,1.1c0.3-0.2,0.7-0.3,1-0.3c0.5,0,1-0.1,1.5-0.1c0.4,0,0.9,0,1.3,0.2
				c0.4,0.1,0.9,0.3,1.3,0.5c0.4,0.2,0.7,0.3,1,0.6c0.3,0.2,0.9,2,1.2,2.3C55.4,39.7,53.1,36.9,51.5,36.8z"/>
			<g>
				<defs>
					<path id="XMLID_35_" d="M67.8,200.1c0.5,0.4,3.6,2.9,2.8,7.4c0,0-3.8,4.5-12.1-6.6c0,0-4.4-5.1-6.5-6.7c-0.5-0.4-0.8-1-0.8-1.6
						c-0.1-1.3,0-3.4,1-4.5"/>
				</defs>
				<clipPath id="XMLID_28_">
					<use xlink:href="#XMLID_35_"  style="overflow:visible;"/>
				</clipPath>
				<path class="st50" d="M71.5,205.3c1,1.2-0.5,2.7-1.5,3c-0.3,0.1-1.4,1-1.6,0.9c-3.5-0.3-6.4-1.7-8.9-4.1c-1.2-1.2-2-2.7-3-4.1
					c-1.1-1.5-11.3-11.9-5.2-10.4c0.1,0-0.3,2.4,3.6,5.6C58.6,199.3,67.1,213.6,71.5,205.3z"/>
				
					<use xlink:href="#XMLID_35_"  style="overflow:visible;fill:none;stroke:#5E5F5F;stroke-width:0.213;stroke-linecap:round;stroke-linejoin:round;"/>
			</g>
			<g>
				<path class="st20" d="M57.7,84.4c-0.3,0.1-1-2.2-1.2-3c-0.1-0.4-0.2-0.9-0.2-1.3c0,0,0,0,0-0.1l0.2-0.1c0,0,0,0.1,0,0.1
					c0.1,0.4,0.1,0.9,0.2,1.3C56.8,82.1,57.7,84.4,57.7,84.4z"/>
			</g>
			<path class="st51" d="M55.8,82.8c-3,2.2-9.1-1.1-7.1-0.8C53.1,82.8,56.6,82.2,55.8,82.8z"/>
			<g>
				<g>
					<defs>
						<path id="XMLID_29_" d="M67.3,44.9c-0.1,0,0.1-0.4,0.2-0.5c0.4-0.6,2-2.6,5.2-1.7c0,0,2.8,0.8,3.3,2.1c0,0-0.5,0.3-0.5,0.3
							c-0.3,0.2-4.6,2.5-7.8,0L67.3,44.9z"/>
					</defs>
					<use xlink:href="#XMLID_29_"  style="overflow:visible;fill:#FFFFFF;"/>
					<clipPath id="XMLID_31_">
						<use xlink:href="#XMLID_29_"  style="overflow:visible;"/>
					</clipPath>
					<g class="st52">
						<circle class="st53" cx="71.3" cy="44.3" r="2.1"/>
						<path class="st54" d="M71.7,44.8C71.7,44.8,71.6,44.8,71.7,44.8c-0.2,0.1-0.3,0.7-0.3,0.9c0,0.2,0,0.4,0.1,0.5
							c0.2,0.1,1.1-0.2,0.9-0.6C72.2,45.4,71.9,44.8,71.7,44.8z"/>
						<path class="st54" d="M70.2,44.8c0,0.1,0,0.1,0,0.2c0,0,0,0-0.1,0c-0.2,0-0.3-0.2-0.4-0.3c-0.1-0.2-0.2-0.4-0.1-0.6
							c0-0.1,0.1-0.2,0.2-0.3c0.1-0.1,0.2-0.2,0.3-0.1c0.1,0,0.1,0.2,0.1,0.2c0,0.1,0,0.3,0,0.4C70.1,44.4,70.1,44.6,70.2,44.8z"/>
						<circle cx="71.4" cy="44.2" r="1.2"/>
						
							<ellipse transform="matrix(0.9989 -4.604669e-02 4.604669e-02 0.9989 -1.9594 3.2839)" class="st0" cx="70.3" cy="44.2" rx="0.5" ry="0.4"/>
					</g>
				</g>
				<g id="XMLID_24_">
					<path class="st55" d="M69,45.9c3.6,0.9,5.8-0.6,6.3-0.9c0,0,0.1-0.1,0.2-0.1c0.1,0,0.1-0.1,0.2-0.1c-0.6-1.2-3.2-1.9-3.2-1.9
						c-4.5-0.9-5.2,2.2-5.4,2.1c0,0,0.7-3.1,5.5-2.3c0.1,0,2.9,0.8,3.4,2.2c0,0.1,0,0.1-0.3,0.3c-0.1,0.1-0.2,0.1-0.2,0.1
						C72.3,47.2,69,45.9,69,45.9z"/>
				</g>
				<path d="M70.5,41.4c0,0.3-0.1,0.6-0.3,0.9c0.6-0.2,1.3-0.4,1.9-0.9c-0.2,0.3-0.6,0.8-0.9,0.9c0.8,0,1.7-0.4,2.5-0.6
					c-0.4,0.4-0.8,0.6-1.4,0.7c0.2-0.1,1.1,0.4,2.4,0c-0.2,0.2-0.4,0.4-0.9,0.5c0.4,0.3,2.2,0.2,2.6-0.1c-0.4,0.4-1.2,0.6-1.7,0.6
					c0.6,0.4,1.8,0.2,2.1,0.1c-0.4,0.3-0.8,0.5-1.3,0.6c0,0-0.1,0-0.1,0c0,0-2.7-1.4-3.5-1.4c-3-0.1-3.7,1-3.9,0.9
					C68.7,43.1,70.2,42.2,70.5,41.4z"/>
				<path d="M75.4,44c0,0,0.9,0.7,2.1,0.5l-2.6,1.2c0,0,0-0.5,0.4-0.7c0.6-0.4-0.1-0.7-0.3-1L75.4,44z"/>
			</g>
			<g>
				<g>
					<g>
						<defs>
							<path id="XMLID_30_" d="M52.9,37.9c0,0-2.6-1.7-6,0.2c0,0,1.5,4.4,7.7,3.4l0.7-0.1C55.2,41.5,54.8,38.6,52.9,37.9z"/>
						</defs>
						<use xlink:href="#XMLID_30_"  style="overflow:visible;fill:#FFFFFF;"/>
						<clipPath id="XMLID_32_">
							<use xlink:href="#XMLID_30_"  style="overflow:visible;"/>
						</clipPath>
						<g class="st56">
							<g>
								<defs>
									<circle id="XMLID_34_" cx="50.6" cy="39.2" r="2.1"/>
								</defs>
								<use xlink:href="#XMLID_34_"  style="overflow:visible;fill:#7E5020;"/>
								<clipPath id="XMLID_33_">
									<use xlink:href="#XMLID_34_"  style="overflow:visible;"/>
								</clipPath>
								<path class="st57" d="M50.9,39.8C50.9,39.8,50.8,39.8,50.9,39.8c-0.2,0.1-0.5,1.5-0.4,1.6c0.2,0.1,1-0.2,1-0.3
									C51.6,40.9,51.1,39.8,50.9,39.8z"/>
								
									<use xlink:href="#XMLID_34_"  style="overflow:visible;fill:none;stroke:#000000;stroke-width:0.2164;stroke-miterlimit:10;"/>
							</g>
							<path class="st54" d="M49.4,39.7c0,0.1,0,0.1-0.1,0.2c0,0,0,0-0.1,0c-0.2,0-0.3-0.2-0.4-0.4c-0.1-0.2-0.1-0.4-0.1-0.6
								c0-0.1,0.1-0.2,0.2-0.3c0.1-0.1,0.2-0.1,0.3-0.1c0.1,0,0.1,0.2,0,0.2c0,0.1-0.1,0.3-0.1,0.4C49.4,39.3,49.4,39.5,49.4,39.7z"
								/>
							<circle cx="50.7" cy="39.2" r="1.2"/>
							
								<ellipse transform="matrix(7.294171e-02 -0.9973 0.9973 7.294171e-02 6.9733 85.5602)" class="st0" cx="49.5" cy="39" rx="0.4" ry="0.5"/>
						</g>
					</g>
					<path d="M54.4,37.4c-0.2,0.3-0.3,0.7-0.4,1.1c-0.1,0-0.5-1.2-0.6-1.7c-0.2,0.3-0.2,0.7,0,1.1c-0.5-0.4-0.8-0.9-0.7-1.7
						c0,0.3-0.4,0.8,0,1.4c-0.6-0.5-1-1.1-1.2-1.9c0.1,0.5,0,1,0.3,1.5c-0.4-0.2-1.6-1.4-1.7-1.9c0.1,0.6,0.3,1.2,0.7,1.7
						c-0.6-0.4-1.1-0.9-1.5-1.5c0.1,0.5,0.2,0.9,0.7,1.4c-0.3,0-0.9-0.2-1.1-0.4c-0.2-0.2-0.4-0.5-0.6-0.7c0.1,0.5,0.3,0.9,0.6,1.3
						c-0.5-0.2-0.9-0.5-1.3-1c0.1,0.4,0.3,0.8,0.6,1.1c-0.6-0.1-0.8-0.2-1.6-1c0.1,0.3,0.1,0.6,0.9,1.4c0.1,0.1,1.8-0.4,2.1-0.4
						c0.3,0,0.5,0,0.8,0c0.8,0.1,1.3,0.1,2,0.4c0.2,0.1,0.7,0.4,0.8,0.5c0.2,0.1,0.3,0.2,0.5,0.4c0.1,0.1,0.8,0.9,0.7,0.8
						C54.2,39,54.3,37.6,54.4,37.4z"/>
					<path d="M47.6,37.6c0,0-1.1,0.1-2-0.6c0,0,1.5,2.6,2.7,3.2c0,0-1.2-1.1-1.5-2.1C46.9,38.1,47.6,37.8,47.6,37.6z"/>
				</g>
				<g id="XMLID_23_">
					<path class="st58" d="M52.7,41.7c-4.8,0-6-3.5-6-3.5l0-0.1l0.1,0c7.3-3.1,8.5,3.2,8.5,3.3c0,0.2-0.1,0.2-0.1,0.2
						c0,0-0.1-0.4-0.1-0.4c-1-3.7-4.6-4.3-7.6-3.1c-0.2,0.1-0.4,0.2-0.5,0.3C48.3,41.4,52.7,41.7,52.7,41.7z"/>
				</g>
			</g>
		</g>
	</g>
	<path class="st59" d="M30,60.2"/>
	<g>
		<g>
			<linearGradient id="SVGID_1_" gradientUnits="userSpaceOnUse" x1="33.1756" y1="52.4226" x2="33.1756" y2="83.0211">
				<stop  offset="0" style="stop-color:#C49A6C"/>
				<stop  offset="1" style="stop-color:#603913"/>
			</linearGradient>
			<path class="st60" d="M35.1,83c-1.6-3.2-3.2-6.3-3.7-12.8c-0.4-5.8,0.4-11.6,2.7-17.8c0,0-3.2,8.2-2.5,17.8
				C32.1,77.2,35.1,83,35.1,83z"/>
		</g>
		<g>
			<g>
				<linearGradient id="SVGID_2_" gradientUnits="userSpaceOnUse" x1="44.6275" y1="7.8033" x2="44.6275" y2="51.441">
					<stop  offset="0" style="stop-color:#C49A6C"/>
					<stop  offset="1" style="stop-color:#603913"/>
				</linearGradient>
				<path class="st61" d="M24.7,51.4c4.7-15.5,16.1-29,30.6-36.1l0.6-0.3c7.4-3.4,8.6-7.2,8.6-7.2c-1.1,3.7-5,5.7-8.5,7.4l-0.6,0.3
					C30.7,28.4,24.7,51.4,24.7,51.4z"/>
			</g>
			<g>
				<linearGradient id="SVGID_3_" gradientUnits="userSpaceOnUse" x1="42.9013" y1="7.8641" x2="42.9013" y2="42.5063">
					<stop  offset="0" style="stop-color:#C49A6C"/>
					<stop  offset="1" style="stop-color:#603913"/>
				</linearGradient>
				<path class="st62" d="M24.1,42.5l-0.2-0.1c1-1.7,2-4.1,3.1-6.5c1.7-3.7,3.4-7.6,5.1-10c3.7-5.1,9.4-8.2,14-10.4
					c1.5-0.7,3.1-1.4,4.6-2c3.8-1.6,7.7-3.3,11.2-5.6c0,0-4.6,3.2-11.1,5.8c-1.5,0.6-3.1,1.3-4.6,2c-4.6,2.1-10.3,5.2-13.9,10.3
					c-1.7,2.4-3.4,6.3-5.1,10C26.1,38.4,25.1,40.8,24.1,42.5z"/>
			</g>
			<g>
				<linearGradient id="SVGID_4_" gradientUnits="userSpaceOnUse" x1="75.0855" y1="17.9222" x2="75.0855" y2="71.1198">
					<stop  offset="0" style="stop-color:#C49A6C"/>
					<stop  offset="1" style="stop-color:#603913"/>
				</linearGradient>
				<path class="st63" d="M75.3,71.1c1.7-4.3,4.2-8.7,5-12.2c1.6-7.1,0.7-13.7-2.5-18.7c-0.8-1.3-1.8-2.4-2.7-3.5
					c-0.7-0.9-1.5-1.8-2.2-2.7c-4.2-6.5-4.1-16-4.1-16c-0.5,5.5,1.1,11.3,4.3,15.9c0.7,0.9,1.4,1.9,2.2,2.7c0.9,1.1,1.9,2.3,2.7,3.6
					c3.2,5,4.1,11.7,2.5,18.9C79.7,62.5,75.3,71.3,75.3,71.1z"/>
			</g>
			<g>
				<linearGradient id="SVGID_5_" gradientUnits="userSpaceOnUse" x1="75.9021" y1="11.3335" x2="75.9021" y2="67.4687">
					<stop  offset="0" style="stop-color:#C49A6C"/>
					<stop  offset="1" style="stop-color:#603913"/>
				</linearGradient>
				<path class="st64" d="M81,67.5c2.3-8.4,3.6-19.2,0.3-25.8c-0.8-1.5-1.8-3-2.7-4.4c-0.7-1-1.4-2-2-3.1c-2.1-3.6-3.5-7.6-3.9-11.7
					c0-0.3-0.1-0.5-0.1-0.8c-0.1-1.1-0.2-2.3-0.7-3.4c-0.4-1.1-1.1-2-1.8-3c-0.9-1.2-1.9-4-1.9-4c0.3,1.4,1.2,2.7,2,3.9
					c0.7,0.9,1.4,1.9,1.8,3c0.4,1.1,0.6,2.3,0.7,3.5c0,0.3,0.1,0.5,0.1,0.8c0.5,4.1,1.8,8.1,3.9,11.6c0.6,1,1.3,2.1,2,3.1
					c1,1.4,1.9,2.9,2.7,4.4C86.3,50.1,81,67.5,81,67.5z"/>
			</g>
			<g>
				<linearGradient id="SVGID_6_" gradientUnits="userSpaceOnUse" x1="77.4487" y1="7.3879" x2="77.4487" y2="48.7765">
					<stop  offset="0" style="stop-color:#C49A6C"/>
					<stop  offset="1" style="stop-color:#603913"/>
				</linearGradient>
				<path class="st65" d="M85.5,48.8c0-5.8-0.5-11.6-1.6-17.3c-1.1-5.7-2.5-10.1-4.5-13.7C75.7,11,69.4,7.4,69.4,7.4
					c5.1,2.5,8.3,7,10.1,10.2c2,3.7,3.2,8.1,4.5,13.8C85.7,38.5,85.5,48.8,85.5,48.8z"/>
			</g>
			<g>
				<linearGradient id="SVGID_7_" gradientUnits="userSpaceOnUse" x1="76.7099" y1="11.0183" x2="76.7099" y2="42.1832">
					<stop  offset="0" style="stop-color:#C49A6C"/>
					<stop  offset="1" style="stop-color:#603913"/>
				</linearGradient>
				<path class="st66" d="M81.2,30.1c-0.5-2.6-1-5.2-2.1-7.5C77.1,18,69.9,11,69.9,11c3.4,3.2,7.3,6.9,9.4,11.5
					c1,2.4,1.6,4.9,2.1,7.5c0.8,4,1.5,8.1,2.1,12.1C83.5,42.2,82,34.1,81.2,30.1z"/>
			</g>
			<g>
				<linearGradient id="SVGID_8_" gradientUnits="userSpaceOnUse" x1="46.6937" y1="5.5756" x2="46.6937" y2="24.6302">
					<stop  offset="0" style="stop-color:#C49A6C"/>
					<stop  offset="1" style="stop-color:#603913"/>
				</linearGradient>
				<path class="st67" d="M29.4,24.6l-0.2-0.1c1.6-2.9,6.5-8.1,12.9-12.2c5.4-3.5,13.5-7.5,22-6.6c0,0-9.4-1.2-21.8,6.8
					C35.9,16.6,31,21.7,29.4,24.6z"/>
			</g>
			<g>
				<linearGradient id="SVGID_9_" gradientUnits="userSpaceOnUse" x1="49.2354" y1="15.5121" x2="49.2354" y2="91.5669">
					<stop  offset="0" style="stop-color:#C49A6C"/>
					<stop  offset="1" style="stop-color:#603913"/>
				</linearGradient>
				<path class="st68" d="M46.9,91.4c-0.3-0.4-0.9-0.9-1.6-1.4c-2.7-2-7.1-5.4-8.1-14.8c-0.2-2-0.8-4-1.5-5.9
					c-0.1-0.3-0.2-0.6-0.3-0.9c-2.4-7.5-2.3-15.7,0.3-23.1c2.6-7.4,7.6-13.9,14.1-18.3c1.4-0.9,2.9-1.8,4.3-2.6
					c4-2.4,10.7-8.8,10.7-8.8c-2.8,3.1-6.5,6.6-10.6,9c-1.4,0.8-2.9,1.7-4.3,2.6c-6.5,4.4-11.4,10.8-14,18.2
					c-2.6,7.4-2.7,15.5-0.3,22.9c0.1,0.3,0.2,0.6,0.3,0.9c0.6,1.9,1.3,3.9,1.5,6c0.9,9.4,5.4,12.7,8,14.7c0.7,0.6,1.6,1.3,1.9,1.8
					L46.9,91.4z"/>
			</g>
			<g>
				<linearGradient id="SVGID_10_" gradientUnits="userSpaceOnUse" x1="46.1893" y1="11.7905" x2="46.1893" y2="59.9585">
					<stop  offset="0" style="stop-color:#C49A6C"/>
					<stop  offset="1" style="stop-color:#603913"/>
				</linearGradient>
				<path class="st69" d="M27.1,60c1.7-8.4,1.8-11.4,5.3-17.9c7.3-13.6,23.8-24.9,32.9-30.3c0,0-23.5,13.6-32.7,30.4
					C29.1,48.6,27.1,60,27.1,60z"/>
			</g>
		</g>
	</g>
</g>
<path class="st70" d="M53.4,158.4c0-0.8,0.2-2.3,0.1-3.4c-0.2,0.6-2.2-0.2-3.4-0.3c-0.8-0.1-1.6-0.1-2.4-0.2c0,0-0.1,0.1-0.1,0.1
	c-0.3,0.7-0.2,1.5,0.2,2.3c0,0,0,0.3,0.2,0.6c0,0,0,0,0,0l0,0c0.3,0.6,1,1.4,2.9,1.4c0,0,1,0.5,2.5,0.2
	C53.5,158.9,53.4,158.6,53.4,158.4z"/>
<path class="st70" d="M119,140.1l-3.9-2.8c-0.5-0.4-1.2-0.6-1.8-0.6c-0.4,0-0.8,0-1.1,0.2c0,0-2-3.5-9.3-4.9l0,0
	c0.1-0.8,0-1.6-0.2-2.3c-0.2-0.8-0.6-1.5-1-2.2l0-0.1c3-1.2,4.5-3.6,4.5-5.3c0-1.3-0.4-2.5-0.9-3.7c1,0.6,1.7,1.2,1.8,2.2
	c1.4-2.8-1.8-7.7-7.6-9.4c1.1-0.2,2.3,0.1,3.2,0.7c-0.6-1.1-1.6-1.8-2.8-2.3c-6.4-2.5-10.4,2.8-11.8,5.5c0,0,0,0.1-0.1,0.1l0,0
	c-3.7,0.1-6.1-0.2-7.6-1c0,0-0.1,0-0.3,0.1c0.1-0.1,0.1-0.1,0.2-0.2l0,0c0,0,0.1-0.1,0.1-0.1c0.2-0.2,0.4-0.4,0.5-0.6
	c0,0,0.1-0.1,0.1-0.1c0-0.1,0.1-0.1,0.1-0.2c0.1-0.1,0.2-0.3,0.3-0.4c0.2-0.2,0.3-0.4,0.5-0.7c0.1-0.1,0.1-0.2,0.2-0.2
	c0.1-0.1,0.2-0.2,0.2-0.3c0.2-0.3,0.4-0.5,0.5-0.8c0.1-0.1,0.1-0.2,0.2-0.3c0-0.1,0.1-0.1,0.1-0.2c0.3-0.4,0.6-0.9,0.8-1.4l-0.9,0.2
	c0,0,0,0,0,0c0,0,0,0,0,0c1.1-1.8,1.7-3.4,2.8-5.2c-0.6-0.1-1-0.5-1.1-1c0.5,0.1,0.9,0.3,1.6,0.1c-0.8-0.2-3.5-7.2-3.4-7.8
	c0,0,2.1-11.3,0.8-12.3c-0.9-0.6-6.4,1.4-9.6,4.5c0,0,4.2,11.9,2.7,11.5c-2.4,6.8-6.8,2.2-6.1,9.2c0.7,7.4,0.7,14.9,2,22.2
	c0.4,2.3,0.7,5.3,2,7.5c1.8,0.7,3.6,1.7,5.1,2.7c0.3,0.2,0.7,0.5,1,0.7c1.1,0.2,2.3,0.3,3.4,0.3c6.3,0.3,13.7-1.5,16.6,5.1
	c0,0.1-0.9,0.8-0.9,0.9c1.9,0.8,0.5,2.8,5.4,2c0,0,5.8-2.9,7.3-4c0.1,0,0.1-0.1,0.2-0.1c0,0,0,0,0.1,0c0.6,0.1,5.6,1.2,6.8-0.5
	c0,0,0.1-0.1,0.1-0.1c0,0,0.3-0.7,0.4-1.6C120.3,142.2,120.1,141.1,119,140.1z"/>
<g>
	<g>
		<defs>
			<path id="XMLID_22_" d="M65,85.8c0,0-4.3-7.1-6.7-7.5c-0.5-0.1-3.3,3.7-3.9,13c-0.8,1.2-4.5,6.7-6.4,7.3c0.4,0.2,1.2,0.4,1.7,0.1
				c0,0.8-0.8,1.3-1.7,1.3c1.1,2.8,1.7,2.9,2.2,3.7l-0.9-0.4c0,0,3.7,15.9,16,18.3c0,0,11.3,0.9,19-12.8l-0.9,0.2
				c1.1-1.8,1.7-3.4,2.8-5.2c-0.6-0.1-1-0.5-1.1-1c0.5,0.1,0.9,0.3,1.6,0.1c-0.8-0.2-3.5-7.2-3.4-7.8c0,0,2.1-11.3,0.8-12.3
				c-0.9-0.6-6.4,1.4-9.6,4.5C74.3,87.3,70,85.7,65,85.8z"/>
		</defs>
		<use xlink:href="#XMLID_22_"  style="overflow:visible;fill:#CDA377;"/>
		<clipPath id="XMLID_39_">
			<use xlink:href="#XMLID_22_"  style="overflow:visible;"/>
		</clipPath>
	</g>
	<g>
		<g>
			<g id="XMLID_9_">
				<g>
					<path class="st71" d="M65.4,79.3"/>
					<g id="XMLID_10_">
						<g>
							<g>
								<defs>
									<path id="XMLID_21_" d="M62.1,139.7c1.4-3.8,1.3-7.1,1.3-7.1s1.3,0.1,1.3,0.4c0.3-1.4-0.4-2.4-0.1-3.5
										c0.3,0.2,0.6,0.4,0.9,0.6c0.2-0.7,0.4-1.4,0.4-2.2c0.4,0.1,0.7,0.4,0.9,0.7c0-0.8,1.1-4.2,1.1-4.4c0,0.6,0,1.2,0.1,1.9
										c0.4-0.9,0.7-2.9,0.9-4.6c0.1-1.6-0.9-3-2.4-3.4l-6.2-2.5c11.7,2.9,20.1-1.5,20.1-1.5c1.5,0.9,3.9,1.1,7.6,1l0,0
										c1.3-2.7,5.4-8.2,11.9-5.6c1.1,0.4,2.2,1.2,2.8,2.3c-0.9-0.6-2.1-0.8-3.2-0.7c5.8,1.7,9,6.6,7.6,9.4
										c-0.1-1-0.7-1.6-1.8-2.2c0.5,1.2,0.9,2.4,0.9,3.7c0,1.7-1.5,4.1-4.5,5.3l0,0.1c0.4,0.7,0.7,1.4,1,2.2
										c0.2,0.8,0.4,1.6,0.2,2.3l0,0c7.3,1.4,9.3,4.9,9.3,4.9c0.3-0.1,0.7-0.2,1.1-0.2c0.7,0,1.3,0.2,1.8,0.6l3.9,2.8
										c2.1,2,0.7,4.6,0.7,4.6c-1.2,2-7,0.6-7,0.6c-1.2,1-7.5,4.2-7.5,4.2c-7.7,0.7-12.6-5.1-12.6-5.1l0-0.1l0-2.3l0,0
										c-2.5-1.6-5.6-1.9-8.5-1.6c-2.9,0.3-6.3,0.7-9.2,1.1l-0.1,0c-0.2,0.8-0.4,1.5-0.6,2.1c-0.7,2.1-1.3,3.1-1.3,3.1
										c-0.5,1.4-4.6,5.1-8.5,6.7c-0.4-1.2-1.6-1.6-2.8-1.7c-1.2-0.1-2.5,0.2-3.7,0.2c-2,0-3.8-0.4-5.3-1.7
										c0.2-0.1,0.3-0.1,0.3-0.1C58.3,147.2,60.9,143.2,62.1,139.7z"/>
								</defs>
								<use xlink:href="#XMLID_21_"  style="overflow:visible;fill:#CDA377;"/>
								<clipPath id="XMLID_42_">
									<use xlink:href="#XMLID_21_"  style="overflow:visible;"/>
								</clipPath>
								<path class="st72" d="M63.9,153.9c1.9-1.2,4.8-1.4,6.6-2.8c0.6-0.5,1.2-1.1,1.7-1.8c0.7-0.9,1.4-1.9,1.7-2.9
									c0.3-0.8,0.4-1.6,0.5-2.4c0.1-0.6,0.7-2.1,0.5-2.7C71.5,148.6,65.2,152.7,63.9,153.9z"/>
								<path class="st72" d="M104.6,148.2c0.9,0.2,8.1-2.8,8.2-2.9c0.4-0.3,0.2-0.8,0.5-1.2c1.3,0.8,4.5,1.3,6.3,0.6
									c0,0.9-0.1,1.8-0.6,2.5c-0.3,0.3-0.7,0.6-1.1,0.8c-3.5,1.8-7.5,2.1-11.4,2.3c-3.3,0.2-6.6,0.2-9.7-1
									c-1.3-0.5-2.5-1.3-3.3-2.4c-0.3-0.4-1.9-5.7-1.1-4.8C93.3,142.8,97.8,147,104.6,148.2z"/>
								<path class="st72" d="M87.5,116.4c0.1,0,0.3-1,0.7-1.3c-0.7,0.4-10.1-2.2-9.7-1.5C78.7,113.9,83.1,117.6,87.5,116.4z"/>
								<path class="st72" d="M96.2,122.1c-1.1,0-2.3-0.7-2.6-1.8c-0.7-2.3,1.5-3,2.2-3.2c-1.2,1.5-0.9,2.4-0.5,2.8
									c2.3,2.4,4.2,0.5,4,1C98.9,121.5,98.2,122.2,96.2,122.1z"/>
								<path class="st72" d="M52.7,150.5c4.1-1.7,8.5-5.7,9.1-6.5c1-1.3,1.9-10,1.7-11.6c-1.2,1.3-9.6,16.7-11.1,17.7L52.7,150.5z"
									/>
							</g>
							<g>
								<defs>
									<path id="XMLID_20_" d="M92.7,142l0,2.3l-0.1,0c-1.7,0-6,0.2-8.4-0.3c-1.6-0.3-8.4-1.1-9.9-0.3c0.2-0.6,0.4-1.3,0.6-2.1
										l0.1,0c2.9-0.5,6.3-0.9,9.2-1.1C87.1,140.1,90.2,140.4,92.7,142L92.7,142z"/>
								</defs>
								<use xlink:href="#XMLID_20_"  style="overflow:visible;fill:#FAF7ED;"/>
								<clipPath id="XMLID_49_">
									<use xlink:href="#XMLID_20_"  style="overflow:visible;"/>
								</clipPath>
								<path class="st73" d="M74.4,141.5c-0.1,0.8,0.1,1.9-0.1,2.7c0.4-0.3,1-0.3,1.6-0.2c2.2,0.2,4.4,0.3,6.6,0.8
									c2,0.5,3.9,1.2,6,1.2c1.5,0,2.9-0.5,4.3-1c0.2-1.2-0.3-1.6-0.1-2.4C90.2,145,77.3,141.4,74.4,141.5z"/>
							</g>
							<g>
								<defs>
									<path id="XMLID_15_" d="M68.9,121.6c-0.2,1.7-0.5,3.7-0.9,4.6c-0.1-0.6-0.1-1.2-0.1-1.9c0,0.2-1.2,3.6-1.1,4.4
										c-0.2-0.3-0.5-0.6-0.9-0.7c-0.1,0.7-0.2,1.5-0.4,2.2c-0.3-0.2-0.6-0.4-0.9-0.6c-0.3,1.1,0.4,2.1,0.1,3.5
										c0-0.4-1.3-0.4-1.3-0.4s0.1,3.3-1.3,7.1c-0.1-1.6-8-3.8-8-3.8c-0.2-0.8,0.2-1.3,0.3-2.1c0.2-1.1,0.1-2.2,0-3.2
										c-0.2-1.6-0.4-3.2-0.8-4.7c-0.4,0.1-0.8,0.5-0.8,0.9c-0.4-1-0.2-2.3,0.4-3.2c-0.4,0-0.8,0.1-1.2,0.1c0.3-1,0.5-1.9,0.7-2.9
										c-0.2,0-0.4,0.1-0.6,0.3c0.3-1.2,0.8-2.3,1.4-3.3c0.2-0.4,0.6-0.8,1.1-1.2c1.1-1,2.5-1.5,4-1.3c0.6,0.2,1.1,0.3,1.6,0.5
										l6.2,2.5C68,118.5,69.1,120,68.9,121.6z"/>
								</defs>
								<use xlink:href="#XMLID_15_"  style="overflow:visible;fill:#FAF7ED;"/>
								<clipPath id="XMLID_50_">
									<use xlink:href="#XMLID_15_"  style="overflow:visible;"/>
								</clipPath>
								<path class="st74" d="M64,138c0.9,0.4,5.5,2.7,2.2,3c-1,0.1-2,0-2.9-0.1c-0.1,0-1.7,0-1.7,0c-0.5-0.7-1.7-1-2.5-1.4
									c-1.2-0.5-2.5-1.1-3.8-1.5c-1.3-0.4-2.2,0-2.3-1.7c-0.1-0.8,0.1-1.7,0.3-2.5c0.2-0.6,0.8-3,0.8-3.6
									C53.3,136.2,62.4,137.3,64,138z"/>
							</g>
							<g>
								<defs>
									<path id="XMLID_13_" d="M61.6,151.7c1.2,0.1,2.4,0.6,2.8,1.7c-3.4,1.4-6.5,2.4-6.5,2.4c-3.7,4.9-6.9,3.1-6.9,3.1
										c-3,0.1-3.1-2-3.1-2c-1.9-3.2,3.4-6.1,4.7-6.7c1.5,1.3,3.4,1.7,5.3,1.7C59.2,151.9,60.4,151.6,61.6,151.7z"/>
								</defs>
								<use xlink:href="#XMLID_13_"  style="overflow:visible;fill:#FAF7ED;"/>
								<clipPath id="XMLID_55_">
									<use xlink:href="#XMLID_13_"  style="overflow:visible;"/>
								</clipPath>
								<path class="st75" d="M48.8,155.8c-0.6,0.4-0.9,2.5,1.8,2.5c0.2-0.4,0.4-0.7,0.7-1c0,0.4,0,0.8,0.3,1
									c0.1,0.1,0.2,0.1,0.3,0.1c1.3,0.2,2.7,0.1,4-0.4c-1.3,0.9-2.7,1.9-4.3,1.7c-0.8-0.1-1.5-0.4-2.2-0.6
									c-0.3-0.1-0.6-0.1-0.8-0.3c-0.2-0.1-0.3-0.3-0.4-0.5c-0.5-0.6-1.1-1.6-0.8-2.4c0.1-0.3,0-1.5,0.3-1.4c0.2,0.1,0,1.9,0.6,1.9
									C48.3,156.5,48.7,155.7,48.8,155.8z"/>
							</g>
							<g>
								<defs>
									<path id="XMLID_12_" d="M54.5,130.6c0.1,1.1,0.2,2.2,0,3.2c-0.2,0.8-0.5,1.3-0.3,2.1c-1.2,2.2-4,4.7-6.4,6.7l0,0
										c-0.6-0.6-1.5-0.9-2.4-0.9c-0.7,0-1.4,0.2-2.1,0.1c-1.5-0.1-2.8-1.3-4.3-1.3l-0.1-0.1c3.4-4.1,7.6-9.7,7.6-9.7
										s-0.6-6.3,2.4-9.8c0.1-0.1,0.1-0.1,0.2-0.2c2.7-3.3,4.1-7,4.3-7.4c1.8,0.9,3.6,1.6,5.4,2.1c-1.4-0.1-2.9,0.3-4,1.3
										c-0.5,0.4-0.9,0.8-1.1,1.2c-0.6,1-1.1,2.1-1.4,3.3c0.2-0.2,0.4-0.3,0.6-0.3c-0.2,1-0.4,1.9-0.7,2.9c0.4,0,0.8-0.1,1.2-0.1
										c-0.6,0.9-0.8,2.1-0.4,3.2c0.1-0.4,0.4-0.8,0.8-0.9C54.1,127.4,54.3,129,54.5,130.6z"/>
								</defs>
								<use xlink:href="#XMLID_12_"  style="overflow:visible;fill:#CDA377;"/>
								<clipPath id="XMLID_56_">
									<use xlink:href="#XMLID_12_"  style="overflow:visible;"/>
								</clipPath>
								<path class="st76" d="M53.1,134.8c-0.3,0.8-4,6-6.5,8.6c0.3-0.4,0.8-0.7,1.2-1c1.8-1.1,7-6.2,7.2-6.6
									c0.4-0.9-0.9-8.7-0.9-8.3C54,131.6,53.3,134.3,53.1,134.8z"/>
								<path class="st76" d="M50.6,118.5c0.6-0.4,1.9-5,2-5.9c0,0.2,5.5,2.4,5.5,2.6C58.1,115.5,53.7,114.6,50.6,118.5z"/>
								<path class="st77" d="M39.8,138.8c1.9-1.8,4.5-4.9,6.5-7.1c1.5-1.7-1.1-2.7,1.5-10.3c-0.5,0.2-1.1,3.4-1.2,3.9
									c-0.3,1.4-0.6,2.8-0.5,4.3c0,0.5-0.2,1.1-0.4,1.6C44.9,132.7,38.8,139.7,39.8,138.8z"/>
							</g>
							<g>
								<defs>
									<path id="XMLID_11_" d="M47.8,142.5L47.8,142.5c-1.9,1.6-3.5,2.7-3.5,2.7c-2.2,5.4-6.1,5.1-6.1,5.1c-6.4-0.7-3-6-3-6
										c0.8-0.5,2.2-2.1,3.7-4l0.1,0.1c1.5,0,2.8,1.2,4.3,1.3c0.7,0,1.4-0.2,2.1-0.1C46.3,141.6,47.2,141.9,47.8,142.5z"/>
								</defs>
								<use xlink:href="#XMLID_11_"  style="overflow:visible;fill:#FAF7ED;"/>
								<clipPath id="XMLID_57_">
									<use xlink:href="#XMLID_11_"  style="overflow:visible;"/>
								</clipPath>
								<path class="st78" d="M34.3,147c0.1,0.5,0.3,1.2,0.9,1.3c0.1,0,0.2,0,0.2,0c0.1-0.1-0.1-0.3,0.4-1.3c-0.1,1-0.1,1.4,0.3,1.9
									c0.4,0.5,1.8,0.7,1.9,0.7c0.1-0.1-0.3-0.3,0.1-2.1c0,1.1,0.1,2.2,1,2.1c0.3,0,1.6-0.3,4.3-2.6c0.2-0.1,0,0.2-1,1.5
									c-1,1.4-3.6,2-4.2,1.9c-3.3-0.6-3.9-2-3.9-2.6L34.3,147z"/>
							</g>
						</g>
						<g>
							<path class="st71" d="M54.2,135.9c-0.2-0.8,0.2-1.3,0.3-2.1c0.2-1.1,0.1-2.2,0-3.2c-0.2-1.6-0.4-3.2-0.8-4.7
								c-0.4,0.1-0.8,0.5-0.8,0.9c-0.4-1-0.2-2.3,0.4-3.2c-0.4,0-0.8,0.1-1.2,0.1c0.3-1,0.5-1.9,0.7-2.9c-0.2,0-0.4,0.1-0.6,0.3
								c0.3-1.2,0.8-2.3,1.4-3.3c0.2-0.4,0.6-0.8,1.1-1.2c1.1-1,2.5-1.5,4-1.3c0.5,0,0.9,0.2,1.3,0.3l0.3,0.1l6.2,2.5
								c1.5,0.4,2.6,1.8,2.4,3.4c-0.2,1.7-0.5,3.7-0.9,4.6c-0.1-0.6-0.1-1.2-0.1-1.9c0,0.2-1.2,3.6-1.1,4.4
								c-0.2-0.3-0.5-0.6-0.9-0.7c-0.1,0.7-0.2,1.5-0.4,2.2c-0.3-0.2-0.6-0.4-0.9-0.6c-0.3,1.1,0.4,2.1,0.1,3.5
								c0-0.4-1.3-0.4-1.3-0.4s0.1,3.3-1.3,7.1c-1.3,3.5-3.9,7.5-9.3,10.4c0,0-0.1,0.1-0.3,0.1c-1.3,0.7-6.6,3.6-4.7,6.7
								c0,0,0.1,2.1,3.1,2c0,0,3.2,1.8,6.9-3.1c0,0,3.1-1,6.5-2.4c3.9-1.6,8-5.3,8.5-6.7c0,0,0.6-1.1,1.3-3.1
								c0.2-0.6,0.4-1.3,0.6-2.1c0.2-0.9,0.4-1.8,0.5-2.9"/>
							<path class="st71" d="M38.2,150.2c-0.6-1.1-0.5-2.4,0.2-3.4"/>
							<path class="st71" d="M35.7,149.6c-0.3-0.2-0.9-1.8,0.7-3.6"/>
							<path class="st71" d="M74.2,143.6C74.3,143.6,74.3,143.6,74.2,143.6c1.5-0.8,8.3,0,10,0.3c2.4,0.5,6.7,0.3,8.4,0.3"/>
							<path class="st71" d="M92.7,140.4l0,1.6l0,0l0,2.3l0,0.1c0,0,5,5.8,12.6,5.1c0,0,6.3-3.2,7.5-4.2c0,0,0.8-0.9,0.8-2.2"/>
							<path class="st71" d="M112.8,145.3c0,0,5.8,1.4,7-0.6c0,0,1.3-2.6-0.7-4.6l-3.9-2.8c-0.5-0.4-1.2-0.6-1.8-0.6
								c-0.4,0-0.8,0-1.1,0.2c0,0-2-3.5-9.3-4.9c-0.6-0.1-1.3-0.2-2-0.3"/>
							<path class="st71" d="M117.5,143.7c0.2,0.2,0.7,0.9,2.3,0.8"/>
							<path class="st71" d="M118.1,142.3c0.4,0.7,1.5,0.8,2.1,0.7"/>
							<path class="st71" d="M74.9,141.5c2.9-0.5,6.3-0.9,9.2-1.1c2.9-0.3,6,0.1,8.5,1.6"/>
							<path class="st71" d="M52.6,150.3C52.6,150.3,52.6,150.3,52.6,150.3c1.5,1.3,3.4,1.7,5.3,1.7c1.3,0,2.5-0.3,3.7-0.2
								c1.2,0.1,2.4,0.6,2.8,1.7c0,0,0,0,0,0"/>
							<path class="st71" d="M38.8,140.3c1.5,0,3,1.3,4.5,1.4c0.7,0,1.4-0.2,2.1-0.1c0.9,0,1.7,0.4,2.4,0.9"/>
							<path class="st71" d="M88,115.3c-3.7,0.1-6.1-0.2-7.6-1c0,0-8.4,4.4-20.1,1.5c-0.5-0.1-1.1-0.3-1.6-0.5
								c-1.7-0.5-3.5-1.2-5.4-2.1c-0.1,0.4-1.5,4.1-4.3,7.4c-0.1,0.1-0.1,0.1-0.2,0.2c-3,3.5-2.4,9.8-2.4,9.8s-4.2,5.6-7.6,9.7
								c-1.6,1.9-3,3.5-3.7,4c0,0-3.3,5.3,3,6c0,0,4,0.3,6.1-5.1c0,0,1.6-1.1,3.5-2.7c2.3-1.9,5.2-4.5,6.4-6.7c0,0,7.8,2.2,8,3.8
								c0,0,0,0.1,0,0.1"/>
							<path class="st71" d="M87.5,116.5c0-0.2,0.2-0.7,0.5-1.2c1.3-2.7,5.4-8.2,11.9-5.6c1.1,0.4,2.2,1.2,2.8,2.3
								c-0.9-0.6-2.1-0.8-3.2-0.7c5.8,1.7,9,6.6,7.6,9.4c-0.1-1-0.7-1.6-1.8-2.2c0.5,1.2,0.9,2.4,0.9,3.7c0,1.7-1.5,4.1-4.5,5.3
								c-1.1,0.4-2.3,0.7-3.8,0.7c-1.7,0-3.3-0.4-4.7-1.3c0.7,0.1,1.5,0.1,2.3,0c-0.7-0.1-4-0.9-4.4-4.8c-0.5-4.7,4.4-4.9,5-4.9
								c-0.8,0.3-1.2,1.3-0.9,2.1c0.4,1.6,2.5,2.2,3.8,1.7c0.7-0.2,1-1.2,0.7-1.8"/>
							<path class="st71" d="M101.7,127.5c0.4,0.7,0.7,1.4,1,2.2c0.2,0.8,0.4,1.6,0.2,2.3"/>
						</g>
					</g>
				</g>
			</g>
			<path d="M60.1,97.7"/>
		</g>
		<g>
			<path class="st79" d="M62.3,105.5c0.9-1.5,2.3-4.5,2.2-4.8c-1.7-4-5.6-1.1-5.9-1C59.1,100.7,64,101.2,62.3,105.5z"/>
			<path class="st80" d="M67.3,100.3c0.2,0.1,0.3,0.2,0.4,0.4c-0.1-0.5-0.1-1-0.1-1.6c0.1,0.1,0.1,0.2,0.2,0.4
				c0.3-0.8,0.7-1.5,1.1-2.2l-0.3,1.9c0.2-0.2,0.5-0.4,0.7-0.5c-0.2,0.3-0.4,0.7-0.7,1.2c0.2-0.1,0.2,0,0.4-0.1
				c-0.7,0.7-1.2,1.7-1.4,2.6c0,0.1-0.1,0.1-0.2,0L67.3,100.3z"/>
			<path class="st80" d="M56,97.6c0.2,0.1,0.8,1.6,2,1.9c0,0-0.7-1.1-0.7-1.3c0,0.1,0,0.3,0,0.4C57.3,98.6,56.3,97.8,56,97.6z"/>
			<path class="st80" d="M78.8,102.1c-0.1,0-0.2,0.2-0.3,0.2c0.5-0.1,1.2-0.3,1.7-0.5c-0.6,0.4-1.2,1-2,0.9c-0.2,0-0.6-0.2-0.5-0.2
				C77.8,102.2,78.5,102.3,78.8,102.1z"/>
			<path class="st80" d="M59.6,103.8c0.2-0.1,0.3-0.2,0.5-0.3c-0.4,0-1.4-0.3-2.1-1.2c0.5,0.4,1.3,0.8,1.9,0.8
				c-0.1-0.1-0.4-0.3-0.5-0.3c0.7,0.2,3.2,0.4,3.6,0.2C62.2,103.8,59.7,103.8,59.6,103.8z"/>
			<path class="st80" d="M74.2,104.8c-0.2,0-0.4-0.1-0.6-0.2c0.7,0.1,1.9,0.4,3.7-0.1c-0.4,0.4-0.9,0.7-1.4,0.8c0.1,0,0.3,0,0.4,0
				c-1.9,0.8-3.7-0.6-3.8-0.7C72.2,104.4,73.9,104.9,74.2,104.8z"/>
		</g>
		<path class="st79" d="M72.1,107c-0.3-1.8-0.7-5.1-0.6-5.4c0.5-1.6,4.4-2.5,5.6,0.8C76.3,103.1,72.2,102.7,72.1,107z"/>
		<g>
			<path class="st81" d="M61.6,107c0,0,2.1-4.7,2.1-4.7c0,0,0.4-0.4,0.4-0.4C64.1,101.9,61.8,107.1,61.6,107z"/>
		</g>
		<path class="st82" d="M70.8,97.2c0.1-0.2,0.8-1.6,1-1.9c0,0.1,0.1,0.3,0.1,0.4c0.3-0.7,0.8-1.7,1.5-2.4c-0.1,0.1-0.2,1-0.2,1
			c0.1-0.4,0.5-0.8,0.9-1c0.4-0.2,0.9-0.3,1.3-0.4c-0.3,0.2-0.6,0.4-0.8,0.7c0.5,0,1,0,1.5,0.2c-0.4,0-0.8,0.1-1.1,0.4
			c0.2,0.1,0.5,0.1,0.8,0.1c-0.3,0.2-0.6,0.4-0.8,0.8C73.5,97.8,71.6,97.4,70.8,97.2z"/>
		<g>
			<defs>
				<path id="XMLID_8_" d="M56.7,87.3c0.2,0.1,0.4,0.2,0.6,0.3c-0.2-1-0.3-2.1-0.3-3.2c0.1,0.2,0.2,0.5,0.3,0.7
					c-0.1-0.9-0.2-2.4,1.3-4.5c3.1,3.2,4.6,6.2,4.3,6.6c-0.6,0.3-1.7,0.8-1.9,1c0-0.4-0.1-0.7-0.4-1.1c0,0.3,0,0.6,0.1,0.9
					c-0.2-0.3-0.5-0.5-0.8-0.6c0.3,0.2,0.5,0.6,0.4,1c0,0.1-1.2,0.3-2.5,1.1C57.5,89.7,56.9,87.4,56.7,87.3z"/>
			</defs>
			<use xlink:href="#XMLID_8_"  style="overflow:visible;fill:#FAF7ED;"/>
			<clipPath id="XMLID_58_">
				<use xlink:href="#XMLID_8_"  style="overflow:visible;"/>
			</clipPath>
			<path class="st83" d="M59,86.5c0.6,0.4,0.8,0.4,1.3,0.9c0.3-0.4,0.4-0.9,0.6-1.3c0,0.3,0.1,0.6,0.2,1c0.2-0.3,0.4-0.5,0.5-0.8
				c0,0.6,0,1.8,0,1.9c-0.1,0.1-0.2,0.2-0.3,0.2c-0.2,0.1-0.4,0.2-0.7,0.3c-0.4,0.1-0.8,0.1-1.2,0.4c-0.1,0.1-0.2,0.2-0.3,0.2
				C58.9,89.2,60.1,89.4,59,86.5z"/>
		</g>
		<g>
			<defs>
				<path id="XMLID_7_" d="M76.3,88.3c0.7-1.5,1.9-2.2,2.9-3c-0.2,0.5-0.3,0.6-0.4,0.9c0.6-0.6,1.9-1.7,3.8-2.2
					c0.6,1.2,0.4,2.7,0.2,3.5c-0.2-0.2-0.3-0.4-0.5-0.6c0.4,0.5,0.2,0.9,0.2,1.5c-0.2-0.2-0.3-0.4-0.5-0.6c0.9,2-0.8,5.2-1.1,5.4
					c-0.4-0.7-1.5-1.9-2-2.1c0.4-0.4,0.7-0.1,0.9-0.6c-0.2,0.3-0.9,0-1.3,0.2c0.3-0.3,0.6-0.6,0.6-0.8c-0.2,0.3-0.7,0.4-1,0.4
					c0.1-0.2,0.2-0.4,0.3-0.6c-0.2,0.2-0.7,0.3-0.7,0.3C77.1,88.8,76.3,88.3,76.3,88.3z"/>
			</defs>
			<use xlink:href="#XMLID_7_"  style="overflow:visible;fill:#FAF7ED;"/>
			<clipPath id="XMLID_59_">
				<use xlink:href="#XMLID_7_"  style="overflow:visible;"/>
			</clipPath>
			<path class="st84" d="M79.1,88.4c0,0.4-0.1,0.7-0.2,1.1c0.8,0,1.2,0,1.9-0.2c-0.3,0.3-0.8,0.6-1.1,1c0.4,0,0.9,0,1.3-0.1
				c-0.7,0.6-0.9,0.9-1.7,1.3c-0.2-0.3-1.8-0.6-1.9-0.9c-0.4,0.1,0-0.8-0.3-0.5C76.9,90,78.7,89.1,79.1,88.4z"/>
		</g>
		<path class="st82" d="M66,96.9c0.1-0.1,1.2-0.5,1.2-2.4c0,0.2-0.2,0.4-0.3,0.5c-0.1-0.2-0.7-1.9-0.8-2.2c0,0.2,0,0.9,0,1.1
			c0-0.3-1.7-1.9-2.3-2.2c0.1,0.2,0.2,0.4,0.4,0.6c-0.3-0.2-0.5-0.4-1.2-0.6c0.7,0.7,1,1.4,1.1,2.3c-0.2-0.2-0.4-0.4-0.6-0.6
			c0.1,0.7,0.8,1.9,1.5,2.5c0,0-0.8-0.5-0.8-0.5C65.3,96.8,65.9,97,66,96.9z"/>
		<g>
			<path class="st81" d="M72.2,108.3c-0.3-0.8-0.8-5.4-0.7-5.5c0,0,0.2,0.5,0.2,0.5C71.7,103.2,72.2,108.3,72.2,108.3z"/>
		</g>
	</g>
	<path class="st85" d="M61.3,98.4c-0.5-0.2-1.1-0.1-1.6,0.3c-0.5,0.3-0.9,0.8-1.2,1.3c0.7-0.4,1.4-0.7,2.1-0.7
		c0.4,0,0.7,0.1,1.1,0.3c0.2,0.1,0.6,0.6,0.8,0.4C62.8,99.6,61.6,98.5,61.3,98.4z"/>
	<path class="st85" d="M75.4,100.6c0.5,0,0.9,0.1,1.3,0.5c0.3,0.3,0.6,0.8,0.7,1.3c0,0.1,0.1,0.3,0,0.4c-0.1-0.2-0.2-0.3-0.3-0.5
		c-0.3-0.4-0.7-0.6-1.2-0.7c-0.4-0.1-0.9-0.2-1.4-0.2c-0.2,0-0.4,0-0.6,0.1C74.4,101.1,74.9,100.7,75.4,100.6z"/>
	<g>
		<path class="st86" d="M72.3,104c0.2-0.3,0.4-0.6,0.6-1.1c0.1-0.4,0.4-0.7,0.6-0.9c0.7-0.6,2.1-1.4,3.8,0.8c0,0,0,0.1,0,0.2
			c-0.2,0.5-1.1,2.6-4.1,1.3c0,0-0.4,0-1,0C72.2,104.2,72.2,104.1,72.3,104z"/>
		<path d="M72.8,102.9c0.2-0.9,0.8-1.4,1-2.1c0,0.2,0,0.3,0,0.5c0.3-0.3,0.7-0.6,1.1-0.7c-0.3,0.1-0.3,0.3-0.5,0.5
			c0-0.1,0.1-0.1,0.1-0.1c0.6,0,1.2-0.1,1.8-0.1c-0.3,0-0.5,0.1-0.6,0.2c0.6,0.1,1.1,0.2,1.7,0.3c-0.3,0.1-0.6,0.1-0.9,0.2
			c0.2,0.2,1,0.2,1.3,0.3c-0.1,0-0.3,0-0.4,0.1c-0.2,0-0.3,0-0.5,0c0.3,0.2,0.6,0.3,0.9,0.3c-0.2,0-0.4,0-0.6,0.1c0,0-0.1,0-0.1,0
			c-0.1,0-0.2-0.2-0.2-0.3c-0.1-0.2-0.4-0.2-0.5-0.3c-0.3-0.4-0.9-0.6-1.4-0.6c-0.5,0-1,0.3-1.4,0.7"/>
		<circle class="st87" cx="74.9" cy="102.9" r="1.4"/>
		<circle cx="74.9" cy="103" r="0.8"/>
		<circle class="st0" cx="74.3" cy="102.9" r="0.3"/>
	</g>
	<g>
		<path class="st86" d="M63,102.9c0.1,0.1,0.2,0,0.1-0.1c-0.1-0.8-0.5-3.1-1.7-3.4c0,0-1.7-0.4-3.1,0.5c0,0,0,0-0.1,0
			c0,0,0.5,1.2,0.7,1.7c0,0,0.6,1.6,3.3,1.1C62.3,102.7,62.7,102.7,63,102.9z"/>
		<circle class="st87" cx="60.7" cy="100.9" r="1.4"/>
		<path d="M62.7,99.2c-0.1,0.2-0.3,0.5-0.3,0.5c-0.2-0.4-0.4-0.6-0.6-0.9c0.1,0.4,0.1,0.4,0.1,0.6c-0.4-0.3-0.5-0.4-0.9-0.6
			c0.2,0.3,0.2,0.3,0.3,0.4c-0.6-0.1-1.1-0.3-1.7-0.4c0.3,0.1,0.5,0.3,0.8,0.4c-0.7,0-0.9,0.1-1.4-0.2c0.1,0.2,0.2,0.3,0.4,0.5
			c-0.2,0-0.8-0.1-1.1-0.2c0.3,0.1,0.4,0.5,1.2,0.3c0.2,0,0.3-0.1,0.5-0.1c0.2-0.1,0.5-0.1,0.8-0.1c0.1,0,0.2,0,0.2,0
			c0.1,0,0.2,0.1,0.4,0.1c0.3,0.1,0.6,0.3,0.8,0.5c0.2,0.2,0.5,1,0.6,1.1C62.6,99.9,62.7,100.1,62.7,99.2z"/>
		<circle cx="60.8" cy="100.9" r="0.8"/>
		<circle class="st0" cx="60.2" cy="100.8" r="0.3"/>
	</g>
	<g>
		<path class="st71" d="M51,159c-0.2-0.9,0.3-2.2,1.1-2.6"/>
		<path class="st71" d="M48.1,157.6c-0.1-1.4,1.3-2.6,1.8-2.5"/>
	</g>
	<path class="st82" d="M83.1,109.1c0.7-1.2,0.7-2.2,0.8-3.1c-0.1,0.2-0.7,0.9-0.9,1c0.5-1.1,0.5-2.1,0.4-2.8c-0.1,0.1-0.7,1-0.8,1
		c0.1-0.6,0.4-2,0.2-2.6c-0.4,0.4-0.7,0.8-1,1.2c-0.2-0.7-0.6-1.4-1-2.1c-1.3,3-8.5,5.4-8.1,10.6c0.1,0.9-1.6-3.3-5.8-4
		c-5-0.9-7.5,3.6-7.1,2.3c1.4-4.6-4.4-11.9-5.7-12.2c0.2,0.4,0,1.8-0.2,2.1c-0.2-0.2-0.7-0.6-0.7-0.8c-0.1,0.3-0.4,2-0.5,2.4
		c0-0.2-0.7-1.3-0.8-1.5c-0.1-0.2-0.5,1.9-0.5,2.5c-0.4-0.3-0.7-1-0.8-1.5c-0.1,0.4-0.3,1.1-0.3,2.3c-0.4-0.1-0.8-0.3-1.2-0.6
		c0.1,0.4,1.9,7.6,6.8,13c2.3,2.5,5.3,4.6,9.2,5.3c0,0,1.2,0.1,3.1-0.3c3.9-0.7,10.7-3.4,15.9-12.6l-0.9,0.2c0,0,0,0,0,0
		C83.2,109,83.1,109.1,83.1,109.1z"/>
	<path class="st88" d="M61.1,116.4c-0.1,0.1,1.9,2.5,4.5,2.8c1.4,0.1,3.1-0.4,5-1.7c-0.7-0.8-2.5-1.6-2.9-2.5c0-0.1-0.1-0.2-0.2-0.2
		c-0.1,0-0.1,0-0.2-0.1c-0.4,0-0.8-0.1-1.2-0.1c-0.4,0-1-0.2-1.3,0.1C62.9,116.4,61.2,116.3,61.1,116.4z"/>
	<path id="XMLID_6_" class="st71" d="M80.3,114.2c1.3-1.5,2.6-3.2,3.8-5.4l-0.9,0.2c1.1-1.8,1.7-3.4,2.8-5.2c-0.6-0.1-1-0.5-1.1-1
		c0.5,0.1,0.9,0.3,1.6,0.1c-0.8-0.2-3.5-7.2-3.4-7.8c0,0,2.1-11.3,0.8-12.3c-0.9-0.6-6.4,1.4-9.6,4.5c0,0-4.2-1.6-9.3-1.4
		c0,0-4.3-7.1-6.7-7.5c-0.5-0.1-3.3,3.7-3.9,13c-0.8,1.2-4.5,6.7-6.4,7.3c0.4,0.2,1.2,0.4,1.7,0.1c0,0.8-0.8,1.3-1.7,1.3
		c1.1,2.8,1.7,2.9,2.2,3.7l-0.9-0.4c0,0,1.7,7.5,6.8,13"/>
	<path class="st89" d="M59.2,112.1c0.3,0.5-0.6,4.3,3.8,4.5c0.2,0,0.5,0,0.8,0c0.4,0,1.9-0.2,2.2-0.1c4.4,1.5,6.9,0.8,7-3"/>
	<path class="st89" d="M60.8,116.1c3.8,5.2,8.1,2.7,10.1,1"/>
	<path class="st90" d="M59.4,111.7c0.1,0.1-0.3,0.7-0.8,0.9"/>
	<path class="st90" d="M72.7,113.4c0.2,0.3,0.4,0.6,1,0.5"/>
	<path d="M62.8,116.7c0,0,2.4,1.7,5.8,0.6c0,0-1.4-0.1-2.9-0.7C65.7,116.5,63.7,116.8,62.8,116.7z"/>
	<g>
		<path class="st91" d="M71.9,113.5c0,0,3.6,0.7,4,3.6"/>
		<path class="st91" d="M61.5,113.5c0,0-3.4-0.1-5,2"/>
		<path class="st91" d="M60.8,112.7c0,0-1.9-0.9-3.6,0.1"/>
		<path class="st91" d="M72.2,112.7c0,0,4.9-1.4,6.1,0.3"/>
		<path class="st88" d="M65.4,110.3c0-0.1-0.2-0.4-0.3-0.4c0.4,0.1,0.8,0.2,1.1,0.4c0-0.2-0.1-0.4-0.1-0.6c0.1,0.2,0.2,0.3,0.4,0.5
			c0,0,0.1,0.1,0.1,0.1c0,0,0.1,0,0.1,0c0.6,0,1.2-0.4,1.8-0.2c-0.3,0-0.6,0.1-0.8,0.2c0.3,0.1,0.6,0,0.9,0c0.2,0,0.5,0.1,0.7,0.2
			c-0.5-0.2-1,0.1-1.5,0.1c-0.1,0-0.9,0.1-1,0.1c-0.7,0.1-1.1-0.2-1.8-0.4c-0.2-0.1-0.4-0.1-0.7-0.1c0.2-0.1,0.4-0.1,0.5-0.1
			C65,110.3,65.3,110.4,65.4,110.3z"/>
		<circle cx="62.5" cy="114.2" r="0.1"/>
		<circle cx="69.7" cy="115.1" r="0.1"/>
		<circle cx="70.1" cy="114.5" r="0.1"/>
		<circle cx="62.4" cy="114.9" r="0.1"/>
		<path class="st91" d="M61.2,110.9c0,0-4.6-2.8-7.1,2"/>
		<path class="st91" d="M71.8,111.7c0,0,4.9-2.5,6.2-1.2"/>
	</g>
	<path class="st92" d="M59.5,118.9c0.6,0.5,1.3,1,1.9,1.5c-0.1-0.2-0.2-0.3-0.3-0.5c1,0.9,2.5,1.6,3.8,1.9c-0.2,0-0.6-0.3-0.8-0.5
		c0.7,0.2,1.4,0.3,2.1,0.2"/>
	<path d="M65.2,115.5c-1.3-0.9-3.5-2.8-1.5-4.7c0.3-0.3,0.9-0.4,1.3-0.3c0.2,0,0.3,0.1,0.6,0.1c0.5,0.1,1.3,0.2,1.8,0.1
		c0.9-0.1,2,0.2,2.2,1c0.3,1.1-0.3,3.4-2.8,4.1C66.4,116,65.6,115.7,65.2,115.5z"/>
	<path class="st0" d="M68.4,111.5C68.4,111.5,68.4,111.5,68.4,111.5c0.2,0.1,0.2,0.4,0,0.5c-0.4,0.1-1.5,0-1.7-0.1
		c-1.5-0.2-2.5,0.2-2.6-0.4C63.9,110.8,65.6,111.6,68.4,111.5z"/>
	<path class="st93" d="M53.6,121.9c0.3-0.4,0.7-1.1,1.2-1.2c-0.3,0.7-0.6,1.9-0.8,2.7c0.2-0.3,0.8-1.5,1.1-1.8
		c-0.5,0.5-0.7,4.3-0.6,5c0.3-1.5,0.9-3,1.6-4.3c-0.4,0.3-0.9,0.8-1.2,1.5c0.2-0.7,0.7-2.7,0.9-3.3c-0.3,0.1-0.6,0.3-0.8,0.4
		c0.1-0.7,0.2-1.4,0.3-2.1C55.3,118.8,53.8,120.8,53.6,121.9z"/>
	<path class="st93" d="M65.2,127.5c0.1-0.4,0.1-0.8,0.2-1.3c-0.7,1.2-1.3,2.6-1.6,4c-0.1-0.5-0.1-1.5-0.2-2
		c-0.1,0.4-0.3,1.1-0.3,1.5c-0.2-1.1,0-2.2,0.6-3.1c0.2,0.3,0.1,1.2,0,1.5c0.1-0.5,0.7-1.5,1-1.9c0.3-0.5,0.6-1,0.9-1.5
		c0.2,0.2,0,1.1-0.1,1.4c0.1-0.2,0.4-0.9,0.5-1C66.4,125.7,65.5,126.9,65.2,127.5z"/>
	<path class="st93" d="M58.3,129.2c0-0.6,0.2-1.2,0.4-1.7c0.3,1.5,0.7,2.4,0.9,3.8c0.2-1.2,0.6-1.7,0.8-1.8c0,0.3-0.2,0.9-0.2,1.2
		c1-1.2,2-3,2.4-4.5c-0.8,0.8-1.4,2-2,3c-0.2-0.4-0.3-1.2-0.1-1.7c-0.4,0.4-0.7,0.8-0.9,1.4c-0.2-1.1-0.3-2.3-0.3-3.5
		c-0.2,0.4-0.5,0.9-0.7,1.4c-0.5-1.8-0.5-2.7-0.5-3.8C57.2,125.7,58.3,128.8,58.3,129.2z"/>
	<path class="st93" d="M60.4,124.4c0.2-0.3,0.4-0.6,0.6-0.8c0.1,0.5,0.1,1,0.1,1.4c0.4-0.1,0.7-0.3,1-0.6c-0.1,0.4-0.2,0.8-0.4,1.2
		c1-0.6,1.9-1.5,2.4-2.5c-0.4,0.4-1.6,0.8-1.6,0.8c0,0,0-0.4,0.1-0.8c-0.3,0.2-1,0.8-1.2,1.1c-0.1-0.6-0.2-1.1-0.3-1.7
		c0,0-0.5,0.8-0.6,0.9c-0.2-0.2-0.5-0.6-0.5-0.6C60,123.3,60.3,124,60.4,124.4z"/>
	<path class="st93" d="M55.9,132.1c-0.1-0.6-0.1-0.9,0-1.2c0.1,0,1.1,1.5,1.6,2.3c-0.1-0.5-0.2-1.1,0.1-1.6c0.4,0.5,0.6,1,0.7,1.6
		c0.3-0.9,0.5-1.7,0.4-2.7c-0.1,0.4-0.3,0.8-0.6,1.1c-0.1-0.3-0.4-1.1-0.5-1.1c-0.1,0-0.4,0.7-0.5,0.9c-0.2-0.6-0.4-1.3-0.5-2
		c-0.2,0.3-0.4,0.5-0.6,1c-0.1-0.4-0.4-0.4-0.4-1.4C55.5,129.5,55.1,131.1,55.9,132.1z"/>
	<path class="st93" d="M60.8,133.8c0.2-0.4,0.3-0.7,0.6-1c-0.5,0.5-1,1.1-1.5,1.6c0-0.3,1.3-2.1,1.8-2.8c0,0.3-0.1,0.5-0.1,0.8
		c0.4-0.4,0.6-0.8,0.9-1.3c0,0.1-0.2,0.7-0.2,0.9c0.3-0.3,0.6-0.7,1.2-1.3C63.3,131.1,62.6,132.5,60.8,133.8z"/>
	<path class="st85" d="M95.6,111c0.2-0.2,1-0.7,1-0.7c-0.5-0.1-2-0.3-2.1-0.2c1.5-0.6,3.5-0.5,4.2-0.2c-0.5,0.1-1.6,0.5-1.9,0.9
		c5.2,1.8,7.4,4.3,8.9,6.3c-0.5-0.2-1-0.5-1.5-0.7c3,7.1,0.7,7.5,0,8.1c0.7-1,2.8-2.7-1.4-8.9c0.3,0,0.9,0.3,1.3,0.4
		C103.4,114.9,100,112.3,95.6,111z"/>
</g>
</svg>
