<?xml version="1.0" encoding="utf-8"?>
<!-- Generator: Adobe Illustrator 23.0.1, SVG Export Plug-In . SVG Version: 6.00 Build 0)  -->
<svg version="1.1" id="Layer_1" xmlns="http://www.w3.org/2000/svg" xmlns:xlink="http://www.w3.org/1999/xlink" x="0px" y="0px"
	 viewBox="0 0 84.7 97.3" style="enable-background:new 0 0 84.7 97.3;" xml:space="preserve">
<style type="text/css">
	.st0{fill:none;stroke:#A3A3A3;stroke-width:0.2063;stroke-miterlimit:10;}
	.st1{fill:#161616;}
	.st2{fill:#CDA577;}
	.st3{clip-path:url(#XMLID_2_);fill:#AD8C6D;}
	.st4{clip-path:url(#XMLID_3_);fill:#E2D4AC;}
	.st5{clip-path:url(#XMLID_4_);fill:#E2D4AC;}
	.st6{clip-path:url(#XMLID_6_);fill:#E2D4AC;}
	.st7{fill:#AD8C6D;}
	.st8{fill:none;stroke:#986139;stroke-width:0.2063;stroke-miterlimit:10;}
	.st9{fill:none;stroke:#000000;stroke-width:0.2063;stroke-miterlimit:10;}
	.st10{fill:none;}
	.st11{opacity:0.25;fill:none;stroke:#161616;stroke-width:0.2063;stroke-miterlimit:10;}
	.st12{opacity:0.15;fill:#161616;}
	.st13{fill:#FBF9F0;}
	.st14{fill:#E2D4AC;}
	.st15{opacity:0.46;fill:#855C37;}
	.st16{fill:#232323;stroke:#000000;stroke-width:0.215;stroke-miterlimit:10;}
	.st17{fill:#503211;stroke:#000000;stroke-width:0.215;stroke-miterlimit:10;}
	.st18{fill:#FFFFFF;}
	.st19{fill:#232323;stroke:#000000;stroke-width:0.2435;stroke-miterlimit:10;}
	.st20{fill:#503211;stroke:#000000;stroke-width:0.2435;stroke-miterlimit:10;}
	.st21{fill:#996C47;}
	.st22{fill:#E7BA82;}
	.st23{fill:#682241;}
	.st24{fill:#986139;}
</style>
<g>
	<g>
		<path class="st0" d="M79,29.6c0.7-0.2,1.4-0.5,2.1-0.5c0.7,0,1.5,0.2,1.9,0.7"/>
		<path class="st0" d="M79.1,30.5c0.9-0.5,2.1-0.4,2.9,0.3"/>
		<circle class="st1" cx="79.4" cy="31.5" r="0.1"/>
		<circle class="st1" cx="78.8" cy="31.1" r="0.1"/>
		<g>
			<path class="st2" d="M65.2,11.4c3,0.2,6,1.2,8.6,3.3c1,0.8,2,1.7,2.9,2.9c2.7,3.4,1.7,7.4,5.2,9.9c0.3,0.2,0.6,0.4,0.9,0.7
				c-0.7-0.3-1.4-0.4-2.2-0.3c0,0,0,0,0,0c-3.5,0.4-7.8,3.8-9.6,3.9c-5.1,0.3-9.7-2.9-14.8-3.4c-2.6-0.2-5.3,0.2-7.6-1
				c0.3,1,0.9,2,1.6,2.8c-0.8,0.2-1.8,0.1-2.5-0.5c0.5,2.3,1.5,3.2,2,5.6c-0.8-0.5-1-0.4-2.5-1c0.2,0.1,2.7,1.9,3.1,3.9
				c0.3,1.3-1.5,3.1-1.4,3.2l-3-5c-1-2.4-3.7-3-3.7-3s1.7-1.8,2.8-2.1c-1,0.1-2.4-1-3-2.5c1.4,1.2,3.1,0.2,4-1.4
				c0.8-1.3,1.8-4.4,1.6-6c-0.5-5.7,0.2-11.1,3.8-15.5c2.6,1.8,4.9,3.7,6.3,6.4C60,11.5,62.6,11.2,65.2,11.4z"/>
			<g>
				<defs>
					<path id="XMLID_573_" d="M18,85.7c-0.5-1.9-2.3-3.1-2.7-3.3c-1.6-0.8-3.9-0.3-4.2,1.4C10.3,88.6,16,86.7,18,85.7z M65.9,73.1
						c0.3,4.2,1.2,9.3,5.3,16.8c0.2,0.4,0.4,0.7,0.6,1.1c-1-1.2-2.8-1.2-4-1.4c-1.8-0.3-3.2-1.7-4.6-3c-1.3-1.3-2.8-2.7-4.7-2.8
						l-0.2,0c-0.3-0.9-0.6-1.9-0.9-2.8c-0.6-2.1-1.1-4.3-1.7-6.5l0,0c-0.8,1.5-2.3,2.4-3.7,3.2c-1.8,1.1-3.7,2.2-5.5,3.2
						c-3.9,3.7-9,6.1-10.7,6.2c3.9-0.3,6.6,0,8.5,0.5c3.5,1,4.3,3.1,4.2,4.8c0,0.4-0.1,0.8-0.3,1.2c-0.4,1-1,1.8-1.4,1.8
						c-8.2,0.4-19.6-0.9-26.3-0.4c-0.7,0-1.6,0-2-0.6c-0.3-0.4-0.1-1,0.1-1.5c-1.4,0.7-2.9,1.1-4.4,1.3c-2.6,0.4-5.3,0.1-7.8-0.6
						C-1.9,91.5-0.1,80,1.3,77.6c0.2,1.1,0.5,2.2,0.9,3.2c-0.5-1.3,0.2-2.7,1-3.8c1.3-1.8,3-3.2,4.9-4.1c2-0.9,4.2-1.2,6.4-0.8
						c-1.1,0.1-2.1,0.7-2.8,1.5c0.4-0.2,4.6-0.6,7.6,0.8c0.5-3.7-0.2-8.9,7.8-15.5c5-4.1,19.6-12.9,19.1-21.1c0-0.6-0.2-1.1-0.3-1.5
						L49,23.1c1,2.7,27.5-1.6,28.7,1C83.8,38,61.6,55.2,63.1,56.6c-1.3-1.2,4.3,6.9,2.7,11.9C65.8,69.9,65.8,71.4,65.9,73.1z"/>
				</defs>
				<use xlink:href="#XMLID_573_"  style="overflow:visible;fill:#CDA577;"/>
				<clipPath id="XMLID_2_">
					<use xlink:href="#XMLID_573_"  style="overflow:visible;"/>
				</clipPath>
				<path class="st3" d="M39.6,95c1.7,0,7.9,0.4,8.8-0.9c0.4,0.7,0,1.5-0.6,2c-0.6,0.4-1.4,0.5-2.2,0.6c-1.1,0.1-2.3,0.2-3.4,0.3
					c-7.5,0.5-14.9,0.2-22.4,0c-0.5-0.7-3.7,2.9-1.3-3.4C18.9,92.5,18.5,94.9,39.6,95z"/>
				<path class="st3" d="M0.1,84.4c0.4,3.3,1,6.8,3.5,9c2.1,1.8,5,2.1,7.7,2.1c1,0,6.3-0.9,6.9-1.9C18.9,92.6,3.1,98.3,0.1,84.4z"/>
				<path class="st3" d="M17.9,85.6c-1.2,0.2-2.2,0.1-3.4-0.1c-1-0.1-3.2-2.1-3.3-1.1C10.4,90.2,18.2,87,17.9,85.6z"/>
			</g>
			<g id="XMLID_50_">
				<g>
					<g>
						<defs>
							<path id="XMLID_25_" d="M73.1,93.3c1.1,1.8,0.4,2.9-1.1,3.4c-2.6,1-7.8,0.2-9.2-1.5c-0.5-0.6-2.5-5.1-4.5-11.4l0.2,0
								c1.8,0.1,3.3,1.5,4.7,2.8c1.3,1.3,2.7,2.7,4.6,3c1.2,0.2,3,0.2,4,1.4l0,0C72.2,91.7,72.6,92.5,73.1,93.3z"/>
						</defs>
						<use xlink:href="#XMLID_25_"  style="overflow:visible;fill:#FBF9F0;"/>
						<clipPath id="XMLID_3_">
							<use xlink:href="#XMLID_25_"  style="overflow:visible;"/>
						</clipPath>
						<path class="st4" d="M73.1,96c-1.6,3.3-3.1,1.6-4.3,1.6c-1.3,0-3.1-0.3-4.3-0.8c-0.3-0.1-3.3-1.4-2.4-2
							c0.2-0.1,1.9,0.9,5.7,1.6C69.3,96.7,70.9,97,73.1,96z"/>
					</g>
					<g>
						<defs>
							<path id="XMLID_26_" d="M57.1,14.6c-1.1,0.5-1.2,0.6-1.5,0.8c-0.1-1-0.3-1.3-0.7-1.9c-0.3,0.6-0.3,1.3-0.1,1.9
								c-0.2-0.4-0.8-0.7-1.3-0.7c0.5,0.4,0.8,1.1,0.7,1.7c-0.3-0.4-0.6-0.8-0.9-1.2c-0.1,0.6-0.1,1.2,0,1.9c0,0,0,0-0.1,0
								c-0.6,0.5-2.4,2.3-2.4,2.3s-2.2-5.2,1.4-10C55.6,11.2,55.5,12.4,57.1,14.6z"/>
						</defs>
						<use xlink:href="#XMLID_26_"  style="overflow:visible;fill:#FBF9F0;"/>
						<clipPath id="XMLID_4_">
							<use xlink:href="#XMLID_26_"  style="overflow:visible;"/>
						</clipPath>
						<path class="st5" d="M54,16.7c-0.2,0.3-0.6,0.2-0.7,0.6c-1.4-0.6-1.2-3.5-1.2-3.5c0.4,0.2,0.7,0.3,1,0.6
							c0.1-0.6,0.2-1.1,0-1.7c0.3,0.3,0.6,0.6,0.9,0.9c0-0.4,0-0.8-0.1-1.3c2.1,0.7,2.2,2.9,1.9,3.2c0,0-0.1,0.1-0.2,0.1
							c0,0,0,0-0.1,0c-0.1-0.2-0.2-0.4-0.2-0.6c0-0.3-0.1-0.4-0.2-0.6c0-0.1-0.1-0.2-0.1-0.3c0,0-0.2-0.2-0.2-0.3
							c-0.1,0.6-0.2,1.2-0.3,1.8c-0.2-0.1-0.3-0.4-0.5-0.6c-0.2-0.2-0.1-0.2-0.3,0c0.6,0.4,0.4,0.9,0.3,1.6
							C54.1,16.5,54,16.7,54,16.7z"/>
					</g>
					<g>
						<defs>
							<path id="XMLID_62_" d="M69.8,66.2c-0.9,1.6-2.1,4.8-3.9,6.8h-0.1c-0.1-1.6-0.1-3.1-0.1-4.6c1.7-5-1.8-10.9-6.6-12.2
								c2.1-0.2,2.6-0.8,3.9,0.4c-1.5-1.4-4.9-4.9-5.5-5.5c1.1,0.3,1.3,0.1,2.4,0.3c-0.7-0.2-0.5-5.6-3.1-7.1
								c-9.3-5.3-9.4-9.9-9.7-10.1c1.5,0.6,1.8,0.5,2.5,1c-1.4-2-1.5-3.2-2-5.6c0.7,0.5,1.7,0.7,2.5,0.5c-0.7-0.8-1.3-1.8-1.6-2.8
								c2.3,1.2,5,0.8,7.6,1c5.1,0.5,12.6,5.6,14.8,3.4c5.4-5.7,8.8-4,8.8-4c0.8-0.1,2.4,0.1,3.1,0.4c0.3,0.3,0.4,0.7,0.5,1.1
								c0.5,2.2-0.2,4.5-1.5,6.5c-0.4,0.6-0.9,1.3-1.4,1.8c-2,2.3-4.6,4-6.6,6.2c-0.3,0.3-0.6,0.6-0.7,1c-0.2,0.5-0.2,2,0,2.5
								l0.7-1.2c1,4.1,2.3,8.4-0.6,12.1c0.7-0.2,1.3-0.6,1.8-1c-0.7,1.2-1.4,2.5-2,3.7c0.7-0.3,1.5-0.4,2.2-0.3
								c-2.2,1-3.7,2.8-5,4.8C70.1,65.7,70,65.9,69.8,66.2z"/>
						</defs>
						<use xlink:href="#XMLID_62_"  style="overflow:visible;fill:#FBF9F0;"/>
						<clipPath id="XMLID_5_">
							<use xlink:href="#XMLID_62_"  style="overflow:visible;"/>
						</clipPath>
					</g>
					<g>
						<defs>
							<path id="XMLID_27_" d="M55.4,82.4c-2.6,1.2-6.9,2.5-10.9,5.2c-1.9-0.6-4.7-0.8-8.5-0.5c1.6-0.1,6.7-2.5,10.7-6.2
								c1.8-1.1,3.7-2.1,5.5-3.2c1.4-0.8,3-1.8,3.7-3.2l0,0c0.5,2.3,1.1,4.5,1.7,6.5C57.2,81.5,56.4,81.9,55.4,82.4z"/>
						</defs>
						<use xlink:href="#XMLID_27_"  style="overflow:visible;fill:#FBF9F0;"/>
						<clipPath id="XMLID_6_">
							<use xlink:href="#XMLID_27_"  style="overflow:visible;"/>
						</clipPath>
						<path class="st6" d="M39.4,85.6c-0.8,0.2-1.6,0.6-2,1.2c1.3,0.9,3.9,1.3,5.5,1.2c1-0.1,1.9-0.2,2.8-0.7
							c1.5-0.8,3.2-2.1,4.8-2.5C58.1,83.1,49.8,82.8,39.4,85.6z"/>
					</g>
					<path class="st7" d="M51.7,86.5c5.3,0.3,7.3,3.1,7.2,5.2c0,1.3-0.9,2.4-2.2,2.4c-3,0.1-5.3-0.3-8.3-0.5
						c0.1-0.4,0.2-0.8,0.3-1.2c0.1-1.7-0.7-3.8-4.2-4.8c4-2.7,8.3-4,10.9-5.2C54.3,84.2,52.6,84.6,51.7,86.5z"/>
					<path class="st7" d="M70.3,65.4c0.2,5.8-0.9,11.2-0.4,17.1c0.3,3.1,1.2,4.8,1.2,7.3l0,0c-4.1-7.6-5-12.6-5.3-16.8h0.1
						c1.8-2.1,2.9-5.3,3.9-6.8C70,65.9,70.1,65.7,70.3,65.4z"/>
					<path class="st7" d="M73.8,14.6c-2.6-2-5.6-3-8.6-3.3c1.4-3.5,7.4-7,7.5-6.7C73.7,9,74,10.1,73.8,14.6L73.8,14.6z"/>
				</g>
				<g>
					<path class="st8" d="M72.1,96.8C72.1,96.7,72.1,96.7,72.1,96.8c-0.3-1.8-2.3-2.8-2.9-2.8"/>
					<path class="st8" d="M71.3,92.9c0.7,0.4,1.7,1.5,2.2,2.5"/>
					<path class="st8" d="M18,85.7c0.2,0.7,0.2,1.5-0.1,2.3c1.1-0.6,2.6-3.1,2.9-6.4c0.4,0.6,0.7,1.7,0.6,2.4c0.4-1,2.3-4.6,0.2-7.8
						c-0.6-0.8-1.4-1.4-2.3-1.8c-3-1.3-7.2-1-7.6-0.8c0.7-0.8,1.7-1.4,2.8-1.5c-2.1-0.4-4.4-0.1-6.4,0.8c-2,0.9-3.7,2.4-4.9,4.1
						c-0.8,1.1-1.5,2.5-1,3.8c-0.4-1-0.7-2.1-0.9-3.2C-0.1,80-1.9,91.5,6.6,93.8c2.5,0.7,5.2,0.9,7.8,0.6c1.5-0.2,3-0.7,4.4-1.3
						c1-0.5,1.9-1.1,2.7-1.8"/>
					<path class="st8" d="M18,85.7c-2,1-7.7,2.9-6.9-1.8c0.3-1.8,2.6-2.2,4.2-1.4C15.7,82.6,17.5,83.8,18,85.7z"/>
					<path class="st8" d="M18.1,85.7C18.1,85.7,18.1,85.7,18.1,85.7"/>
					<path class="st8" d="M39.9,64.5c1.5-0.3,7.9-1.1,10.3,3c3,5,0.3,9.8-3.6,13.4c-3.9,3.7-9,6.1-10.7,6.2c3.9-0.3,6.6,0,8.5,0.5
						c3.5,1,4.3,3.1,4.2,4.8c0,0.4-0.1,0.8-0.3,1.2c-0.4,1-1,1.8-1.4,1.8c-8.2,0.4-19.6-0.9-26.3-0.4c-0.7,0-1.6,0-2-0.6
						c-0.3-0.4-0.1-1,0.1-1.5c0,0,0-0.1,0-0.1"/>
					<path class="st8" d="M71.8,91c0.4,0.7,0.8,1.5,1.3,2.3c1.1,1.8,0.4,2.9-1.1,3.4c-2.6,1-7.8,0.2-9.2-1.5
						c-0.5-0.6-2.5-5.1-4.5-11.4c-0.3-0.9-0.6-1.9-0.9-2.8c-0.6-2.1-1.1-4.3-1.7-6.5c-0.5-2.5-1-5-1.4-7.6"/>
					<path class="st8" d="M65.6,65.8c0.1,0.9,0.1,1.7,0.1,2.6c0,1.5,0,3,0.1,4.6c0.3,4.2,1.2,9.3,5.3,16.8c0.2,0.4,0.4,0.7,0.6,1.1"
						/>
					<path class="st8" d="M44.5,87.6C44.5,87.6,44.5,87.6,44.5,87.6c4-2.7,8.3-4,11-5.2c1-0.5,1.8-0.9,2.1-1.4"/>
					<path class="st8" d="M55.4,82.4C55.4,82.4,55.4,82.4,55.4,82.4c-1.1,1.8-2.8,2.2-3.7,4.1c5.3,0.3,7.3,3.1,7.2,5.2
						c0,1.3-0.9,2.4-2.2,2.4c-3,0.1-5.3-0.3-8.3-0.5c0,0,0,0,0,0"/>
					<path class="st8" d="M70.3,65.3C70.3,65.3,70.3,65.4,70.3,65.3c0.2,5.9-0.9,11.3-0.4,17.2c0.3,3.1,1.2,4.8,1.2,7.3"/>
					<path class="st8" d="M58,13.2c-0.1-0.3-0.3-0.6-0.4-0.9c-1.4-2.7-3.7-4.6-6.3-6.4c-3.6,4.4-4.3,9.8-3.8,15.5
						c0.1,1.6-0.8,4.7-1.7,6c-1,1.6-2.6,2.5-4,1.4c0.6,1.5,2,2.6,3,2.5c-1.1,0.3-2.8,2.1-2.8,2.1s2.7,0.6,3.7,3
						c0.2,0.4,0.3,0.9,0.3,1.5c0.6,8.2-14.1,17-19.1,21.1c-8,6.6-7.3,11.8-7.8,15.5c0,0,0,0,0,0"/>
					<path class="st9" d="M71.4,35.9c2.8,2.7,8.2-0.3,8.5-2l-0.3-2.3"/>
					<path class="st10" d="M48.6,27.4c0.4,1,0.9,2,1.6,2.8c-0.9,0.2-1.8,0.1-2.5-0.5c0.5,2.3,1.5,3.2,2,5.6c-0.8-0.5-1-0.4-2.5-1
						c0.3,0.1,1,1.5,1.2,1.9c1,2.7,3.3,4.7,5.3,6.7c2.1,2.1,5.6,8.3,6.3,8.5c-1.1-0.2-1.3,0-2.4-0.3c0.6,0.6,4.1,4.1,5.5,5.5
						c-1.3-1.2-1.8-0.6-3.9-0.4c4.8,1.3,8.3,7.2,6.6,12.2c0,0,0,0.1,0,0.1"/>
					<path class="st10" d="M80.6,27.9c-3.5,0.4-7.8,3.8-9.6,3.9c-5.1,0.3-9.7-2.9-14.8-3.4"/>
					<path class="st8" d="M82.8,28.2c-0.7-0.3-1.4-0.4-2.2-0.3"/>
					<path class="st8" d="M65.1,11.4C65.1,11.4,65.1,11.4,65.1,11.4c1.4-3.5,7.5-7.1,7.5-6.7c1,4.3,1.3,5.4,1.2,9.9"/>
					<path class="st8" d="M54.9,15.7c0-0.1-0.1-0.2-0.1-0.3c0,0,0,0,0,0"/>
					<path class="st8" d="M54.7,15.4C54.8,15.4,54.8,15.4,54.7,15.4"/>
					<path class="st8" d="M54.7,15.4c-0.2-0.4-0.8-0.7-1.3-0.7c0.5,0.4,0.8,1.1,0.7,1.7c-0.3-0.4-0.6-0.8-0.9-1.2
						c-0.1,0.6-0.1,1.2,0,1.9c0,0,0,0-0.1,0c-0.6,0.5-2.4,2.3-2.4,2.3s-2.2-5.2,1.4-10c3.5,1.7,3.3,2.9,4.9,5.2
						c-1.1,0.5-1.2,0.6-1.5,0.8c-0.1-1-0.3-1.3-0.7-1.9C54.6,14.1,54.6,14.8,54.7,15.4z"/>
					<path class="st9" d="M70.4,36.3c0.2,0,0.7-0.1,1-0.4c0.2-0.2,0.4-0.5,0.4-0.9"/>
					<path class="st11" d="M63.8,45.4c0.8-0.3,1.6-0.7,2.4-1.1C66,44.9,66,45.7,65.4,46c1.8,0,3-0.8,4.5-1.8
						c-0.2,0.5-0.5,0.9-0.8,1.3c1-0.4,1.9-0.8,2.8-1.4"/>
					<path class="st8" d="M55.8,91c1,0.5,1.9,1.3,2.6,2.1"/>
					<path class="st8" d="M56.2,89.3c1.2,0.6,2.1,1.3,2.7,2.4c0,0,0,0,0,0"/>
					<path class="st8" d="M44.8,91.7c1.2,0.7,2.4,1.5,3.4,2.4"/>
					<path class="st8" d="M45.7,89.7c1.1,0.7,2.1,1.7,3,2.7c0,0,0,0,0,0"/>
					<path class="st8" d="M71.8,91L71.8,91c-1-1.2-2.8-1.2-4-1.4c-1.8-0.3-3.2-1.7-4.6-3c-1.3-1.3-2.8-2.7-4.7-2.8"/>
					<path class="st8" d="M55.8,74.5c-0.8,1.5-2.3,2.4-3.7,3.2c-1.8,1.1-3.7,2.2-5.5,3.2"/>
				</g>
			</g>
			<path class="st12" d="M72.7,36.7c2.6,1.6,5.4,2.1,7.9,0.6c0,0,1.5-1.3,1.8-2.6c0-0.2,0.1-0.2,0-0.4c-0.6-1.2-2.8-4-3.5-2.6
				C76.7,35.6,73.8,36.5,72.7,36.7z"/>
			<path class="st13" d="M73,15.3c0.2,0.2,0.3,0.5,0.4,0.7c0-0.1,0-0.3,0.1-0.4c0.2,0.1,0.5,0.7,0.5,1c0.1-0.1,0.4-0.4,0.4-0.5
				c0,0.4,0.1,1.6-0.3,2.2c0.1-0.1,0.3-0.1,0.5-0.2c-0.5,1-1.4,2.1-1.7,2.5c0,0-1-1.3-0.7-3c0.1,0.1,0.2,0.2,0.3,0.3
				C72.7,17,72.5,16.6,73,15.3z"/>
			<path class="st13" d="M67.7,19.5c-0.1,0.2,0.1,0.3,0.1,0.6c-0.2-0.2-0.8-0.9-1-1c-0.2-0.1-0.5-0.4-0.5-0.6
				c0.1,0.2,0.1,0.5,0.1,0.7c-0.9-0.4-1.5-1.1-2-1.9c0,0.4,0,0.8,0,1.2c-0.1-0.1-0.2-0.2-0.2-0.3c-0.2,0.6,0.1,1.9,0.4,2.1
				c-0.1,0-0.2,0-0.4-0.1c0.1,0,1,1.4,2.8,1.2c-0.2,0-0.3,0.1-0.4,0.2c0.3-0.1,0.5,0,0.8,0c0.6,0.1,1.2,0,1.9-0.2
				C69.4,21.4,67.7,19.5,67.7,19.5z"/>
			<path class="st14" d="M66.9,54.3c-0.3-0.7-1-1.2-1.7-1.6c-0.7-0.3-1.5-0.6-2.2-1c1.3,0.2,2.6,0.4,3.8,0.6c-0.2-0.7-0.4-1.4-0.6-2
				c0.5,0.4,0.9,0.7,1.4,1.1c0.5,0.3,1,0.7,1.6,0.7c-0.5-0.1-0.7-0.6-0.8-1.1s0.1-0.9,0.4-1.4c0.3,0.5,0.6,1,1,1.4
				c0.1,0.1,0.2,0.2,0.3,0.2c0.1,0,0.2,0,0.3-0.1c0.7-0.4,1.1-1.2,1.2-2c0.1,0.5,0.1,0.9,0.2,1.4c0,0.1,0,0.1,0.1,0.2
				c0.1,0.1,0.2,0,0.3-0.1c0.7-0.5,1.3-1.2,1.8-1.9c-0.3,1.7-0.7,3.6-1.9,4.9c0.1-0.8,0.1-1.5,0.2-2.3c-0.3,0.3-0.5,0.6-0.7,0.9
				c-0.1-0.3-0.2-0.5-0.3-0.8c0-0.1-0.1-0.1-0.1-0.1c0,0-0.1,0-0.1,0.1c-0.3,0.3-0.4,0.7-0.5,1.1c-0.3-0.2-0.7-0.4-1-0.7
				c0.2,0.3,0.4,0.5,0.6,0.8c-0.8,0.2-1.6,0.3-2.4,0.1c0.5,0.3,0.7,0.8,0.7,1.4c-0.5-0.4-1-0.7-1.5-0.9c0.4,0.6,0.6,1.3,0.6,2
				c-0.4-0.4-0.7-0.8-1-1.3"/>
			<path class="st14" d="M71.4,56.7c1-0.5,1.8-1.3,2.2-2.3c0,0.7,0.1,1.5-0.3,2.1c-0.2,0.4-0.4,0.7-0.7,1c-0.3,0.5-0.6,1.1-0.7,1.7
				c0.3-0.1,0.7-0.1,1-0.2c-0.5,0.7-1.1,1.2-1.8,1.7c0.2-1,0.4-2.1,0.7-3.1c-0.6,0.4-1.2,0.9-1.8,1.3c-0.1-0.4-0.1-0.8-0.1-1.2
				c-0.1,1.1-1,1.8-1.9,2.5c0.1-0.5,0.1-1,0.1-1.6c-0.1,0.3-0.2,0.7-0.4,1c-0.6-0.2-1.3-0.5-1.9-0.9c-0.6-0.4-1.1-0.9-1.3-1.5
				c0.3,0,0.5,0.2,0.8,0.4c0.5,0.4,1.1,0.7,1.7,0.7c0.1,0,0.2,0,0.2,0c0.1,0,0.1-0.1,0.1-0.1c0.3-0.5,0.5-1,0.8-1.5
				c0.3,0.5,0.5,1,0.7,1.5c0.6-0.8,1.1-1.7,1.3-2.6c0.4,0.7,0.6,1.5,0.4,2.3c0.7-0.7,1.3-1.4,1.9-2.2"/>
			<path class="st15" d="M76.9,20.7c0.2,0,2.2,1.9,2.2,2.4c0,0.7,0.4,0.3,0.3,0.9c-0.1,0.6-0.5,1.7-1.8,2.6c0,0,0,0.1-0.1,0.1
				c-0.1,0.1-0.3,0-0.4-0.1c-0.6-0.6-1.6-0.5-2.3-1c-0.6-0.4-0.9-0.6-1-1.2C73.4,23,75.4,21,76.9,20.7z"/>
			<g>
				<path class="st16" d="M74.3,24.2c0-0.4,0.1-0.8,0.3-1.1c0.5-0.8,1.7-2,4.1-0.4c0,0,0.1,0.1,0.1,0.1c0,0.5-0.3,2.9-3.7,2.6
					C75.1,25.5,74.2,25.4,74.3,24.2z"/>
				<path d="M74.2,24.3c-0.1-1,0.3-1.7,0.3-2.4c0.1,0.2,0.1,0.4,0.1,0.5c0.2-0.4,0.5-0.8,0.9-1.1c-0.2,0.2-0.2,0.4-0.3,0.6
					c0-0.1,0.1-0.1,0.1-0.1c0.6-0.2,1.2-0.5,1.7-0.7c-0.2,0.1-0.4,0.3-0.6,0.4c0.6-0.1,1.2-0.2,1.8-0.2c-0.3,0.2-0.5,0.3-0.8,0.5
					c0.2,0.2,1.1-0.1,1.4-0.1c-0.1,0-0.3,0.1-0.4,0.2c-0.1,0.1-0.3,0.1-0.4,0.2c0.3,0.1,0.7,0.1,1,0c-0.2,0.1-0.4,0.2-0.5,0.2
					c0,0-0.1,0-0.1,0c-0.1,0-0.2-0.1-0.3-0.2c-0.2-0.2-0.4,0-0.6-0.2c-0.5-0.3-1.1-0.3-1.6-0.1c-0.5,0.2-0.9,0.6-1.2,1.1"/>
				<circle class="st17" cx="76" cy="24" r="1.5"/>
				<circle cx="75.8" cy="24" r="0.9"/>
				<circle class="st18" cx="75.1" cy="23.9" r="0.3"/>
			</g>
			<path class="st15" d="M64.4,23.1c-1,0.3-1.9,1-2.7,1.7c-0.3,0.2-0.4,0.6-0.7,0.9c-1,1.1,0.9,2.2,1.8,2.7c1.1,0.7,6.3-0.6,6.1-1.3
				C67.9,23.9,64.8,22.9,64.4,23.1z"/>
			<g>
				<path class="st19" d="M67.1,27.1c-0.3-0.4-0.5-0.7-0.8-1.3c-0.2-0.4-0.4-0.8-0.8-1.1c-0.9-0.7-2.6-1.5-4.5,1.1
					c0,0.1,0,0.1,0,0.2c0.2,0.5,1.4,3,4.9,1.4c0,0,0.4,0,1.2,0C67.2,27.4,67.2,27.3,67.1,27.1z"/>
				<path d="M66.4,25.8c-0.3-1.1-1-1.7-1.2-2.4c0,0.2,0,0.4,0.1,0.6c-0.4-0.4-0.8-0.7-1.4-0.8c0.3,0.2,0.4,0.4,0.6,0.5
					c0-0.1-0.1-0.1-0.2-0.1c-0.7,0-1.4-0.1-2.1-0.1c0.3,0,0.5,0.2,0.8,0.2c-0.7,0.1-1.3,0.3-2,0.4c0.3,0.1,0.7,0.1,1,0.2
					c-0.2,0.3-1.2,0.3-1.5,0.5c0.1,0,0.3,0,0.4,0c0.2,0,0.4,0,0.5,0c-0.3,0.3-0.7,0.4-1.1,0.4c0.2,0,0.4,0,0.7,0.1c0,0,0.1,0,0.1,0
					c0.1,0,0.2-0.2,0.3-0.3c0.2-0.3,0.5-0.2,0.6-0.4c0.4-0.5,1-0.8,1.6-0.8c0.6,0,1.2,0.3,1.7,0.7"/>
				<circle class="st20" cx="63.4" cy="26.1" r="1.7"/>
				<circle cx="63.1" cy="26.1" r="1"/>
				<circle class="st18" cx="62.4" cy="26" r="0.3"/>
			</g>
			<path class="st21" d="M62.1,28.1c1.5,0.4,3.2,0.1,4.8-0.1C66.9,28,64,29.8,62.1,28.1z"/>
			<path class="st21" d="M78.8,24.5c0.1,0.4,0.1,0.8-0.1,1.2c-0.2,0.2-2,0.6-2.4,0.2C76.3,25.8,78.4,25.3,78.8,24.5z"/>
			<path class="st0" d="M75,30.8c-0.2-0.7-5.6-0.8-6.6-0.6"/>
			<path class="st0" d="M73.5,31.8c-3.7,0.5-4.9,2.8-5.3,3.5"/>
			<path class="st0" d="M74.4,32.8c-0.6,0.3-1,0.9-1.3,1.5"/>
			<path class="st22" d="M17.3,74.8c5.7,0.8,4.4,5.8,4.3,6.4c0-0.3-0.7-1.3-0.8-1.6c-0.5,3.6-1,4.7-1.9,5.9c0.4-1.2,1-3.3,0.9-4.1
				c-0.3,0.5-1,1.7-1.4,2.1c1-2.2,1.6-4,1.1-6.4c0.2,0.3,0.8,0.6,1,1.6C20.4,78.7,21.4,76.7,17.3,74.8z"/>
			<path class="st9" d="M79.9,33.9c0,0,0.9,1.4,2.5,0.8"/>
			<path class="st9" d="M71.4,35.9c2.8,2.7,8.2-0.3,8.5-2l-0.3-2.3"/>
			<path class="st8" d="M57.6,12.3c2.3-0.8,4.9-1.2,7.6-0.9c3,0.2,6,1.2,8.6,3.3c1,0.8,2,1.7,2.9,2.9c2.7,3.4,1.7,7.4,5.2,9.9
				c0.3,0.2,0.6,0.4,0.9,0.7c0.3,0.3,0.4,0.7,0.5,1.1c0.5,2.2-0.2,4.5-1.5,6.5c-0.4,0.6-0.9,1.3-1.4,1.8c-2,2.3-4.6,4-6.6,6.2
				c-0.3,0.3-0.6,0.6-0.7,1c-0.2,0.5-0.2,2,0,2.5l0.7-1.2c1,4.1,2.3,8.4-0.6,12.1c0.7-0.2,1.3-0.6,1.8-1c-0.7,1.2-1.4,2.5-2,3.7
				c0.7-0.3,1.5-0.4,2.2-0.3c-2.2,1-3.7,2.8-5,4.8c-0.2,0.3-0.3,0.5-0.5,0.8c-0.9,1.6-2.1,4.8-3.9,6.8"/>
			<circle cx="75.7" cy="32.5" r="0.1"/>
			<circle cx="75.6" cy="33.2" r="0.1"/>
		</g>
		<path class="st0" d="M79.1,27.6c0.7-0.9,1.8-2.3,4.2-2.8"/>
		<path class="st0" d="M80.6,28.1c1.2-0.6,2.6-0.7,4-0.6"/>
		<path class="st0" d="M82.1,29.6c0.3-0.2,0.7-0.2,1.1-0.2c0.5,0,0.9,0.1,1.4,0.2"/>
	</g>
	<path class="st23" d="M43.4,8.2c-8,0.3-8.6-3.5-6.4-4.9c0.9-0.6,1.9-0.3,3,0c0.1-1.1,0.2-2.1,1.1-2.8C43.1-1,46.5,0.8,43.4,8.2z"/>
	<g>
		<path class="st24" d="M80.6,28l-0.5,0.1c-5.6-1.9-8.1-4.7-8.8-5.7l0.2-0.1c0.7,0.9,6.9,5.5,9,5.5h0V28z"/>
	</g>
	<g>
		<path d="M81.1,31.8c1.1-1.2,2.8-3.5,0.4-4.6c-0.4-0.2-0.9-0.1-1.4,0.1c-0.2,0.1-0.3,0.2-0.5,0.3c-0.4,0.3-1.3,0.6-1.8,0.7
			c-0.9,0.2-1.9,0.8-1.9,1.5c0,1,1.1,2.9,3.8,2.7C80.1,32.6,80.8,32.2,81.1,31.8z"/>
		<path class="st18" d="M76.9,29.3C76.9,29.3,76.9,29.3,76.9,29.3c-0.2,0.1-0.1,0.4,0.1,0.4c0.4-0.1,1.4-0.5,1.6-0.6
			c1.4-0.6,2.5-0.6,2.5-1.2C81.2,27.3,79.8,28.5,76.9,29.3z"/>
	</g>
</g>
</svg>
